<?xml version="1.0" encoding="UTF-8" standalone="no"?>
<!-- Created with Inkscape (http://www.inkscape.org/) -->

<svg
   xmlns:dc="http://purl.org/dc/elements/1.1/"
   xmlns:cc="http://creativecommons.org/ns#"
   xmlns:rdf="http://www.w3.org/1999/02/22-rdf-syntax-ns#"
   xmlns:svg="http://www.w3.org/2000/svg"
   xmlns="http://www.w3.org/2000/svg"
   xmlns:sodipodi="http://sodipodi.sourceforge.net/DTD/sodipodi-0.dtd"
   xmlns:inkscape="http://www.inkscape.org/namespaces/inkscape"
   version="1.1"
   id="svg2"
   xml:space="preserve"
   width="352.54901"
   height="270.30499"
   viewBox="0 0 352.54901 270.30499"
   sodipodi:docname="CNX_Econ_C03_007.svg"
   inkscape:version="0.92.5 (2060ec1f9f, 2020-04-08)"><metadata
     id="metadata8"><rdf:RDF><cc:Work
         rdf:about=""><dc:format>image/svg+xml</dc:format><dc:type
           rdf:resource="http://purl.org/dc/dcmitype/StillImage" /><dc:title></dc:title></cc:Work></rdf:RDF></metadata><defs
     id="defs6">











































































































</defs><sodipodi:namedview
     pagecolor="#ffffff"
     bordercolor="#666666"
     borderopacity="1"
     objecttolerance="10"
     gridtolerance="10"
     guidetolerance="10"
     inkscape:pageopacity="0"
     inkscape:pageshadow="2"
     inkscape:window-width="1848"
     inkscape:window-height="1043"
     id="namedview4"
     showgrid="false"
     inkscape:snap-bbox="true"
     inkscape:bbox-paths="true"
     inkscape:bbox-nodes="true"
     inkscape:snap-bbox-edge-midpoints="true"
     inkscape:snap-bbox-midpoints="true"
     showguides="true"
     inkscape:guide-bbox="true"
     inkscape:zoom="1"
     inkscape:cx="239.91279"
     inkscape:cy="127.12365"
     inkscape:window-x="1438"
     inkscape:window-y="0"
     inkscape:window-maximized="1"
     inkscape:current-layer="g10"><sodipodi:guide
       position="59.723323,192.836"
       orientation="1,0"
       id="guide264"
       inkscape:locked="false" /></sodipodi:namedview><g
     id="g10"
     inkscape:groupmode="layer"
     inkscape:label="ink_ext_XXXXXX"
     transform="matrix(1.3333333,0,0,-1.3333333,0,270.305)"><g
       id="g394"
       transform="translate(-17.756171,-1.2855329)"><path
         d="M 52.4906,31.6641 V 28.1102"
         style="fill:none;stroke:#3f60b6;stroke-width:0.5;stroke-linecap:butt;stroke-linejoin:miter;stroke-miterlimit:4;stroke-dasharray:none;stroke-opacity:1"
         id="path14"
         inkscape:connector-curvature="0" /><path
         d="m 48.8266,144.627 h 3.7675"
         style="fill:none;stroke:#3f60b6;stroke-width:0.5;stroke-linecap:butt;stroke-linejoin:miter;stroke-miterlimit:4;stroke-dasharray:none;stroke-opacity:1"
         id="path16"
         inkscape:connector-curvature="0" /><path
         d="m 48.8266,88.266 h 3.7675"
         style="fill:none;stroke:#3f60b6;stroke-width:0.5;stroke-linecap:butt;stroke-linejoin:miter;stroke-miterlimit:4;stroke-dasharray:none;stroke-opacity:1"
         id="path18"
         inkscape:connector-curvature="0" /><path
         d="m 48.8266,69.4781 h 3.7675"
         style="fill:none;stroke:#3f60b6;stroke-width:0.5;stroke-linecap:butt;stroke-linejoin:miter;stroke-miterlimit:4;stroke-dasharray:none;stroke-opacity:1"
         id="path20"
         inkscape:connector-curvature="0" /><g
         transform="translate(-1.5304687)"
         id="g22"><text
   transform="matrix(1,0,0,-1,51.4781,17.498)"
   style="font-variant:normal;font-weight:normal;font-size:8px;font-family:ArialMT;-inkscape-font-specification:ArialMT;writing-mode:lr-tb;fill:#3f60b6;fill-opacity:1;fill-rule:nonzero;stroke:none"
   id="text26"><tspan
     style="font-style:normal;font-variant:normal;font-weight:normal;font-stretch:normal;font-family:sans-serif;-inkscape-font-specification:sans-serif"
     x="0"
     y="0"
     id="tspan24">8</tspan></text>




</g><path
         d="M 255.204,31.6641 V 28.1102"
         style="fill:none;stroke:#3f60b6;stroke-width:0.5;stroke-linecap:butt;stroke-linejoin:miter;stroke-miterlimit:4;stroke-dasharray:none;stroke-opacity:1"
         id="path28"
         inkscape:connector-curvature="0" /><g
         id="g30"><text
   transform="matrix(1,0,0,-1,251.425,17.498)"
   style="font-variant:normal;font-weight:normal;font-size:8px;font-family:ArialMT;-inkscape-font-specification:ArialMT;writing-mode:lr-tb;fill:#3f60b6;fill-opacity:1;fill-rule:nonzero;stroke:none"
   id="text34"><tspan
     style="font-style:normal;font-variant:normal;font-weight:normal;font-stretch:normal;font-family:sans-serif;-inkscape-font-specification:sans-serif"
     x="0 4.4492207"
     y="0"
     sodipodi:role="line"
     id="tspan32">23</tspan></text>




</g><path
         d="M 211.593,31.6641 V 28.1102"
         style="fill:none;stroke:#3f60b6;stroke-width:0.5;stroke-linecap:butt;stroke-linejoin:miter;stroke-miterlimit:4;stroke-dasharray:none;stroke-opacity:1"
         id="path36"
         inkscape:connector-curvature="0" /><path
         d="M 187.63,31.6641 V 28.1102"
         style="fill:none;stroke:#3f60b6;stroke-width:0.5;stroke-linecap:butt;stroke-linejoin:miter;stroke-miterlimit:4;stroke-dasharray:none;stroke-opacity:1"
         id="path44"
         inkscape:connector-curvature="0" /><text
         y="-17.497999"
         x="183.336"
         id="text50"
         style="font-variant:normal;font-weight:normal;font-size:8px;font-family:ArialMT;-inkscape-font-specification:ArialMT;writing-mode:lr-tb;fill:#3f60b6;fill-opacity:1;fill-rule:nonzero;stroke:none"
         transform="scale(1,-1)"><tspan
           style="font-style:normal;font-variant:normal;font-weight:normal;font-stretch:normal;font-family:sans-serif;-inkscape-font-specification:sans-serif"
           id="tspan48"
           sodipodi:role="line"
           y="-17.497999"
           x="183.336 187.78522">18</tspan></text>
<path
         d="M 166.926,31.6641 V 28.1102"
         style="fill:none;stroke:#3f60b6;stroke-width:0.5;stroke-linecap:butt;stroke-linejoin:miter;stroke-miterlimit:4;stroke-dasharray:none;stroke-opacity:1"
         id="path52"
         inkscape:connector-curvature="0" /><text
         y="-185.79094"
         x="222.83992"
         id="text68"
         style="font-variant:normal;font-weight:normal;font-size:4.66400003px;font-family:ArialMT;-inkscape-font-specification:ArialMT;writing-mode:lr-tb;fill:#3f60b6;fill-opacity:1;fill-rule:nonzero;stroke:none"
         transform="scale(1,-1)"><tspan
           style="font-style:normal;font-variant:normal;font-weight:normal;font-stretch:normal;font-family:sans-serif;-inkscape-font-specification:sans-serif"
           id="tspan66"
           y="-185.79094"
           x="222.83992">1</tspan></text>
<text
         y="-188.455"
         x="237.50401"
         id="text72"
         style="font-variant:normal;font-weight:normal;font-size:8px;font-family:ArialMT;-inkscape-font-specification:ArialMT;writing-mode:lr-tb;fill:#3f60b6;fill-opacity:1;fill-rule:nonzero;stroke:none"
         transform="scale(1,-1)"><tspan
           style="font-style:normal;font-variant:normal;font-weight:normal;font-stretch:normal;font-family:sans-serif;-inkscape-font-specification:sans-serif"
           id="tspan70"
           y="-188.455"
           x="237.50401">S</tspan></text>
<text
         y="-185.79094"
         x="242.83997"
         id="text76"
         style="font-variant:normal;font-weight:normal;font-size:4.66400003px;font-family:ArialMT;-inkscape-font-specification:ArialMT;writing-mode:lr-tb;fill:#3f60b6;fill-opacity:1;fill-rule:nonzero;stroke:none"
         transform="scale(1,-1)"><tspan
           style="font-style:normal;font-variant:normal;font-weight:normal;font-stretch:normal;font-family:sans-serif;-inkscape-font-specification:sans-serif"
           id="tspan74"
           y="-185.79094"
           x="242.83997">0</tspan></text>
<text
         y="-188.455"
         x="267.17126"
         id="text80"
         style="font-variant:normal;font-weight:normal;font-size:8px;font-family:ArialMT;-inkscape-font-specification:ArialMT;writing-mode:lr-tb;fill:#3f60b6;fill-opacity:1;fill-rule:nonzero;stroke:none"
         transform="scale(1,-1)"><tspan
           style="font-style:normal;font-variant:normal;font-weight:normal;font-stretch:normal;font-family:sans-serif;-inkscape-font-specification:sans-serif"
           id="tspan78"
           y="-188.455"
           x="267.17126">S</tspan></text>
<text
         y="-185.79094"
         x="272.5072"
         id="text84"
         style="font-variant:normal;font-weight:normal;font-size:4.66400003px;font-family:ArialMT;-inkscape-font-specification:ArialMT;writing-mode:lr-tb;fill:#3f60b6;fill-opacity:1;fill-rule:nonzero;stroke:none"
         transform="scale(1,-1)"><tspan
           style="font-style:normal;font-variant:normal;font-weight:normal;font-stretch:normal;font-family:sans-serif;-inkscape-font-specification:sans-serif"
           id="tspan82"
           y="-185.79094"
           x="272.5072">2</tspan></text>
<path
         d="M 120.006,31.6641 V 28.1102"
         style="fill:none;stroke:#3f60b6;stroke-width:0.5;stroke-linecap:butt;stroke-linejoin:miter;stroke-miterlimit:4;stroke-dasharray:none;stroke-opacity:1"
         id="path86"
         inkscape:connector-curvature="0" /><path
         d="m 48.8266,163.414 h 3.7675"
         style="fill:none;stroke:#3f60b6;stroke-width:0.5;stroke-linecap:butt;stroke-linejoin:miter;stroke-miterlimit:4;stroke-dasharray:none;stroke-opacity:1"
         id="path96"
         inkscape:connector-curvature="0" /><g
         transform="translate(19.292126,-0.72810937)"
         id="g98"><text
   transform="matrix(1,0,0,-1,15.7699,161.23)"
   style="font-variant:normal;font-weight:normal;font-size:8px;font-family:ArialMT;-inkscape-font-specification:ArialMT;writing-mode:lr-tb;fill:#3f60b6;fill-opacity:1;fill-rule:nonzero;stroke:none"
   id="text102"><tspan
     y="0"
     style="font-style:normal;font-variant:normal;font-weight:normal;font-stretch:normal;font-family:sans-serif;-inkscape-font-specification:sans-serif"
     x="0"
     sodipodi:role="line"
     id="tspan100">24</tspan></text>




</g><path
         d="m 48.8266,182.202 h 3.7675"
         style="fill:none;stroke:#3f60b6;stroke-width:0.5;stroke-linecap:butt;stroke-linejoin:miter;stroke-miterlimit:4;stroke-dasharray:none;stroke-opacity:1"
         id="path104"
         inkscape:connector-curvature="0" /><g
         transform="translate(19.346813,-0.72610937)"
         id="g106"><text
   transform="matrix(1,0,0,-1,15.7699,180.016)"
   style="font-variant:normal;font-weight:normal;font-size:8px;font-family:ArialMT;-inkscape-font-specification:ArialMT;writing-mode:lr-tb;fill:#3f60b6;fill-opacity:1;fill-rule:nonzero;stroke:none"
   id="text110"><tspan
     y="0"
     style="font-style:normal;font-variant:normal;font-weight:normal;font-stretch:normal;font-family:sans-serif;-inkscape-font-specification:sans-serif"
     x="0"
     sodipodi:role="line"
     id="tspan108">26</tspan></text>




</g><path
         d="m 48.8266,200.989 h 3.913636"
         style="fill:none;stroke:#3f60b6;stroke-width:0.50960493;stroke-linecap:butt;stroke-linejoin:miter;stroke-miterlimit:4;stroke-dasharray:none;stroke-opacity:1"
         id="path112"
         inkscape:connector-curvature="0" /><text
         y="-3.0120001"
         x="110.00899"
         id="text122"
         style="font-variant:normal;font-weight:bold;font-size:8px;font-family:Arial;-inkscape-font-specification:Arial-BoldMT;writing-mode:lr-tb;fill:#3f60b6;fill-opacity:1;fill-rule:nonzero;stroke:none"
         transform="scale(1,-1)"><tspan
           style="font-style:normal;font-variant:normal;font-weight:bold;font-stretch:normal;font-family:sans-serif;-inkscape-font-specification:'sans-serif Bold'"
           id="tspan120"
           sodipodi:role="line"
           x="110.00899"
           y="-3.0120001">Liczba aut (tys. sztuk)</tspan></text>
<path
         d="m 48.8266,107.052 h 3.7675"
         style="fill:none;stroke:#3f60b6;stroke-width:0.5;stroke-linecap:butt;stroke-linejoin:miter;stroke-miterlimit:4;stroke-dasharray:none;stroke-opacity:1"
         id="path128"
         inkscape:connector-curvature="0" /><path
         d="m 48.8266,50.6898 h 3.7675"
         style="fill:none;stroke:#3f60b6;stroke-width:0.5;stroke-linecap:butt;stroke-linejoin:miter;stroke-miterlimit:4;stroke-dasharray:none;stroke-opacity:1"
         id="path140"
         inkscape:connector-curvature="0" /><text
         y="-47.777691"
         x="35.413586"
         id="text146"
         style="font-variant:normal;font-weight:normal;font-size:8px;font-family:ArialMT;-inkscape-font-specification:ArialMT;writing-mode:lr-tb;fill:#3f60b6;fill-opacity:1;fill-rule:nonzero;stroke:none"
         transform="scale(1,-1)"><tspan
           y="-47.777691"
           style="font-style:normal;font-variant:normal;font-weight:normal;font-stretch:normal;font-family:sans-serif;-inkscape-font-specification:sans-serif"
           id="tspan144"
           sodipodi:role="line"
           x="35.413586">12</tspan></text>
<path
         d="m 48.8266,31.709 h 3.7675"
         style="fill:none;stroke:#3f60b6;stroke-width:0.5;stroke-linecap:butt;stroke-linejoin:miter;stroke-miterlimit:4;stroke-dasharray:none;stroke-opacity:1"
         id="path148"
         inkscape:connector-curvature="0" /><text
         y="-28.79689"
         x="35.144058"
         id="text154"
         style="font-variant:normal;font-weight:normal;font-size:8px;font-family:ArialMT;-inkscape-font-specification:ArialMT;writing-mode:lr-tb;fill:#3f60b6;fill-opacity:1;fill-rule:nonzero;stroke:none"
         transform="scale(1,-1)"><tspan
           y="-28.79689"
           style="font-style:normal;font-variant:normal;font-weight:normal;font-stretch:normal;font-family:sans-serif;-inkscape-font-specification:sans-serif"
           id="tspan152"
           sodipodi:role="line"
           x="35.144058">10</tspan></text>
<text
         y="23.834232"
         x="84.75206"
         id="text158"
         style="font-variant:normal;font-weight:bold;font-size:8px;font-family:Arial;-inkscape-font-specification:Arial-BoldMT;writing-mode:lr-tb;fill:#3f60b6;fill-opacity:1;fill-rule:nonzero;stroke:none"
         transform="matrix(0,1,1,0,0,0)"><tspan
           style="font-style:normal;font-variant:normal;font-weight:bold;font-stretch:normal;font-family:sans-serif;-inkscape-font-specification:'sans-serif Bold'"
           y="23.834232"
           x="84.75206"
           id="tspan156"
           sodipodi:role="line">Cena (tys. zł)</tspan></text>
<path
         d="M 117.592,95.8191 H 109.11"
         style="fill:none;stroke:#231f20;stroke-width:0.5;stroke-linecap:butt;stroke-linejoin:miter;stroke-miterlimit:4;stroke-dasharray:none;stroke-opacity:1"
         id="path174"
         inkscape:connector-curvature="0" /><path
         d="m 107.573,95.152 c 1.076,-0.325 1.775,-0.6239 2.638,-0.9711 v 3.2812 c -0.308,-0.1461 -1.562,-0.6449 -2.638,-0.9691 -1.151,-0.3481 -2.194,-0.586 -2.871,-0.6711 0.677,-0.0848 1.72,-0.3219 2.871,-0.6699"
         style="fill:#231f20;fill-opacity:1;fill-rule:nonzero;stroke:none;stroke-width:0.1"
         id="path176"
         inkscape:connector-curvature="0" /><path
         d="m 167.184,118.006 h -8.482"
         style="fill:none;stroke:#231f20;stroke-width:0.5;stroke-linecap:butt;stroke-linejoin:miter;stroke-miterlimit:4;stroke-dasharray:none;stroke-opacity:1"
         id="path178"
         inkscape:connector-curvature="0" /><path
         d="m 157.165,117.338 c 1.076,-0.324 1.775,-0.623 2.636,-0.97 v 3.281 c -0.308,-0.147 -1.56,-0.645 -2.636,-0.969 -1.153,-0.348 -2.196,-0.586 -2.872,-0.672 0.676,-0.084 1.719,-0.322 2.872,-0.67"
         style="fill:#231f20;fill-opacity:1;fill-rule:nonzero;stroke:none;stroke-width:0.1"
         id="path180"
         inkscape:connector-curvature="0" /><path
         d="m 217.26,154.819 h -8.483"
         style="fill:none;stroke:#231f20;stroke-width:0.5;stroke-linecap:butt;stroke-linejoin:miter;stroke-miterlimit:4;stroke-dasharray:none;stroke-opacity:1"
         id="path182"
         inkscape:connector-curvature="0" /><path
         d="m 207.24,154.152 c 1.076,-0.325 1.775,-0.624 2.637,-0.971 v 3.282 c -0.308,-0.147 -1.561,-0.646 -2.637,-0.97 -1.152,-0.348 -2.195,-0.586 -2.871,-0.671 0.676,-0.085 1.719,-0.322 2.871,-0.67"
         style="fill:#231f20;fill-opacity:1;fill-rule:nonzero;stroke:none;stroke-width:0.1"
         id="path184"
         inkscape:connector-curvature="0" /><path
         d="m 137.049,101.298 h 7.686"
         style="fill:none;stroke:#231f20;stroke-width:0.5;stroke-linecap:butt;stroke-linejoin:miter;stroke-miterlimit:4;stroke-dasharray:none;stroke-opacity:1"
         id="path186"
         inkscape:connector-curvature="0" /><path
         d="m 146.27,101.966 c -1.074,0.325 -1.773,0.623 -2.637,0.971 v -3.2819 c 0.311,0.1461 1.563,0.6459 2.637,0.9699 1.152,0.347 2.195,0.585 2.871,0.669 -0.676,0.086 -1.719,0.325 -2.871,0.672"
         style="fill:#231f20;fill-opacity:1;fill-rule:nonzero;stroke:none;stroke-width:0.1"
         id="path188"
         inkscape:connector-curvature="0" /><path
         d="M 52.5934,125.826 H 211.593 V 31.825"
         style="fill:none;stroke:#b33aa3;stroke-width:0.5;stroke-linecap:butt;stroke-linejoin:miter;stroke-miterlimit:4;stroke-dasharray:2.85661, 1.90441;stroke-dashoffset:0;stroke-opacity:1"
         id="path190"
         inkscape:connector-curvature="0" /><path
         d="M 187.63,125.732 V 31.7309"
         style="fill:none;stroke:#b33aa3;stroke-width:0.5;stroke-linecap:butt;stroke-linejoin:miter;stroke-miterlimit:4;stroke-dasharray:2.85661, 1.90441;stroke-dashoffset:0;stroke-opacity:1"
         id="path192"
         inkscape:connector-curvature="0" /><path
         d="M 166.926,125.732 V 31.7309"
         style="fill:none;stroke:#b33aa3;stroke-width:0.5;stroke-linecap:butt;stroke-linejoin:miter;stroke-miterlimit:4;stroke-dasharray:2.85661, 1.90441;stroke-dashoffset:0;stroke-opacity:1"
         id="path194"
         inkscape:connector-curvature="0" /><path
         d="m 213.526,127.111 c 1.012,-1.012 1.012,-2.668 0,-3.68 -1.011,-1.011 -2.667,-1.011 -3.679,0 -1.012,1.012 -1.012,2.668 0,3.68 1.012,1.012 2.668,1.012 3.679,0"
         style="fill:#3f60b6;fill-opacity:1;fill-rule:nonzero;stroke:none;stroke-width:0.1"
         id="path196"
         inkscape:connector-curvature="0" /><path
         d="m 189.526,127.111 c 1.012,-1.012 1.012,-2.668 0,-3.68 -1.011,-1.011 -2.667,-1.011 -3.679,0 -1.012,1.012 -1.012,2.668 0,3.68 1.012,1.012 2.668,1.012 3.679,0"
         style="fill:#3f60b6;fill-opacity:1;fill-rule:nonzero;stroke:none;stroke-width:0.1"
         id="path198"
         inkscape:connector-curvature="0" /><path
         d="m 168.86,127.111 c 1.011,-1.012 1.011,-2.668 0,-3.68 -1.012,-1.011 -2.668,-1.011 -3.68,0 -1.012,1.012 -1.012,2.668 0,3.68 1.012,1.012 2.668,1.012 3.68,0"
         style="fill:#3f60b6;fill-opacity:1;fill-rule:nonzero;stroke:none;stroke-width:0.1"
         id="path200"
         inkscape:connector-curvature="0" /><path
         d="m 168.86,109.443 c 1.011,-1.012 1.011,-2.668 0,-3.68 -1.012,-1.012 -2.668,-1.012 -3.68,0 -1.012,1.012 -1.012,2.668 0,3.68 1.012,1.012 2.668,1.012 3.68,0"
         style="fill:#3f60b6;fill-opacity:1;fill-rule:nonzero;stroke:none;stroke-width:0.1"
         id="path202"
         inkscape:connector-curvature="0" /><path
         d="m 149.192,109.443 c 1.012,-1.012 1.012,-2.668 0,-3.68 -1.011,-1.012 -2.667,-1.012 -3.679,0 -1.012,1.012 -1.012,2.668 0,3.68 1.012,1.012 2.668,1.012 3.679,0"
         style="fill:#3f60b6;fill-opacity:1;fill-rule:nonzero;stroke:none;stroke-width:0.1"
         id="path204"
         inkscape:connector-curvature="0" /><path
         d="m 128.525,109.443 c 1.012,-1.012 1.012,-2.668 0,-3.68 -1.011,-1.012 -2.667,-1.012 -3.679,0 -1.012,1.012 -1.012,2.668 0,3.68 1.012,1.012 2.668,1.012 3.679,0"
         style="fill:#3f60b6;fill-opacity:1;fill-rule:nonzero;stroke:none;stroke-width:0.1"
         id="path206"
         inkscape:connector-curvature="0" /><path
         d="m 88.1926,90.4441 c 1.0117,-1.0121 1.0117,-2.6679 0,-3.68 -1.0117,-1.0121 -2.6676,-1.0121 -3.6793,0 -1.0117,1.0121 -1.0117,2.6679 0,3.68 1.0117,1.0118 2.6676,1.0118 3.6793,0"
         style="fill:#3f60b6;fill-opacity:1;fill-rule:nonzero;stroke:none;stroke-width:0.1"
         id="path208"
         inkscape:connector-curvature="0" /><path
         d="m 108.859,90.4441 c 1.011,-1.0121 1.011,-2.6679 0,-3.68 -1.011,-1.0121 -2.667,-1.0121 -3.679,0 -1.012,1.0121 -1.012,2.6679 0,3.68 1.012,1.0118 2.668,1.0118 3.679,0"
         style="fill:#3f60b6;fill-opacity:1;fill-rule:nonzero;stroke:none;stroke-width:0.1"
         id="path210"
         inkscape:connector-curvature="0" /><path
         d="m 125.192,90.4441 c 1.012,-1.0121 1.012,-2.6679 0,-3.68 -1.012,-1.0121 -2.668,-1.0121 -3.68,0 -1.012,1.0121 -1.012,2.6679 0,3.68 1.012,1.0118 2.668,1.0118 3.68,0"
         style="fill:#3f60b6;fill-opacity:1;fill-rule:nonzero;stroke:none;stroke-width:0.1"
         id="path212"
         inkscape:connector-curvature="0" /><path
         d="m 242.526,145.777 c 1.011,-1.012 1.011,-2.668 0,-3.68 -1.012,-1.011 -2.668,-1.011 -3.68,0 -1.012,1.012 -1.012,2.668 0,3.68 1.012,1.012 2.668,1.012 3.68,0"
         style="fill:#3f60b6;fill-opacity:1;fill-rule:nonzero;stroke:none;stroke-width:0.1"
         id="path214"
         inkscape:connector-curvature="0" /><path
         d="m 216.192,145.777 c 1.012,-1.012 1.012,-2.668 0,-3.68 -1.011,-1.011 -2.667,-1.011 -3.679,0 -1.012,1.012 -1.012,2.668 0,3.68 1.012,1.012 2.668,1.012 3.679,0"
         style="fill:#3f60b6;fill-opacity:1;fill-rule:nonzero;stroke:none;stroke-width:0.1"
         id="path216"
         inkscape:connector-curvature="0" /><path
         d="m 195.858,145.777 c 1.012,-1.012 1.012,-2.668 0,-3.68 -1.011,-1.011 -2.667,-1.011 -3.679,0 -1.012,1.012 -1.012,2.668 0,3.68 1.012,1.012 2.668,1.012 3.679,0"
         style="fill:#3f60b6;fill-opacity:1;fill-rule:nonzero;stroke:none;stroke-width:0.1"
         id="path218"
         inkscape:connector-curvature="0" /><path
         d="m 209.858,164.777 c 1.012,-1.012 1.012,-2.668 0,-3.68 -1.011,-1.011 -2.667,-1.011 -3.679,0 -1.012,1.012 -1.012,2.668 0,3.68 1.012,1.012 2.668,1.012 3.679,0"
         style="fill:#3f60b6;fill-opacity:1;fill-rule:nonzero;stroke:none;stroke-width:0.1"
         id="path220"
         inkscape:connector-curvature="0" /><path
         d="m 229.858,164.777 c 1.012,-1.012 1.012,-2.668 0,-3.68 -1.011,-1.011 -2.667,-1.011 -3.679,0 -1.012,1.012 -1.012,2.668 0,3.68 1.012,1.012 2.668,1.012 3.679,0"
         style="fill:#3f60b6;fill-opacity:1;fill-rule:nonzero;stroke:none;stroke-width:0.1"
         id="path222"
         inkscape:connector-curvature="0" /><path
         d="m 258.526,164.777 c 1.011,-1.012 1.011,-2.668 0,-3.68 -1.012,-1.011 -2.668,-1.011 -3.68,0 -1.012,1.012 -1.012,2.668 0,3.68 1.012,1.012 2.668,1.012 3.68,0"
         style="fill:#3f60b6;fill-opacity:1;fill-rule:nonzero;stroke:none;stroke-width:0.1"
         id="path224"
         inkscape:connector-curvature="0" /><path
         d="m 272.858,182.777 c 1.012,-1.012 1.012,-2.668 0,-3.68 -1.011,-1.011 -2.667,-1.011 -3.679,0 -1.012,1.012 -1.012,2.668 0,3.68 1.012,1.012 2.668,1.012 3.679,0"
         style="fill:#3f60b6;fill-opacity:1;fill-rule:nonzero;stroke:none;stroke-width:0.1"
         id="path226"
         inkscape:connector-curvature="0" /><path
         d="m 243.192,182.777 c 1.012,-1.012 1.012,-2.668 0,-3.68 -1.011,-1.011 -2.667,-1.011 -3.679,0 -1.012,1.012 -1.012,2.668 0,3.68 1.012,1.012 2.668,1.012 3.679,0"
         style="fill:#3f60b6;fill-opacity:1;fill-rule:nonzero;stroke:none;stroke-width:0.1"
         id="path228"
         inkscape:connector-curvature="0" /><path
         d="m 223.192,182.777 c 1.012,-1.012 1.012,-2.668 0,-3.68 -1.011,-1.011 -2.667,-1.011 -3.679,0 -1.012,1.012 -1.012,2.668 0,3.68 1.012,1.012 2.668,1.012 3.679,0"
         style="fill:#3f60b6;fill-opacity:1;fill-rule:nonzero;stroke:none;stroke-width:0.1"
         id="path230"
         inkscape:connector-curvature="0" /><path
         d="m 271.018,180.936 -14.332,-18 -16,-19 -29,-18.665 -44.666,-17.668 -43.668,-18.9991"
         style="fill:none;stroke:#3f60b6;stroke-width:0.5;stroke-linecap:butt;stroke-linejoin:miter;stroke-miterlimit:4;stroke-dasharray:none;stroke-opacity:1"
         id="path232"
         inkscape:connector-curvature="0" /><path
         d="m 241.352,180.936 -13.334,-18 -13.666,-19 -26.666,-18.665 -40.334,-17.668 -40.333,-18.9991"
         style="fill:none;stroke:#3f60b6;stroke-width:0.5;stroke-linecap:butt;stroke-linejoin:miter;stroke-miterlimit:4;stroke-dasharray:none;stroke-opacity:1"
         id="path234"
         inkscape:connector-curvature="0" /><path
         d="m 86.352,88.6039 40.334,18.9991 40.334,17.668 26.998,18.665 14,19 13.334,18"
         style="fill:none;stroke:#3f60b6;stroke-width:0.5;stroke-linecap:butt;stroke-linejoin:miter;stroke-miterlimit:4;stroke-dasharray:none;stroke-opacity:1"
         id="path236"
         inkscape:connector-curvature="0" /><path
         d="m 180.659,118.923 h 7.684"
         style="fill:none;stroke:#231f20;stroke-width:0.5;stroke-linecap:butt;stroke-linejoin:miter;stroke-miterlimit:4;stroke-dasharray:none;stroke-opacity:1"
         id="path238"
         inkscape:connector-curvature="0" /><path
         d="m 189.879,119.589 c -1.074,0.327 -1.773,0.625 -2.637,0.971 v -3.281 c 0.31,0.146 1.563,0.646 2.637,0.969 1.152,0.349 2.196,0.588 2.871,0.672 -0.675,0.085 -1.719,0.322 -2.871,0.669"
         style="fill:#231f20;fill-opacity:1;fill-rule:nonzero;stroke:none;stroke-width:0.1"
         id="path240"
         inkscape:connector-curvature="0" /><path
         d="m 234.991,167.801 h 17.086"
         style="fill:none;stroke:#231f20;stroke-width:0.5;stroke-linecap:butt;stroke-linejoin:miter;stroke-miterlimit:4;stroke-dasharray:none;stroke-opacity:1"
         id="path242"
         inkscape:connector-curvature="0" /><path
         d="m 253.613,168.468 c -1.074,0.325 -1.774,0.624 -2.638,0.971 v -3.282 c 0.311,0.146 1.564,0.646 2.638,0.97 1.151,0.348 2.195,0.586 2.871,0.67 -0.676,0.086 -1.72,0.324 -2.871,0.671"
         style="fill:#231f20;fill-opacity:1;fill-rule:nonzero;stroke:none;stroke-width:0.1"
         id="path244"
         inkscape:connector-curvature="0" /><path
         d="m 171.881,181.811 h 10.748 l 26.739,-50.331"
         style="fill:none;stroke:#231f20;stroke-width:0.5;stroke-linecap:butt;stroke-linejoin:miter;stroke-miterlimit:4;stroke-dasharray:none;stroke-opacity:1"
         id="path246"
         inkscape:connector-curvature="0" /><path
         d="m 210.375,130.677 c -0.167,0.848 -0.216,1.43 -0.292,2.141 l -2.227,-1.184 c 0.211,-0.156 1,-0.827 1.609,-1.44 0.651,-0.655 1.188,-1.278 1.491,-1.707 -0.188,0.489 -0.403,1.284 -0.581,2.19"
         style="fill:#231f20;fill-opacity:1;fill-rule:nonzero;stroke:none;stroke-width:0.1"
         id="path248"
         inkscape:connector-curvature="0" /><path
         d="m 155.629,162.15 h 11.01 l 18.088,-30.933"
         style="fill:none;stroke:#231f20;stroke-width:0.5;stroke-linecap:butt;stroke-linejoin:miter;stroke-miterlimit:4;stroke-dasharray:none;stroke-opacity:1"
         id="path250"
         inkscape:connector-curvature="0" /><path
         d="m 185.766,130.457 c -0.201,0.839 -0.275,1.42 -0.379,2.127 l -2.178,-1.274 c 0.217,-0.148 1.036,-0.786 1.666,-1.373 0.678,-0.629 1.241,-1.23 1.561,-1.646 -0.207,0.482 -0.453,1.267 -0.67,2.166"
         style="fill:#231f20;fill-opacity:1;fill-rule:nonzero;stroke:none;stroke-width:0.1"
         id="path252"
         inkscape:connector-curvature="0" /><path
         d="m 138.328,141.179 h 11.534 l 12.845,-11.272"
         style="fill:none;stroke:#231f20;stroke-width:0.5;stroke-linecap:butt;stroke-linejoin:miter;stroke-miterlimit:4;stroke-dasharray:none;stroke-opacity:1"
         id="path254"
         inkscape:connector-curvature="0" /><path
         d="m 163.932,129.513 c -0.457,0.733 -0.709,1.26 -1.031,1.898 l -1.664,-1.896 c 0.253,-0.072 1.229,-0.419 2.015,-0.777 0.842,-0.382 1.565,-0.774 1.999,-1.068 -0.348,0.392 -0.83,1.058 -1.319,1.843"
         style="fill:#231f20;fill-opacity:1;fill-rule:nonzero;stroke:none;stroke-width:0.1"
         id="path256"
         inkscape:connector-curvature="0" /><path
         d="m 48.8266,125.839 h 3.7675"
         style="fill:none;stroke:#3f60b6;stroke-width:0.5;stroke-linecap:butt;stroke-linejoin:miter;stroke-miterlimit:4;stroke-dasharray:none;stroke-opacity:1"
         id="path258"
         inkscape:connector-curvature="0" /><path
         d="M 282.168,31.709 H 52.4906 v 169.383"
         style="fill:none;stroke:#3f60b6;stroke-width:0.5;stroke-linecap:butt;stroke-linejoin:miter;stroke-miterlimit:4;stroke-dasharray:none;stroke-opacity:1"
         id="path260"
         inkscape:connector-curvature="0" /><text
         transform="scale(1,-1)"
         y="-66.565994"
         x="35.062027"
         id="text146-9"
         style="font-variant:normal;font-weight:normal;font-size:7.99999952px;font-family:ArialMT;-inkscape-font-specification:ArialMT;writing-mode:lr-tb;fill:#3f60b6;fill-opacity:1;fill-rule:nonzero;stroke:none;stroke-width:0.99999994"><tspan
           y="-66.565994"
           x="35.062027"
           id="tspan144-3"
           sodipodi:role="line"
           style="font-style:normal;font-variant:normal;font-weight:normal;font-stretch:normal;font-family:sans-serif;-inkscape-font-specification:sans-serif;stroke-width:0.99999994">14</tspan></text>
<text
         transform="scale(1,-1)"
         y="-85.353889"
         x="35.116714"
         id="text146-9-6"
         style="font-variant:normal;font-weight:normal;font-size:7.99999952px;font-family:ArialMT;-inkscape-font-specification:ArialMT;writing-mode:lr-tb;fill:#3f60b6;fill-opacity:1;fill-rule:nonzero;stroke:none;stroke-width:0.99999994"><tspan
           y="-85.353889"
           x="35.116714"
           id="tspan144-3-0"
           sodipodi:role="line"
           style="font-style:normal;font-variant:normal;font-weight:normal;font-stretch:normal;font-family:sans-serif;-inkscape-font-specification:sans-serif;stroke-width:0.99999994">16</tspan></text>
<text
         transform="scale(1,-1)"
         y="-104.13989"
         x="35.159683"
         id="text146-9-62"
         style="font-variant:normal;font-weight:normal;font-size:7.99999952px;font-family:ArialMT;-inkscape-font-specification:ArialMT;writing-mode:lr-tb;fill:#3f60b6;fill-opacity:1;fill-rule:nonzero;stroke:none;stroke-width:0.99999994"><tspan
           y="-104.13989"
           x="35.159683"
           id="tspan144-3-6"
           sodipodi:role="line"
           style="font-style:normal;font-variant:normal;font-weight:normal;font-stretch:normal;font-family:sans-serif;-inkscape-font-specification:sans-serif;stroke-width:0.99999994">18</tspan></text>
<text
         transform="scale(1,-1)"
         y="-122.92689"
         x="35.144058"
         id="text146-9-1"
         style="font-variant:normal;font-weight:normal;font-size:7.99999952px;font-family:ArialMT;-inkscape-font-specification:ArialMT;writing-mode:lr-tb;fill:#3f60b6;fill-opacity:1;fill-rule:nonzero;stroke:none;stroke-width:0.99999994"><tspan
           y="-122.92689"
           x="35.144058"
           id="tspan144-3-8"
           sodipodi:role="line"
           style="font-style:normal;font-variant:normal;font-weight:normal;font-stretch:normal;font-family:sans-serif;-inkscape-font-specification:sans-serif;stroke-width:0.99999994">20</tspan></text>
<text
         transform="scale(1,-1)"
         y="-141.71489"
         x="35.413589"
         id="text146-9-1-2"
         style="font-variant:normal;font-weight:normal;font-size:7.99999952px;font-family:ArialMT;-inkscape-font-specification:ArialMT;writing-mode:lr-tb;fill:#3f60b6;fill-opacity:1;fill-rule:nonzero;stroke:none;stroke-width:0.99999994"><tspan
           y="-141.71489"
           x="35.413589"
           id="tspan144-3-8-3"
           sodipodi:role="line"
           style="font-style:normal;font-variant:normal;font-weight:normal;font-stretch:normal;font-family:sans-serif;-inkscape-font-specification:sans-serif;stroke-width:0.99999994">22</tspan></text>
<text
         transform="scale(1,-1)"
         y="-198.07689"
         x="35.159683"
         id="text146-9-1-7"
         style="font-variant:normal;font-weight:normal;font-size:7.99999952px;font-family:ArialMT;-inkscape-font-specification:ArialMT;writing-mode:lr-tb;fill:#3f60b6;fill-opacity:1;fill-rule:nonzero;stroke:none;stroke-width:0.99999994"><tspan
           y="-198.07689"
           x="35.159683"
           id="tspan144-3-8-5"
           sodipodi:role="line"
           style="font-style:normal;font-variant:normal;font-weight:normal;font-stretch:normal;font-family:sans-serif;-inkscape-font-specification:sans-serif;stroke-width:0.99999994">28</tspan></text>
<text
         transform="scale(1,-1)"
         y="-17.497999"
         x="114.79701"
         id="text146-9-1-9"
         style="font-variant:normal;font-weight:normal;font-size:7.99999952px;font-family:ArialMT;-inkscape-font-specification:ArialMT;writing-mode:lr-tb;fill:#3f60b6;fill-opacity:1;fill-rule:nonzero;stroke:none;stroke-width:0.99999994"><tspan
           y="-17.497999"
           x="114.79701"
           id="tspan144-3-8-2"
           sodipodi:role="line"
           style="font-style:normal;font-variant:normal;font-weight:normal;font-stretch:normal;font-family:sans-serif;-inkscape-font-specification:sans-serif;stroke-width:0.99999994">13</tspan></text>
<text
         transform="scale(1,-1)"
         y="-17.497999"
         x="157.9299"
         id="text146-9-1-9-2"
         style="font-variant:normal;font-weight:normal;font-size:7.99999952px;font-family:ArialMT;-inkscape-font-specification:ArialMT;writing-mode:lr-tb;fill:#3f60b6;fill-opacity:1;fill-rule:nonzero;stroke:none;stroke-width:0.99999994"><tspan
           y="-17.497999"
           x="157.9299"
           id="tspan144-3-8-2-8"
           sodipodi:role="line"
           style="font-style:normal;font-variant:normal;font-weight:normal;font-stretch:normal;font-family:sans-serif;-inkscape-font-specification:sans-serif;stroke-width:0.99999994">16,5</tspan></text>
<text
         transform="scale(1,-1)"
         y="-17.497999"
         x="202.52074"
         id="text146-9-1-9-2-9"
         style="font-variant:normal;font-weight:normal;font-size:7.99999952px;font-family:ArialMT;-inkscape-font-specification:ArialMT;writing-mode:lr-tb;fill:#3f60b6;fill-opacity:1;fill-rule:nonzero;stroke:none;stroke-width:0.99999994"><tspan
           y="-17.497999"
           x="202.52074"
           id="tspan144-3-8-2-8-7"
           sodipodi:role="line"
           style="font-style:normal;font-variant:normal;font-weight:normal;font-stretch:normal;font-family:sans-serif;-inkscape-font-specification:sans-serif;stroke-width:0.99999994">19,8</tspan></text>
<text
         transform="scale(1,-1)"
         y="-180.159"
         x="150.15033"
         id="text172-3"
         style="font-variant:normal;font-weight:normal;font-size:6px;font-family:ArialMT;-inkscape-font-specification:ArialMT;writing-mode:lr-tb;fill:#3f60b6;fill-opacity:1;fill-rule:nonzero;stroke:none;stroke-width:0.99999994"><tspan
           y="-180.159"
           x="150.15033"
           id="tspan170-1"
           sodipodi:role="line"
           style="font-style:normal;font-variant:normal;font-weight:normal;font-stretch:normal;font-size:6px;font-family:sans-serif;-inkscape-font-specification:sans-serif;stroke-width:0.99999994">P = 20</tspan><tspan
           id="tspan865"
           y="-172.56375"
           x="150.15033"
           sodipodi:role="line"
           style="font-style:normal;font-variant:normal;font-weight:normal;font-stretch:normal;font-size:6px;font-family:sans-serif;-inkscape-font-specification:sans-serif;stroke-width:0.99999994">Q = 19,8</tspan></text>
<text
         transform="scale(1,-1)"
         y="-160.09308"
         x="132.95357"
         id="text172-3-9"
         style="font-variant:normal;font-weight:normal;font-size:6px;font-family:ArialMT;-inkscape-font-specification:ArialMT;writing-mode:lr-tb;fill:#3f60b6;fill-opacity:1;fill-rule:nonzero;stroke:none;stroke-width:0.99999994"><tspan
           y="-160.09308"
           x="132.95357"
           id="tspan170-1-4"
           sodipodi:role="line"
           style="font-style:normal;font-variant:normal;font-weight:normal;font-stretch:normal;font-size:6px;font-family:sans-serif;-inkscape-font-specification:sans-serif;stroke-width:0.99999994">P = 20</tspan><tspan
           id="tspan865-7"
           y="-152.49783"
           x="132.95357"
           sodipodi:role="line"
           style="font-style:normal;font-variant:normal;font-weight:normal;font-stretch:normal;font-size:6px;font-family:sans-serif;-inkscape-font-specification:sans-serif;stroke-width:0.99999994">Q = 18</tspan></text>
<text
         transform="scale(1,-1)"
         y="-138.7524"
         x="115.15442"
         id="text172-3-9-8"
         style="font-variant:normal;font-weight:normal;font-size:6px;font-family:ArialMT;-inkscape-font-specification:ArialMT;writing-mode:lr-tb;fill:#3f60b6;fill-opacity:1;fill-rule:nonzero;stroke:none;stroke-width:0.99999994"><tspan
           y="-138.7524"
           x="115.15442"
           id="tspan170-1-4-4"
           sodipodi:role="line"
           style="font-style:normal;font-variant:normal;font-weight:normal;font-stretch:normal;font-size:6px;font-family:sans-serif;-inkscape-font-specification:sans-serif;stroke-width:0.99999994">P = 20</tspan><tspan
           id="tspan865-7-5"
           y="-131.15715"
           x="115.15442"
           sodipodi:role="line"
           style="font-style:normal;font-variant:normal;font-weight:normal;font-stretch:normal;font-size:6px;font-family:sans-serif;-inkscape-font-specification:sans-serif;stroke-width:0.99999994">Q = 16,5</tspan></text>
<text
         transform="scale(1,-1)"
         y="-188.455"
         x="217.50398"
         id="text72-0"
         style="font-variant:normal;font-weight:normal;font-size:7.99999952px;font-family:ArialMT;-inkscape-font-specification:ArialMT;writing-mode:lr-tb;fill:#3f60b6;fill-opacity:1;fill-rule:nonzero;stroke:none;stroke-width:0.99999994"><tspan
           id="tspan70-3"
           y="-188.455"
           x="217.50398"
           style="font-style:normal;font-variant:normal;font-weight:normal;font-stretch:normal;font-family:sans-serif;-inkscape-font-specification:sans-serif;stroke-width:0.99999994">S</tspan></text>
<text
         transform="scale(1,-1)"
         y="-145.49414"
         x="204.17471"
         id="text72-6"
         style="font-variant:normal;font-weight:normal;font-size:7.99999952px;font-family:ArialMT;-inkscape-font-specification:ArialMT;writing-mode:lr-tb;fill:#3f60b6;fill-opacity:1;fill-rule:nonzero;stroke:none;stroke-width:0.99999994"><tspan
           id="tspan70-1"
           y="-145.49414"
           x="204.17471"
           style="font-style:normal;font-variant:normal;font-weight:normal;font-stretch:normal;font-family:sans-serif;-inkscape-font-specification:sans-serif;stroke-width:0.99999994">K</tspan></text>
<text
         transform="scale(1,-1)"
         y="-132.36914"
         x="211.54492"
         id="text72-06"
         style="font-variant:normal;font-weight:normal;font-size:7.99999952px;font-family:ArialMT;-inkscape-font-specification:ArialMT;writing-mode:lr-tb;fill:#3f60b6;fill-opacity:1;fill-rule:nonzero;stroke:none;stroke-width:0.99999994"><tspan
           id="tspan70-32"
           y="-132.36914"
           x="211.54492"
           style="font-style:normal;font-variant:normal;font-weight:normal;font-stretch:normal;font-family:sans-serif;-inkscape-font-specification:sans-serif;stroke-width:0.99999994">M</tspan></text>
<text
         transform="scale(1,-1)"
         y="-132.55664"
         x="164.95117"
         id="text72-061"
         style="font-variant:normal;font-weight:normal;font-size:7.99999952px;font-family:ArialMT;-inkscape-font-specification:ArialMT;writing-mode:lr-tb;fill:#3f60b6;fill-opacity:1;fill-rule:nonzero;stroke:none;stroke-width:0.99999994"><tspan
           id="tspan70-5"
           y="-132.55664"
           x="164.95117"
           style="font-style:normal;font-variant:normal;font-weight:normal;font-stretch:normal;font-family:sans-serif;-inkscape-font-specification:sans-serif;stroke-width:0.99999994">L</tspan></text>
<text
         transform="scale(1,-1)"
         y="-132.96426"
         x="188.48242"
         id="text72-5"
         style="font-variant:normal;font-weight:normal;font-size:7.99999952px;font-family:ArialMT;-inkscape-font-specification:ArialMT;writing-mode:lr-tb;fill:#3f60b6;fill-opacity:1;fill-rule:nonzero;stroke:none;stroke-width:0.99999994"><tspan
           id="tspan70-4"
           y="-132.96426"
           x="188.48242"
           style="font-style:normal;font-variant:normal;font-weight:normal;font-stretch:normal;font-family:sans-serif;-inkscape-font-specification:sans-serif;stroke-width:0.99999994">J</tspan></text>
</g></g></svg>