<?xml version="1.0" encoding="UTF-8" standalone="no"?>
<!-- Created with Inkscape (http://www.inkscape.org/) -->

<svg
   xmlns:dc="http://purl.org/dc/elements/1.1/"
   xmlns:cc="http://creativecommons.org/ns#"
   xmlns:rdf="http://www.w3.org/1999/02/22-rdf-syntax-ns#"
   xmlns:svg="http://www.w3.org/2000/svg"
   xmlns="http://www.w3.org/2000/svg"
   xmlns:sodipodi="http://sodipodi.sourceforge.net/DTD/sodipodi-0.dtd"
   xmlns:inkscape="http://www.inkscape.org/namespaces/inkscape"
   version="1.1"
   id="svg2"
   xml:space="preserve"
   width="295.37399"
   height="208.358"
   viewBox="0 0 295.37399 208.358"
   sodipodi:docname="The Use of Mathematics in Principles of Economics_5.svg"
   inkscape:version="0.92.5 (2060ec1f9f, 2020-04-08)"><metadata
     id="metadata8"><rdf:RDF><cc:Work
         rdf:about=""><dc:format>image/svg+xml</dc:format><dc:type
           rdf:resource="http://purl.org/dc/dcmitype/StillImage" /><dc:title></dc:title></cc:Work></rdf:RDF></metadata><defs
     id="defs6" /><sodipodi:namedview
     pagecolor="#ffffff"
     bordercolor="#666666"
     borderopacity="1"
     objecttolerance="10"
     gridtolerance="10"
     guidetolerance="10"
     inkscape:pageopacity="0"
     inkscape:pageshadow="2"
     inkscape:window-width="1848"
     inkscape:window-height="1043"
     id="namedview4"
     showgrid="false"
     inkscape:snap-bbox="true"
     inkscape:bbox-paths="true"
     inkscape:bbox-nodes="true"
     inkscape:snap-bbox-edge-midpoints="true"
     inkscape:snap-bbox-midpoints="true"
     showguides="true"
     inkscape:guide-bbox="true"
     inkscape:zoom="2.2112563"
     inkscape:cx="85.41225"
     inkscape:cy="155.3024"
     inkscape:window-x="1438"
     inkscape:window-y="0"
     inkscape:window-maximized="1"
     inkscape:current-layer="g10" /><g
     id="g10"
     inkscape:groupmode="layer"
     inkscape:label="ink_ext_XXXXXX"
     transform="matrix(1.3333333,0,0,-1.3333333,0,208.35801)"><g
       id="g482"
       transform="translate(-0.78497578,-1.3974956)"><text
         y="6.8632798"
         x="45.709"
         id="text18"
         style="font-variant:normal;font-weight:bold;font-size:8px;font-family:Arial;-inkscape-font-specification:Arial-BoldMT;writing-mode:lr-tb;fill:#3f60b6;fill-opacity:1;fill-rule:nonzero;stroke:none"
         transform="matrix(0,1,1,0,0,0)"><tspan
           style="font-style:normal;font-variant:normal;font-weight:bold;font-stretch:normal;font-family:sans-serif;-inkscape-font-specification:'sans-serif Bold'"
           y="6.8632798"
           x="45.709"
           id="tspan16"
           sodipodi:role="line">Stopa bezrobocia (%)</tspan></text>
<text
         y="-1.5109401"
         x="111.553"
         id="text22"
         style="font-variant:normal;font-weight:bold;font-size:8px;font-family:Arial;-inkscape-font-specification:Arial-BoldMT;writing-mode:lr-tb;fill:#3f60b6;fill-opacity:1;fill-rule:nonzero;stroke:none"
         transform="scale(1,-1)"><tspan
           style="font-style:normal;font-variant:normal;font-weight:bold;font-stretch:normal;font-family:sans-serif;-inkscape-font-specification:'sans-serif Bold'"
           y="-1.5109401"
           x="111.553"
           id="tspan20"
           sodipodi:role="line">Rok</tspan></text>
<path
         d="M 28.8445,155.688 H 211.259 M 28.8445,134.435 H 211.259 M 28.8445,113.075 H 211.259 M 28.8445,91.7152 H 211.259 M 28.8445,70.3551 H 211.259 M 28.8445,49.1012 H 211.259"
         style="fill:none;stroke:#dad9d7;stroke-width:0.5;stroke-linecap:butt;stroke-linejoin:miter;stroke-miterlimit:4;stroke-dasharray:none;stroke-opacity:1"
         id="path24"
         inkscape:connector-curvature="0" /><path
         d="M 28.8445,27.7422 V 155.688"
         style="fill:none;stroke:#3f60b6;stroke-width:0.5;stroke-linecap:butt;stroke-linejoin:miter;stroke-miterlimit:4;stroke-dasharray:none;stroke-opacity:1"
         id="path26"
         inkscape:connector-curvature="0" /><path
         d="m 25.0676,155.68802 h 4.0269 m -4.0269,-21.25166 h 4.0269 m -4.0269,-21.35864 h 4.0269 M 25.0676,91.719271 h 4.0269 M 25.0676,70.360524 h 4.0269 M 25.0676,49.107971 h 4.0269 M 25.0676,27.750325 h 4.0269"
         style="fill:none;stroke:#3f60b6;stroke-width:0.51626652;stroke-linecap:butt;stroke-linejoin:miter;stroke-miterlimit:4;stroke-dasharray:none;stroke-opacity:1"
         id="path28"
         inkscape:connector-curvature="0" /><path
         d="M 28.8445,27.7422 H 211.259"
         style="fill:none;stroke:#3f60b6;stroke-width:0.5;stroke-linecap:butt;stroke-linejoin:miter;stroke-miterlimit:4;stroke-dasharray:none;stroke-opacity:1"
         id="path30"
         inkscape:connector-curvature="0" /><path
         d="M 211.259,27.9922 V 23.857 m -20.292,4.1352 V 23.857 m -20.292,4.1352 V 23.857 m -20.186,4.1352 V 23.857 m -20.292,4.1352 V 23.857 m -20.292,4.1352 V 23.857 M 89.6121,27.9922 V 23.857 M 69.3215,27.9922 V 23.857 m -20.186,4.1352 V 23.857 m -20.291,4.1352 V 23.857"
         style="fill:none;stroke:#3f60b6;stroke-width:0.51583594;stroke-linecap:butt;stroke-linejoin:miter;stroke-miterlimit:4;stroke-dasharray:none;stroke-opacity:1"
         id="path32"
         inkscape:connector-curvature="0" /><path
         d="m 49.1074,118.399 c 1.3504,-2.845 2.7012,-6.045 4.0528,-8.535 1.3515,-2.489 2.7019,-3.556 4.0539,-6.401 1.3511,-2.845 2.7019,-8.5345 4.0527,-10.6685 1.2254,-1.9347 2.8277,-3.907 4.0535,-2.1336 1.3508,1.9559 2.7024,10.8461 4.0535,13.8691 0.8559,1.915 3.1977,1.452 4.0539,4.268 1.3504,4.445 2.7012,18.847 4.0528,22.404 0.6843,1.8 3.3703,0.914 4.0527,-1.068 1.3516,-3.911 2.7031,-18.136 4.0535,-22.403 0.7793,-2.462 3.2738,-2.688 4.0539,-3.201 1.3504,-0.889 2.7024,-0.355 4.0535,-2.134 1.3508,-1.778 2.7012,-5.8675 4.0532,-8.5343 1.3511,-2.6676 2.7017,-5.8679 4.0527,-7.4695 1.351,-1.5984 2.703,-2.3094 4.054,-2.1328 1.108,0.1465 2.946,0.8672 4.053,3.2011 1.351,2.845 2.702,10.4903 4.054,13.8685 1.351,3.379 2.701,6.402 4.053,6.402 1.351,0 2.702,-3.912 4.053,-6.402 1.351,-2.4888 2.703,-6.2227 4.053,-8.5345 1.352,-2.3113 2.702,-4.0886 4.054,-5.334 1.35,-1.2449 2.702,-0.8886 4.054,-2.1328 1.35,-1.2449 2.702,-3.7343 4.052,-5.3359 1.352,-1.6004 2.702,-3.0223 4.054,-4.2676 1.351,-1.2441 2.702,-2.3113 4.053,-3.1992 1.351,-0.8906 2.703,-3.0234 4.053,-2.1348 1.352,0.8899 2.703,4.2676 4.054,7.4668 1.351,3.2032 2.702,9.4258 4.053,11.7375 1.156,1.977 2.897,2.5899 4.054,2.1332 1.35,-0.5336 2.702,-3.7339 4.052,-5.3355 1.352,-1.5984 2.703,-2.666 4.054,-4.2676 1.352,-1.5984 2.702,-4.4441 4.054,-5.332 1.084,-0.7149 2.968,-1.7129 4.052,0 1.073,1.6914 2.983,6.1738 4.054,12.8019 1.351,8.3563 2.702,30.5825 4.054,37.3395 0.506,2.532 3.547,3.467 4.053,3.2 1.351,-0.711 2.702,-4.8 4.053,-7.467 1.351,-2.668 2.702,-5.868 4.054,-8.535 1.351,-2.668 2.702,-4.089 4.053,-7.468 1.351,-3.378 2.702,-8.5347 4.054,-12.8023"
         style="fill:none;stroke:#3f60b6;stroke-width:0.5;stroke-linecap:butt;stroke-linejoin:miter;stroke-miterlimit:4;stroke-dasharray:none;stroke-opacity:1"
         id="path34"
         inkscape:connector-curvature="0" /><path
         d="m 50.9133,118.468 c 0,-1.07 -0.8672,-1.938 -1.9375,-1.938 -1.0703,0 -1.9375,0.868 -1.9375,1.938 0,1.07 0.8672,1.939 1.9375,1.939 1.0703,0 1.9375,-0.869 1.9375,-1.939 v 0"
         style="fill:#3f60b6;fill-opacity:1;fill-rule:nonzero;stroke:none;stroke-width:0.1"
         id="path36"
         inkscape:connector-curvature="0" /><path
         d="m 54.9734,109.924 c 0,-1.07 -0.8679,-1.938 -1.939,-1.938 -1.0715,0 -1.9399,0.868 -1.9399,1.938 0,1.071 0.8684,1.939 1.9399,1.939 1.0711,0 1.939,-0.868 1.939,-1.939 v 0"
         style="fill:#3f60b6;fill-opacity:1;fill-rule:nonzero;stroke:none;stroke-width:0.1"
         id="path38"
         inkscape:connector-curvature="0" /><path
         d="m 59.0305,103.623 c 0,-1.071 -0.8664,-1.938 -1.9375,-1.938 -1.0703,0 -1.9375,0.867 -1.9375,1.938 0,1.071 0.8672,1.938 1.9375,1.938 1.0711,0 1.9375,-0.867 1.9375,-1.938 v 0"
         style="fill:#3f60b6;fill-opacity:1;fill-rule:nonzero;stroke:none;stroke-width:0.1"
         id="path40"
         inkscape:connector-curvature="0" /><path
         d="m 63.0891,92.943 c 0,-1.0707 -0.8672,-1.9383 -1.9375,-1.9383 -1.0715,0 -1.9375,0.8676 -1.9375,1.9383 0,1.0703 0.866,1.9386 1.9375,1.9386 1.0703,0 1.9375,-0.8683 1.9375,-1.9386 v 0"
         style="fill:#3f60b6;fill-opacity:1;fill-rule:nonzero;stroke:none;stroke-width:0.1"
         id="path42"
         inkscape:connector-curvature="0" /><path
         d="m 67.1477,90.807 c 0,-1.0699 -0.8672,-1.9382 -1.9387,-1.9382 -1.0711,0 -1.9375,0.8683 -1.9375,1.9382 0,1.0703 0.8664,1.9383 1.9375,1.9383 1.0715,0 1.9387,-0.868 1.9387,-1.9383 v 0"
         style="fill:#3f60b6;fill-opacity:1;fill-rule:nonzero;stroke:none;stroke-width:0.1"
         id="path44"
         inkscape:connector-curvature="0" /><path
         d="m 71.2063,104.584 c 0,-1.07 -0.8672,-1.938 -1.9375,-1.938 -1.0723,0 -1.9395,0.868 -1.9395,1.938 0,1.071 0.8672,1.939 1.9395,1.939 1.0703,0 1.9375,-0.868 1.9375,-1.939 v 0"
         style="fill:#3f60b6;fill-opacity:1;fill-rule:nonzero;stroke:none;stroke-width:0.1"
         id="path46"
         inkscape:connector-curvature="0" /><path
         d="m 75.2645,108.856 c 0,-1.07 -0.8668,-1.938 -1.9375,-1.938 -1.0711,0 -1.9383,0.868 -1.9383,1.938 0,1.071 0.8672,1.939 1.9383,1.939 1.0707,0 1.9375,-0.868 1.9375,-1.939 v 0"
         style="fill:#3f60b6;fill-opacity:1;fill-rule:nonzero;stroke:none;stroke-width:0.1"
         id="path48"
         inkscape:connector-curvature="0" /><path
         d="m 79.3223,131.284 c 0,-1.07 -0.8672,-1.938 -1.9375,-1.938 -1.0711,0 -1.9383,0.868 -1.9383,1.938 0,1.071 0.8672,1.939 1.9383,1.939 1.0703,0 1.9375,-0.868 1.9375,-1.939 v 0"
         style="fill:#3f60b6;fill-opacity:1;fill-rule:nonzero;stroke:none;stroke-width:0.1"
         id="path50"
         inkscape:connector-curvature="0" /><path
         d="m 83.3816,130.216 c 0,-1.07 -0.8671,-1.938 -1.939,-1.938 -1.0703,0 -1.9375,0.868 -1.9375,1.938 0,1.071 0.8672,1.939 1.9375,1.939 1.0719,0 1.939,-0.868 1.939,-1.939 v 0"
         style="fill:#3f60b6;fill-opacity:1;fill-rule:nonzero;stroke:none;stroke-width:0.1"
         id="path52"
         inkscape:connector-curvature="0" /><path
         d="m 87.4395,107.788 c 0,-1.07 -0.8665,-1.938 -1.9375,-1.938 -1.0711,0 -1.9383,0.868 -1.9383,1.938 0,1.071 0.8672,1.939 1.9383,1.939 1.071,0 1.9375,-0.868 1.9375,-1.939 v 0"
         style="fill:#3f60b6;fill-opacity:1;fill-rule:nonzero;stroke:none;stroke-width:0.1"
         id="path54"
         inkscape:connector-curvature="0" /><path
         d="m 91.4973,104.584 c 0,-1.07 -0.8664,-1.938 -1.9375,-1.938 -1.0703,0 -1.9375,0.868 -1.9375,1.938 0,1.071 0.8672,1.939 1.9375,1.939 1.0711,0 1.9375,-0.868 1.9375,-1.939 v 0"
         style="fill:#3f60b6;fill-opacity:1;fill-rule:nonzero;stroke:none;stroke-width:0.1"
         id="path56"
         inkscape:connector-curvature="0" /><path
         d="m 95.5559,102.555 c 0,-1.07 -0.8672,-1.938 -1.9375,-1.938 -1.0715,0 -1.9375,0.868 -1.9375,1.938 0,1.07 0.866,1.939 1.9375,1.939 1.0703,0 1.9375,-0.869 1.9375,-1.939 v 0"
         style="fill:#3f60b6;fill-opacity:1;fill-rule:nonzero;stroke:none;stroke-width:0.1"
         id="path58"
         inkscape:connector-curvature="0" /><path
         d="m 99.616,94.0109 c 0,-1.0703 -0.868,-1.9379 -1.939,-1.9379 -1.0715,0 -1.9399,0.8676 -1.9399,1.9379 0,1.0704 0.8684,1.9383 1.9399,1.9383 1.071,0 1.939,-0.8679 1.939,-1.9383 v 0"
         style="fill:#3f60b6;fill-opacity:1;fill-rule:nonzero;stroke:none;stroke-width:0.1"
         id="path60"
         inkscape:connector-curvature="0" /><path
         d="m 103.673,86.5348 c 0,-1.0703 -0.867,-1.9375 -1.938,-1.9375 -1.07,0 -1.937,0.8672 -1.937,1.9375 0,1.0715 0.867,1.9386 1.937,1.9386 1.071,0 1.938,-0.8671 1.938,-1.9386 v 0"
         style="fill:#3f60b6;fill-opacity:1;fill-rule:nonzero;stroke:none;stroke-width:0.1"
         id="path62"
         inkscape:connector-curvature="0" /><path
         d="m 107.731,84.3992 c 0,-1.0715 -0.867,-1.9387 -1.937,-1.9387 -1.071,0 -1.938,0.8672 -1.938,1.9387 0,1.0711 0.867,1.9383 1.938,1.9383 1.07,0 1.937,-0.8672 1.937,-1.9383 v 0"
         style="fill:#3f60b6;fill-opacity:1;fill-rule:nonzero;stroke:none;stroke-width:0.1"
         id="path64"
         inkscape:connector-curvature="0" /><path
         d="m 111.79,87.6031 c 0,-1.0722 -0.867,-1.9394 -1.938,-1.9394 -1.072,0 -1.938,0.8672 -1.938,1.9394 0,1.0703 0.866,1.9379 1.938,1.9379 1.071,0 1.938,-0.8676 1.938,-1.9379 v 0"
         style="fill:#3f60b6;fill-opacity:1;fill-rule:nonzero;stroke:none;stroke-width:0.1"
         id="path66"
         inkscape:connector-curvature="0" /><path
         d="m 115.741,101.487 c 0,-1.07 -0.867,-1.9386 -1.937,-1.9386 -1.072,0 -1.938,0.8686 -1.938,1.9386 0,1.07 0.866,1.938 1.938,1.938 1.07,0 1.937,-0.868 1.937,-1.938 v 0"
         style="fill:#3f60b6;fill-opacity:1;fill-rule:nonzero;stroke:none;stroke-width:0.1"
         id="path68"
         inkscape:connector-curvature="0" /><path
         d="m 119.8,107.788 c 0,-1.07 -0.867,-1.938 -1.938,-1.938 -1.072,0 -1.937,0.868 -1.937,1.938 0,1.071 0.865,1.939 1.937,1.939 1.071,0 1.938,-0.868 1.938,-1.939 v 0"
         style="fill:#3f60b6;fill-opacity:1;fill-rule:nonzero;stroke:none;stroke-width:0.1"
         id="path70"
         inkscape:connector-curvature="0" /><path
         d="m 123.858,101.487 c 0,-1.07 -0.867,-1.9386 -1.937,-1.9386 -1.071,0 -1.94,0.8686 -1.94,1.9386 0,1.07 0.869,1.938 1.94,1.938 1.07,0 1.937,-0.868 1.937,-1.938 v 0"
         style="fill:#3f60b6;fill-opacity:1;fill-rule:nonzero;stroke:none;stroke-width:0.1"
         id="path72"
         inkscape:connector-curvature="0" /><path
         d="m 127.917,92.943 c 0,-1.0707 -0.867,-1.9383 -1.938,-1.9383 -1.072,0 -1.938,0.8676 -1.938,1.9383 0,1.0703 0.866,1.9386 1.938,1.9386 1.071,0 1.938,-0.8683 1.938,-1.9386 v 0"
         style="fill:#3f60b6;fill-opacity:1;fill-rule:nonzero;stroke:none;stroke-width:0.1"
         id="path74"
         inkscape:connector-curvature="0" /><path
         d="m 131.976,87.6031 c 0,-1.0722 -0.868,-1.9394 -1.938,-1.9394 -1.072,0 -1.939,0.8672 -1.939,1.9394 0,1.0703 0.867,1.9379 1.939,1.9379 1.07,0 1.938,-0.8676 1.938,-1.9379 v 0"
         style="fill:#3f60b6;fill-opacity:1;fill-rule:nonzero;stroke:none;stroke-width:0.1"
         id="path76"
         inkscape:connector-curvature="0" /><path
         d="m 136.034,85.4664 c 0,-1.0703 -0.867,-1.9375 -1.938,-1.9375 -1.072,0 -1.939,0.8672 -1.939,1.9375 0,1.0703 0.867,1.9375 1.939,1.9375 1.071,0 1.938,-0.8672 1.938,-1.9375 v 0"
         style="fill:#3f60b6;fill-opacity:1;fill-rule:nonzero;stroke:none;stroke-width:0.1"
         id="path78"
         inkscape:connector-curvature="0" /><path
         d="m 140.092,80.1266 c 0,-1.0703 -0.867,-1.9375 -1.939,-1.9375 -1.07,0 -1.937,0.8672 -1.937,1.9375 0,1.0703 0.867,1.9375 1.937,1.9375 1.072,0 1.939,-0.8672 1.939,-1.9375 v 0"
         style="fill:#3f60b6;fill-opacity:1;fill-rule:nonzero;stroke:none;stroke-width:0.1"
         id="path80"
         inkscape:connector-curvature="0" /><path
         d="m 144.149,75.8551 c 0,-1.0703 -0.865,-1.9395 -1.937,-1.9395 -1.07,0 -1.938,0.8692 -1.938,1.9395 0,1.0715 0.868,1.9394 1.938,1.9394 1.072,0 1.937,-0.8679 1.937,-1.9394 v 0"
         style="fill:#3f60b6;fill-opacity:1;fill-rule:nonzero;stroke:none;stroke-width:0.1"
         id="path82"
         inkscape:connector-curvature="0" /><path
         d="m 148.209,72.652 c 0,-1.0723 -0.868,-1.9395 -1.938,-1.9395 -1.071,0 -1.938,0.8672 -1.938,1.9395 0,1.0703 0.867,1.9355 1.938,1.9355 1.07,0 1.938,-0.8652 1.938,-1.9355 v 0"
         style="fill:#3f60b6;fill-opacity:1;fill-rule:nonzero;stroke:none;stroke-width:0.1"
         id="path84"
         inkscape:connector-curvature="0" /><path
         d="m 152.267,70.5152 c 0,-1.0711 -0.867,-1.9394 -1.938,-1.9394 -1.07,0 -1.937,0.8683 -1.937,1.9394 0,1.0703 0.867,1.9395 1.937,1.9395 1.071,0 1.938,-0.8692 1.938,-1.9395 v 0"
         style="fill:#3f60b6;fill-opacity:1;fill-rule:nonzero;stroke:none;stroke-width:0.1"
         id="path86"
         inkscape:connector-curvature="0" /><path
         d="m 156.325,77.9918 c 0,-1.0711 -0.867,-1.9383 -1.937,-1.9383 -1.072,0 -1.938,0.8672 -1.938,1.9383 0,1.0703 0.866,1.9367 1.938,1.9367 1.07,0 1.937,-0.8664 1.937,-1.9367 v 0"
         style="fill:#3f60b6;fill-opacity:1;fill-rule:nonzero;stroke:none;stroke-width:0.1"
         id="path88"
         inkscape:connector-curvature="0" /><path
         d="m 160.384,89.7391 c 0,-1.0703 -0.867,-1.9387 -1.938,-1.9387 -1.071,0 -1.938,0.8684 -1.938,1.9387 0,1.0703 0.867,1.9382 1.938,1.9382 1.071,0 1.938,-0.8679 1.938,-1.9382 v 0"
         style="fill:#3f60b6;fill-opacity:1;fill-rule:nonzero;stroke:none;stroke-width:0.1"
         id="path90"
         inkscape:connector-curvature="0" /><path
         d="m 164.442,91.8746 c 0,-1.0695 -0.867,-1.9379 -1.937,-1.9379 -1.072,0 -1.938,0.8684 -1.938,1.9379 0,1.0711 0.866,1.9391 1.938,1.9391 1.07,0 1.937,-0.868 1.937,-1.9391 v 0"
         style="fill:#3f60b6;fill-opacity:1;fill-rule:nonzero;stroke:none;stroke-width:0.1"
         id="path92"
         inkscape:connector-curvature="0" /><path
         d="m 168.501,86.5348 c 0,-1.0703 -0.867,-1.9375 -1.938,-1.9375 -1.071,0 -1.939,0.8672 -1.939,1.9375 0,1.0715 0.868,1.9386 1.939,1.9386 1.071,0 1.938,-0.8671 1.938,-1.9386 v 0"
         style="fill:#3f60b6;fill-opacity:1;fill-rule:nonzero;stroke:none;stroke-width:0.1"
         id="path94"
         inkscape:connector-curvature="0" /><path
         d="m 172.559,82.2625 c 0,-1.0715 -0.867,-1.9387 -1.938,-1.9387 -1.071,0 -1.938,0.8672 -1.938,1.9387 0,1.0711 0.867,1.9383 1.938,1.9383 1.071,0 1.938,-0.8672 1.938,-1.9383 v 0"
         style="fill:#3f60b6;fill-opacity:1;fill-rule:nonzero;stroke:none;stroke-width:0.1"
         id="path96"
         inkscape:connector-curvature="0" /><path
         d="m 176.618,76.9227 c 0,-1.0715 -0.868,-1.9387 -1.939,-1.9387 -1.071,0 -1.938,0.8672 -1.938,1.9387 0,1.0711 0.867,1.9382 1.938,1.9382 1.071,0 1.939,-0.8671 1.939,-1.9382 v 0"
         style="fill:#3f60b6;fill-opacity:1;fill-rule:nonzero;stroke:none;stroke-width:0.1"
         id="path98"
         inkscape:connector-curvature="0" /><path
         d="m 180.675,76.9227 c 0,-1.0715 -0.865,-1.9387 -1.938,-1.9387 -1.07,0 -1.937,0.8672 -1.937,1.9387 0,1.0711 0.867,1.9382 1.937,1.9382 1.073,0 1.938,-0.8671 1.938,-1.9382 v 0"
         style="fill:#3f60b6;fill-opacity:1;fill-rule:nonzero;stroke:none;stroke-width:0.1"
         id="path100"
         inkscape:connector-curvature="0" /><path
         d="m 184.734,89.7391 c 0,-1.0703 -0.867,-1.9387 -1.938,-1.9387 -1.07,0 -1.938,0.8684 -1.938,1.9387 0,1.0703 0.868,1.9382 1.938,1.9382 1.071,0 1.938,-0.8679 1.938,-1.9382 v 0"
         style="fill:#3f60b6;fill-opacity:1;fill-rule:nonzero;stroke:none;stroke-width:0.1"
         id="path102"
         inkscape:connector-curvature="0" /><path
         d="m 188.792,127.013 c 0,-1.071 -0.867,-1.94 -1.938,-1.94 -1.07,0 -1.937,0.869 -1.937,1.94 0,1.07 0.867,1.937 1.937,1.937 1.071,0 1.938,-0.867 1.938,-1.937 v 0"
         style="fill:#3f60b6;fill-opacity:1;fill-rule:nonzero;stroke:none;stroke-width:0.1"
         id="path104"
         inkscape:connector-curvature="0" /><path
         d="m 192.852,130.216 c 0,-1.07 -0.869,-1.938 -1.939,-1.938 -1.071,0 -1.937,0.868 -1.937,1.938 0,1.071 0.866,1.939 1.937,1.939 1.07,0 1.939,-0.868 1.939,-1.939 v 0"
         style="fill:#3f60b6;fill-opacity:1;fill-rule:nonzero;stroke:none;stroke-width:0.1"
         id="path106"
         inkscape:connector-curvature="0" /><path
         d="m 196.909,122.74 c 0,-1.07 -0.867,-1.938 -1.937,-1.938 -1.071,0 -1.939,0.868 -1.939,1.938 0,1.07 0.868,1.939 1.939,1.939 1.07,0 1.937,-0.869 1.937,-1.939 v 0"
         style="fill:#3f60b6;fill-opacity:1;fill-rule:nonzero;stroke:none;stroke-width:0.1"
         id="path108"
         inkscape:connector-curvature="0" /><path
         d="m 200.861,114.196 c 0,-1.07 -0.867,-1.939 -1.938,-1.939 -1.07,0 -1.938,0.869 -1.938,1.939 0,1.071 0.868,1.938 1.938,1.938 1.071,0 1.938,-0.867 1.938,-1.938 v 0"
         style="fill:#3f60b6;fill-opacity:1;fill-rule:nonzero;stroke:none;stroke-width:0.1"
         id="path110"
         inkscape:connector-curvature="0" /><path
         d="m 204.919,106.72 c 0,-1.07 -0.867,-1.938 -1.938,-1.938 -1.07,0 -1.937,0.868 -1.937,1.938 0,1.07 0.867,1.939 1.937,1.939 1.071,0 1.938,-0.869 1.938,-1.939 v 0"
         style="fill:#3f60b6;fill-opacity:1;fill-rule:nonzero;stroke:none;stroke-width:0.1"
         id="path112"
         inkscape:connector-curvature="0" /><path
         d="m 208.978,94.0109 c 0,-1.0703 -0.868,-1.9379 -1.938,-1.9379 -1.071,0 -1.937,0.8676 -1.937,1.9379 0,1.0704 0.866,1.9383 1.937,1.9383 1.07,0 1.938,-0.8679 1.938,-1.9383 v 0"
         style="fill:#3f60b6;fill-opacity:1;fill-rule:nonzero;stroke:none;stroke-width:0.1"
         id="path114"
         inkscape:connector-curvature="0" /><text
         transform="scale(1,-1)"
         y="-151.72835"
         x="11.947415"
         id="text134-8"
         style="font-variant:normal;font-weight:normal;font-size:7.99999952px;font-family:ArialMT;-inkscape-font-specification:ArialMT;writing-mode:lr-tb;fill:#3f60b6;fill-opacity:1;fill-rule:nonzero;stroke:none;stroke-width:0.99999994"><tspan
           y="-151.72835"
           x="11.947415"
           id="tspan132-8"
           sodipodi:role="line"
           style="font-style:normal;font-variant:normal;font-weight:normal;font-stretch:normal;font-family:sans-serif;-inkscape-font-specification:sans-serif;stroke-width:0.99999994">12</tspan></text>
<text
         transform="scale(1,-1)"
         y="-131.63367"
         x="11.677884"
         id="text134-8-0"
         style="font-variant:normal;font-weight:normal;font-size:7.99999952px;font-family:ArialMT;-inkscape-font-specification:ArialMT;writing-mode:lr-tb;fill:#3f60b6;fill-opacity:1;fill-rule:nonzero;stroke:none;stroke-width:0.99999994"><tspan
           y="-131.63367"
           x="11.677884"
           id="tspan132-8-9"
           sodipodi:role="line"
           style="font-style:normal;font-variant:normal;font-weight:normal;font-stretch:normal;font-family:sans-serif;-inkscape-font-specification:sans-serif;stroke-width:0.99999994">10</tspan></text>
<text
         transform="scale(1,-1)"
         y="-108.36996"
         x="16.783352"
         id="text134-8-6"
         style="font-variant:normal;font-weight:normal;font-size:7.99999952px;font-family:ArialMT;-inkscape-font-specification:ArialMT;writing-mode:lr-tb;fill:#3f60b6;fill-opacity:1;fill-rule:nonzero;stroke:none;stroke-width:0.99999994"><tspan
           y="-108.36996"
           x="16.783352"
           id="tspan132-8-3"
           sodipodi:role="line"
           style="font-style:normal;font-variant:normal;font-weight:normal;font-stretch:normal;font-family:sans-serif;-inkscape-font-specification:sans-serif;stroke-width:0.99999994">8</tspan></text>
<text
         transform="scale(1,-1)"
         y="-88.463898"
         x="16.740383"
         id="text134-8-8"
         style="font-variant:normal;font-weight:normal;font-size:7.99999952px;font-family:ArialMT;-inkscape-font-specification:ArialMT;writing-mode:lr-tb;fill:#3f60b6;fill-opacity:1;fill-rule:nonzero;stroke:none;stroke-width:0.99999994"><tspan
           y="-88.463898"
           x="16.740383"
           id="tspan132-8-5"
           sodipodi:role="line"
           style="font-style:normal;font-variant:normal;font-weight:normal;font-stretch:normal;font-family:sans-serif;-inkscape-font-specification:sans-serif;stroke-width:0.99999994">6</tspan></text>
<text
         transform="scale(1,-1)"
         y="-67.598511"
         x="16.685696"
         id="text134-8-61"
         style="font-variant:normal;font-weight:normal;font-size:7.99999952px;font-family:ArialMT;-inkscape-font-specification:ArialMT;writing-mode:lr-tb;fill:#3f60b6;fill-opacity:1;fill-rule:nonzero;stroke:none;stroke-width:0.99999994"><tspan
           y="-67.598511"
           x="16.685696"
           id="tspan132-8-1"
           sodipodi:role="line"
           style="font-style:normal;font-variant:normal;font-weight:normal;font-stretch:normal;font-family:sans-serif;-inkscape-font-specification:sans-serif;stroke-width:0.99999994">4</tspan></text>
<text
         transform="scale(1,-1)"
         y="-46.972958"
         x="17.037258"
         id="text134-8-5"
         style="font-variant:normal;font-weight:normal;font-size:7.99999952px;font-family:ArialMT;-inkscape-font-specification:ArialMT;writing-mode:lr-tb;fill:#3f60b6;fill-opacity:1;fill-rule:nonzero;stroke:none;stroke-width:0.99999994"><tspan
           y="-46.972958"
           x="17.037258"
           id="tspan132-8-98"
           sodipodi:role="line"
           style="font-style:normal;font-variant:normal;font-weight:normal;font-stretch:normal;font-family:sans-serif;-inkscape-font-specification:sans-serif;stroke-width:0.99999994">2</tspan></text>
<text
         transform="scale(1,-1)"
         y="-24.668577"
         x="16.767727"
         id="text134-8-4"
         style="font-variant:normal;font-weight:normal;font-size:7.99999952px;font-family:ArialMT;-inkscape-font-specification:ArialMT;writing-mode:lr-tb;fill:#3f60b6;fill-opacity:1;fill-rule:nonzero;stroke:none;stroke-width:0.99999994"><tspan
           y="-24.668577"
           x="16.767727"
           id="tspan132-8-8"
           sodipodi:role="line"
           style="font-style:normal;font-variant:normal;font-weight:normal;font-stretch:normal;font-family:sans-serif;-inkscape-font-specification:sans-serif;stroke-width:0.99999994">0</tspan></text>
<text
         transform="scale(1,-1)"
         y="-13.600591"
         x="13.212721"
         id="text134-8-1"
         style="font-variant:normal;font-weight:normal;font-size:7.6829071px;font-family:ArialMT;-inkscape-font-specification:ArialMT;writing-mode:lr-tb;fill:#3f60b6;fill-opacity:1;fill-rule:nonzero;stroke:none;stroke-width:0.96036339"><tspan
           y="-13.600591"
           x="13.212721"
           id="tspan132-8-0"
           sodipodi:role="line"
           style="font-style:normal;font-variant:normal;font-weight:normal;font-stretch:normal;font-family:sans-serif;-inkscape-font-specification:sans-serif;stroke-width:0.96036339">1970</tspan></text>
<text
         transform="scale(1,-1)"
         y="-13.600591"
         x="34.295109"
         id="text134-8-3"
         style="font-variant:normal;font-weight:normal;font-size:7.6829071px;font-family:ArialMT;-inkscape-font-specification:ArialMT;writing-mode:lr-tb;fill:#3f60b6;fill-opacity:1;fill-rule:nonzero;stroke:none;stroke-width:0.96036339"><tspan
           y="-13.600591"
           x="34.295109"
           id="tspan132-8-04"
           sodipodi:role="line"
           style="font-style:normal;font-variant:normal;font-weight:normal;font-stretch:normal;font-family:sans-serif;-inkscape-font-specification:sans-serif;stroke-width:0.96036339">1975</tspan></text>
<text
         transform="scale(1,-1)"
         y="-13.600591"
         x="55.21619"
         id="text134-8-44"
         style="font-variant:normal;font-weight:normal;font-size:7.6829071px;font-family:ArialMT;-inkscape-font-specification:ArialMT;writing-mode:lr-tb;fill:#3f60b6;fill-opacity:1;fill-rule:nonzero;stroke:none;stroke-width:0.96036339"><tspan
           y="-13.600591"
           x="55.21619"
           id="tspan132-8-4"
           sodipodi:role="line"
           style="font-style:normal;font-variant:normal;font-weight:normal;font-stretch:normal;font-family:sans-serif;-inkscape-font-specification:sans-serif;stroke-width:0.96036339">1980</tspan></text>
<text
         transform="scale(1,-1)"
         y="-13.600591"
         x="76.298584"
         id="text134-8-7"
         style="font-variant:normal;font-weight:normal;font-size:7.6829071px;font-family:ArialMT;-inkscape-font-specification:ArialMT;writing-mode:lr-tb;fill:#3f60b6;fill-opacity:1;fill-rule:nonzero;stroke:none;stroke-width:0.96036339"><tspan
           y="-13.600591"
           x="76.298584"
           id="tspan132-8-6"
           sodipodi:role="line"
           style="font-style:normal;font-variant:normal;font-weight:normal;font-stretch:normal;font-family:sans-serif;-inkscape-font-specification:sans-serif;stroke-width:0.96036339">1985</tspan></text>
<text
         transform="scale(1,-1)"
         y="-13.600591"
         x="97.219658"
         id="text134-8-31"
         style="font-variant:normal;font-weight:normal;font-size:7.6829071px;font-family:ArialMT;-inkscape-font-specification:ArialMT;writing-mode:lr-tb;fill:#3f60b6;fill-opacity:1;fill-rule:nonzero;stroke:none;stroke-width:0.96036339"><tspan
           y="-13.600591"
           x="97.219658"
           id="tspan132-8-7"
           sodipodi:role="line"
           style="font-style:normal;font-variant:normal;font-weight:normal;font-stretch:normal;font-family:sans-serif;-inkscape-font-specification:sans-serif;stroke-width:0.96036339">1990</tspan></text>
<text
         transform="scale(1,-1)"
         y="-13.600591"
         x="118.30205"
         id="text134-8-59"
         style="font-variant:normal;font-weight:normal;font-size:7.6829071px;font-family:ArialMT;-inkscape-font-specification:ArialMT;writing-mode:lr-tb;fill:#3f60b6;fill-opacity:1;fill-rule:nonzero;stroke:none;stroke-width:0.96036339"><tspan
           y="-13.600591"
           x="118.30205"
           id="tspan132-8-62"
           sodipodi:role="line"
           style="font-style:normal;font-variant:normal;font-weight:normal;font-stretch:normal;font-family:sans-serif;-inkscape-font-specification:sans-serif;stroke-width:0.96036339">1995</tspan></text>
<text
         transform="scale(1,-1)"
         y="-13.600591"
         x="139.50449"
         id="text134-8-17"
         style="font-variant:normal;font-weight:normal;font-size:7.6829071px;font-family:ArialMT;-inkscape-font-specification:ArialMT;writing-mode:lr-tb;fill:#3f60b6;fill-opacity:1;fill-rule:nonzero;stroke:none;stroke-width:0.96036339"><tspan
           y="-13.600591"
           x="139.50449"
           id="tspan132-8-85"
           sodipodi:role="line"
           style="font-style:normal;font-variant:normal;font-weight:normal;font-stretch:normal;font-family:sans-serif;-inkscape-font-specification:sans-serif;stroke-width:0.96036339">2000</tspan></text>
<text
         transform="scale(1,-1)"
         y="-13.600591"
         x="160.86824"
         id="text134-8-74"
         style="font-variant:normal;font-weight:normal;font-size:7.6829071px;font-family:ArialMT;-inkscape-font-specification:ArialMT;writing-mode:lr-tb;fill:#3f60b6;fill-opacity:1;fill-rule:nonzero;stroke:none;stroke-width:0.96036339"><tspan
           y="-13.600591"
           x="160.86824"
           id="tspan132-8-18"
           sodipodi:role="line"
           style="font-style:normal;font-variant:normal;font-weight:normal;font-stretch:normal;font-family:sans-serif;-inkscape-font-specification:sans-serif;stroke-width:0.96036339">2005</tspan></text>
<text
         transform="scale(1,-1)"
         y="-13.600591"
         x="182.07066"
         id="text134-8-597"
         style="font-variant:normal;font-weight:normal;font-size:7.6829071px;font-family:ArialMT;-inkscape-font-specification:ArialMT;writing-mode:lr-tb;fill:#3f60b6;fill-opacity:1;fill-rule:nonzero;stroke:none;stroke-width:0.96036339"><tspan
           y="-13.600591"
           x="182.07066"
           id="tspan132-8-53"
           sodipodi:role="line"
           style="font-style:normal;font-variant:normal;font-weight:normal;font-stretch:normal;font-family:sans-serif;-inkscape-font-specification:sans-serif;stroke-width:0.96036339">2010</tspan></text>
<text
         transform="scale(1,-1)"
         y="-13.600591"
         x="203.4344"
         id="text134-8-88"
         style="font-variant:normal;font-weight:normal;font-size:7.6829071px;font-family:ArialMT;-inkscape-font-specification:ArialMT;writing-mode:lr-tb;fill:#3f60b6;fill-opacity:1;fill-rule:nonzero;stroke:none;stroke-width:0.96036339"><tspan
           y="-13.600591"
           x="203.4344"
           id="tspan132-8-31"
           sodipodi:role="line"
           style="font-style:normal;font-variant:normal;font-weight:normal;font-stretch:normal;font-family:sans-serif;-inkscape-font-specification:sans-serif;stroke-width:0.96036339">2015</tspan></text>
</g></g></svg>