<?xml version="1.0" encoding="UTF-8" standalone="no"?>
<!-- Created with Inkscape (http://www.inkscape.org/) -->

<svg
   xmlns:dc="http://purl.org/dc/elements/1.1/"
   xmlns:cc="http://creativecommons.org/ns#"
   xmlns:rdf="http://www.w3.org/1999/02/22-rdf-syntax-ns#"
   xmlns:svg="http://www.w3.org/2000/svg"
   xmlns="http://www.w3.org/2000/svg"
   xmlns:sodipodi="http://sodipodi.sourceforge.net/DTD/sodipodi-0.dtd"
   xmlns:inkscape="http://www.inkscape.org/namespaces/inkscape"
   version="1.1"
   id="svg2"
   xml:space="preserve"
   width="264.06699"
   height="176.952"
   viewBox="0 0 264.06699 176.952"
   sodipodi:docname="Zmiany oczekiwań wobec cen i innych czynników wpływających na popyt_7.svg"
   inkscape:version="0.92.5 (2060ec1f9f, 2020-04-08)"><metadata
     id="metadata8"><rdf:RDF><cc:Work
         rdf:about=""><dc:format>image/svg+xml</dc:format><dc:type
           rdf:resource="http://purl.org/dc/dcmitype/StillImage" /><dc:title /></cc:Work></rdf:RDF></metadata><defs
     id="defs6">








</defs><sodipodi:namedview
     pagecolor="#ffffff"
     bordercolor="#666666"
     borderopacity="1"
     objecttolerance="10"
     gridtolerance="10"
     guidetolerance="10"
     inkscape:pageopacity="0"
     inkscape:pageshadow="2"
     inkscape:window-width="1848"
     inkscape:window-height="1043"
     id="namedview4"
     showgrid="false"
     inkscape:zoom="2.968113"
     inkscape:cx="124.57357"
     inkscape:cy="74.973381"
     inkscape:window-x="1438"
     inkscape:window-y="0"
     inkscape:window-maximized="1"
     inkscape:current-layer="g92" /><g
     id="g10"
     inkscape:groupmode="layer"
     inkscape:label="ink_ext_XXXXXX"
     transform="matrix(1.3333333,0,0,-1.3333333,0,176.952)"><g
       id="g92">







<g
   id="g64"><path
     inkscape:connector-curvature="0"
     id="path16"
     style="fill:none;stroke:#b33aa3;stroke-width:0.5;stroke-linecap:butt;stroke-linejoin:miter;stroke-miterlimit:4;stroke-dasharray:3, 2;stroke-dashoffset:0;stroke-opacity:1"
     d="m 75.532166,28.475999 v 48.0008 h -48.0006" /><text
     transform="scale(1,-1)"
     style="font-variant:normal;font-weight:normal;font-size:8px;font-family:ArialMT;-inkscape-font-specification:ArialMT;writing-mode:lr-tb;fill:#3f60b6;fill-opacity:1;fill-rule:nonzero;stroke:none"
     id="text22"
     x="71.613167"
     y="-15.0952"><tspan
       style="-inkscape-font-specification:sans-serif;font-family:sans-serif;font-weight:normal;font-style:normal;font-stretch:normal;font-variant:normal"
       x="71.613167"
       y="-15.0952"
       id="tspan20">Q</tspan></text>
<text
     transform="scale(1,-1)"
     style="font-variant:normal;font-weight:normal;font-size:4.66400003px;font-family:ArialMT;-inkscape-font-specification:ArialMT;writing-mode:lr-tb;fill:#3f60b6;fill-opacity:1;fill-rule:nonzero;stroke:none"
     id="text26"
     x="77.835037"
     y="-12.431137"><tspan
       style="-inkscape-font-specification:sans-serif;font-family:sans-serif;font-weight:normal;font-style:normal;font-stretch:normal;font-variant:normal"
       x="77.835037"
       y="-12.431137"
       id="tspan24">0</tspan></text>
<text
     transform="scale(1,-1)"
     style="font-variant:normal;font-weight:bold;font-size:8px;font-family:Arial;-inkscape-font-specification:Arial-BoldMT;writing-mode:lr-tb;fill:#3f60b6;fill-opacity:1;fill-rule:nonzero;stroke:none"
     id="text30"
     x="57.094032"
     y="-0.078039594"><tspan
       sodipodi:role="line"
       id="tspan28"
       x="57.094032"
       y="-0.078039594"
       style="-inkscape-font-specification:'sans-serif Bold';font-family:sans-serif;font-weight:bold;font-style:normal;font-stretch:normal;font-variant:normal">Ilość oferowana</tspan><tspan
       sodipodi:role="line"
       x="57.094032"
       y="9.9219608"
       id="tspan109"
       style="-inkscape-font-specification:'sans-serif Bold';font-family:sans-serif;font-weight:bold;font-style:normal;font-stretch:normal;font-variant:normal" /><tspan
       sodipodi:role="line"
       x="57.094032"
       y="19.921961"
       id="tspan111"
       style="-inkscape-font-specification:'sans-serif Bold';font-family:sans-serif;font-weight:bold;font-style:normal;font-stretch:normal;font-variant:normal" /></text>
<path
     inkscape:connector-curvature="0"
     id="path32"
     style="fill:none;stroke:#3f60b6;stroke-width:0.5;stroke-linecap:butt;stroke-linejoin:miter;stroke-miterlimit:4;stroke-dasharray:none;stroke-opacity:1"
     d="M 152.22417,28.459999 H 27.546466 V 132.7141" /><text
     transform="scale(1,-1)"
     style="font-variant:normal;font-weight:normal;font-size:8px;font-family:ArialMT;-inkscape-font-specification:ArialMT;writing-mode:lr-tb;fill:#3f60b6;fill-opacity:1;fill-rule:nonzero;stroke:none"
     id="text38"
     x="12.028465"
     y="-77.054901"><tspan
       style="-inkscape-font-specification:sans-serif;font-family:sans-serif;font-weight:normal;font-style:normal;font-stretch:normal;font-variant:normal"
       x="12.028465"
       y="-77.054901"
       id="tspan36">P</tspan></text>
<text
     transform="scale(1,-1)"
     style="font-variant:normal;font-weight:normal;font-size:4.66400003px;font-family:ArialMT;-inkscape-font-specification:ArialMT;writing-mode:lr-tb;fill:#3f60b6;fill-opacity:1;fill-rule:nonzero;stroke:none"
     id="text42"
     x="17.364017"
     y="-74.391228"><tspan
       style="-inkscape-font-specification:sans-serif;font-family:sans-serif;font-weight:normal;font-style:normal;font-stretch:normal;font-variant:normal"
       x="17.364017"
       y="-74.391228"
       id="tspan40">0</tspan></text>
<text
     transform="scale(1,-1)"
     style="font-variant:normal;font-weight:normal;font-size:8px;font-family:ArialMT;-inkscape-font-specification:ArialMT;writing-mode:lr-tb;fill:#3f60b6;fill-opacity:1;fill-rule:nonzero;stroke:none"
     id="text52"
     x="86.10891"
     y="-60.603722"><tspan
       sodipodi:role="line"
       x="86.10891"
       y="-60.603722"
       id="tspan119"
       style="-inkscape-font-specification:sans-serif;font-family:sans-serif;font-weight:normal;font-style:normal;font-stretch:normal;font-variant:normal">Jednostkowy koszt produkcji</tspan><tspan
       x="86.10891"
       y="-50.603722"
       sodipodi:role="line"
       id="tspan48"
       style="-inkscape-font-specification:sans-serif;font-family:sans-serif;font-weight:normal;font-style:normal;font-stretch:normal;font-variant:normal"> </tspan><tspan
       sodipodi:role="line"
       id="tspan50"
       x="86.10891"
       y="-40.603722"
       style="-inkscape-font-specification:sans-serif;font-family:sans-serif;font-weight:normal;font-style:normal;font-stretch:normal;font-variant:normal">Oczekiwany zysk</tspan></text>
<text
     transform="matrix(0,1,1,0,0,0)"
     style="font-variant:normal;font-weight:bold;font-size:8px;font-family:Arial;-inkscape-font-specification:Arial-BoldMT;writing-mode:lr-tb;fill:#3f60b6;fill-opacity:1;fill-rule:nonzero;stroke:none"
     id="text56"
     x="67.863495"
     y="6.6579204"><tspan
       sodipodi:role="line"
       id="tspan54"
       x="67.863495"
       y="6.6579204"
       style="font-style:normal;font-variant:normal;font-weight:bold;font-stretch:normal;font-family:sans-serif;-inkscape-font-specification:'sans-serif Bold'">Cena</tspan></text>
<path
     inkscape:connector-curvature="0"
     id="path58"
     style="fill:none;stroke:#3f60b6;stroke-width:0.5;stroke-linecap:butt;stroke-linejoin:miter;stroke-miterlimit:4;stroke-dasharray:none;stroke-opacity:1"
     d="M 102.63017,103.4511 50.558166,51.378399" /><path
     inkscape:connector-curvature="0"
     id="path60"
     style="fill:#3f60b6;fill-opacity:1;fill-rule:nonzero;stroke:none;stroke-width:0.1"
     d="m 82.340166,55.554199 c 0,1.8203 0,3.873 0,6.1074 0,1.539 1.483,2.082 1.935,2.0957 h 0.001 c 0.08,-0.0027 0.132,0 0.132,0 0,0 -0.052,0.0019 -0.132,0 -0.453,0.0137 -1.936,0.4844 -1.936,2.0957 0,2.2336 0,4.2871 0,6.1074 0,1.8195 -1.737,1.9856 -1.737,1.9856 h -0.745 c 0,0 1.737,-0.1661 1.737,-1.9856 0,-1.8203 0,-4.2129 0,-6.4465 0,-1.6558 1.317,-1.7566 1.317,-1.7566 0,0 -1.317,-0.1004 -1.317,-1.7578 0,-2.2324 0,-4.625 0,-6.4453 0,-1.8203 -1.737,-1.9864 -1.737,-1.9864 h 0.745 c 0,0 1.737,0.1661 1.737,1.9864" /><path
     inkscape:connector-curvature="0"
     id="path62"
     style="fill:#3f60b6;fill-opacity:1;fill-rule:nonzero;stroke:none;stroke-width:0.1"
     d="m 82.340166,33.554199 c 0,1.8199 0,3.873 0,6.107 0,1.5398 1.483,2.0828 1.935,2.0961 h 0.001 c 0.08,-0.0043 0.132,0 0.132,0 0,0 -0.052,0.0019 -0.132,0 -0.453,0.0137 -1.936,0.4848 -1.936,2.0957 0,2.232 0,4.2871 0,6.1074 0,1.8184 -1.737,1.9844 -1.737,1.9844 h -0.745 c 0,0 1.737,-0.166 1.737,-1.9844 0,-1.8203 0,-4.2133 0,-6.4473 0,-1.6558 1.317,-1.7558 1.317,-1.7558 0,0 -1.317,-0.1012 -1.317,-1.7582 0,-2.232 0,-4.625 0,-6.4449 0,-1.82 -1.737,-1.986 -1.737,-1.986 h 0.745 c 0,0 1.737,0.166 1.737,1.986" /><path
     inkscape:connector-curvature="0"
     id="path64"
     style="fill:#3f60b6;fill-opacity:1;fill-rule:nonzero;stroke:none;stroke-width:0.1"
     d="m 76.945166,78.140499 c 0.779,-0.7777 0.779,-2.0508 0,-2.8274 -0.778,-0.7773 -2.051,-0.7773 -2.829,0 -0.777,0.7766 -0.777,2.0497 0,2.8274 0.778,0.7777 2.051,0.7777 2.829,0" /><text
     style="font-variant:normal;font-weight:normal;font-size:7.99999952px;font-family:ArialMT;-inkscape-font-specification:ArialMT;writing-mode:lr-tb;fill:#3f60b6;fill-opacity:1;fill-rule:nonzero;stroke:none;stroke-width:0.99999994"
     id="text22-3"
     x="103.92951"
     y="-101.63896"
     transform="scale(1,-1)"><tspan
       style="stroke-width:0.99999994;-inkscape-font-specification:sans-serif;font-family:sans-serif;font-weight:normal;font-style:normal;font-stretch:normal;font-variant:normal"
       x="103.92951"
       y="-101.63896"
       id="tspan20-6">S</tspan></text>
<text
     style="font-variant:normal;font-weight:normal;font-size:7.99999952px;font-family:ArialMT;-inkscape-font-specification:ArialMT;writing-mode:lr-tb;fill:#3f60b6;fill-opacity:1;fill-rule:nonzero;stroke:none;stroke-width:0.99999994"
     id="text52-7"
     x="119.02102"
     y="-50.30294"
     transform="scale(1,-1)"><tspan
       style="stroke-width:0.99999994"
       sodipodi:role="line"
       id="tspan50-5"
       x="119.02102"
       y="-50.30294">+</tspan></text>
</g>
</g></g></svg>