<?xml version="1.0" encoding="UTF-8" standalone="no"?>
<!-- Created with Inkscape (http://www.inkscape.org/) -->

<svg
   xmlns:dc="http://purl.org/dc/elements/1.1/"
   xmlns:cc="http://creativecommons.org/ns#"
   xmlns:rdf="http://www.w3.org/1999/02/22-rdf-syntax-ns#"
   xmlns:svg="http://www.w3.org/2000/svg"
   xmlns="http://www.w3.org/2000/svg"
   xmlns:sodipodi="http://sodipodi.sourceforge.net/DTD/sodipodi-0.dtd"
   xmlns:inkscape="http://www.inkscape.org/namespaces/inkscape"
   version="1.1"
   id="svg2"
   xml:space="preserve"
   width="423.552"
   height="257.19601"
   viewBox="0 0 423.552 257.19601"
   sodipodi:docname="CNX_Econ_C06_003.svg"
   inkscape:version="0.92.5 (2060ec1f9f, 2020-04-08)"><metadata
     id="metadata8"><rdf:RDF><cc:Work
         rdf:about=""><dc:format>image/svg+xml</dc:format><dc:type
           rdf:resource="http://purl.org/dc/dcmitype/StillImage" /><dc:title></dc:title></cc:Work></rdf:RDF></metadata><defs
     id="defs6">








</defs><sodipodi:namedview
     pagecolor="#ffffff"
     bordercolor="#666666"
     borderopacity="1"
     objecttolerance="10"
     gridtolerance="10"
     guidetolerance="10"
     inkscape:pageopacity="0"
     inkscape:pageshadow="2"
     inkscape:window-width="1848"
     inkscape:window-height="1043"
     id="namedview4"
     showgrid="false"
     inkscape:zoom="1.079478"
     inkscape:cx="169.97996"
     inkscape:cy="214.33993"
     inkscape:window-x="1438"
     inkscape:window-y="0"
     inkscape:window-maximized="1"
     inkscape:current-layer="g173" /><g
     id="g10"
     inkscape:groupmode="layer"
     inkscape:label="ink_ext_XXXXXX"
     transform="matrix(1.3333333,0,0,-1.3333333,0,257.19601)"><g
       id="g173">





<g
   id="g93"
   transform="translate(-1.6192789,-1.9598738)"><text
     transform="scale(1,-1)"
     style="font-variant:normal;font-weight:bold;font-size:8px;font-family:Arial;-inkscape-font-specification:Arial-BoldMT;writing-mode:lr-tb;fill:#3f60b6;fill-opacity:1;fill-rule:nonzero;stroke:none;stroke-width:1.26641619"
     id="text18"
     x="129.0992"
     y="-3.686609"><tspan
       sodipodi:role="line"
       id="tspan16"
       x="129.0992"
       y="-3.686609"
       style="font-style:normal;font-variant:normal;font-weight:bold;font-stretch:normal;font-size:8px;font-family:sans-serif;-inkscape-font-specification:'sans-serif Bold';stroke-width:1.26641619">Kije bejsbolowe</tspan></text>
<text
     transform="matrix(0,1,1,0,0,0)"
     style="font-variant:normal;font-weight:bold;font-size:8px;font-family:Arial;-inkscape-font-specification:Arial-BoldMT;writing-mode:lr-tb;fill:#3f60b6;fill-opacity:1;fill-rule:nonzero;stroke:none;stroke-width:1.26641619"
     id="text22"
     x="54.191399"
     y="7.6975121"><tspan
       sodipodi:role="line"
       id="tspan20"
       x="54.191399"
       y="7.6975121"
       style="font-style:normal;font-variant:normal;font-weight:bold;font-stretch:normal;font-size:8px;font-family:sans-serif;-inkscape-font-specification:'sans-serif Bold';stroke-width:1.26641619">Aparaty fotograficzne</tspan></text>
<path
     inkscape:connector-curvature="0"
     id="path24"
     style="fill:none;stroke:#3f60b6;stroke-width:0.6332081;stroke-linecap:butt;stroke-linejoin:miter;stroke-miterlimit:4;stroke-dasharray:none;stroke-opacity:1"
     d="M 319.28318,17.89164 H 16.127069 v 176.96507" /><path
     inkscape:connector-curvature="0"
     id="path26"
     style="fill:none;stroke:#3f60b6;stroke-width:0.6332081;stroke-linecap:butt;stroke-linejoin:miter;stroke-miterlimit:4;stroke-dasharray:none;stroke-opacity:1"
     d="M 231.3164,17.910426 16.00942,158.96015 296.49275,17.871377"
     sodipodi:nodetypes="ccc" /><path
     inkscape:connector-curvature="0"
     id="path28"
     style="fill:none;stroke:#b33aa3;stroke-width:0.6332081;stroke-linecap:butt;stroke-linejoin:miter;stroke-miterlimit:4;stroke-dasharray:3.79924876, 2.53283252;stroke-dashoffset:0;stroke-opacity:1"
     d="M 16.008407,89.051442 H 154.13237 V 17.871377" /><path
     inkscape:connector-curvature="0"
     id="path30"
     style="fill:#3f60b6;fill-opacity:1;fill-rule:nonzero;stroke:none;stroke-width:0.12664163"
     d="m 103.6553,104.56795 c 0.9849,-0.9849 0.9849,-2.59767 0,-3.58155 -0.98502,-0.98502 -2.59665,-0.98502 -3.58168,0 -0.984887,0.98388 -0.984887,2.59665 0,3.58155 0.98503,0.984 2.59666,0.984 3.58168,0" /><path
     inkscape:connector-curvature="0"
     id="path32"
     style="fill:#3f60b6;fill-opacity:1;fill-rule:nonzero;stroke:none;stroke-width:0.12664163"
     d="m 156.04593,91.073655 c 0.98528,-0.984384 0.98528,-2.597166 0,-3.581551 -0.98528,-0.984384 -2.59615,-0.984384 -3.58142,0 -0.98529,0.984385 -0.98529,2.597167 0,3.581551 0.98527,0.984513 2.59614,0.984513 3.58142,0" /><path
     inkscape:connector-curvature="0"
     id="path34"
     style="fill:#3f60b6;fill-opacity:1;fill-rule:nonzero;stroke:none;stroke-width:0.12664163"
     d="m 140.36896,80.357115 c 0.98401,-0.984385 0.98401,-2.597166 0,-3.581045 -0.98528,-0.984893 -2.59741,-0.984893 -3.58268,0 -0.98402,0.983879 -0.98402,2.59666 0,3.581045 0.98527,0.984512 2.5974,0.984512 3.58268,0" /><path
     inkscape:connector-curvature="0"
     id="path36"
     style="fill:#3f60b6;fill-opacity:1;fill-rule:nonzero;stroke:none;stroke-width:0.12664163"
     d="m 156.04466,70.237183 c 0.98528,-0.984386 0.98528,-2.597167 0,-3.581046 -0.98527,-0.985525 -2.59615,-0.985525 -3.58142,0 -0.98528,0.983879 -0.98528,2.59666 0,3.581046 0.98527,0.984386 2.59615,0.984386 3.58142,0" /><path
     inkscape:connector-curvature="0"
     id="path38"
     style="fill:#3f60b6;fill-opacity:1;fill-rule:nonzero;stroke:none;stroke-width:0.12664163"
     d="m 186.80465,49.993772 c 0.984,-0.983878 0.984,-2.596154 0,-3.581552 -0.98401,-0.983878 -2.59742,-0.983878 -3.58143,0 -0.984,0.985398 -0.984,2.597674 0,3.581552 0.98401,0.985526 2.59742,0.985526 3.58143,0" /><path
     inkscape:connector-curvature="0"
     id="path40"
     style="fill:none;stroke:#231f20;stroke-width:0.6332081;stroke-linecap:butt;stroke-linejoin:miter;stroke-miterlimit:4;stroke-dasharray:none;stroke-opacity:1"
     d="m 174.85981,75.386938 -7.28189,-6.648685" /><path
     inkscape:connector-curvature="0"
     id="path42"
     style="fill:#231f20;fill-opacity:1;fill-rule:nonzero;stroke:none;stroke-width:0.12664163"
     d="m 166.91178,67.250214 c 0.98528,0.4725 1.6856,0.71679 2.53284,1.033902 l -2.15418,2.358699 c -0.12537,-0.308117 -0.69906,-1.489051 -1.25882,-2.428986 -0.59902,-1.005661 -1.19423,-1.861505 -1.62482,-2.365539 0.54203,0.383345 1.4488,0.89637 2.50498,1.401924" /><path
     inkscape:connector-curvature="0"
     id="path44"
     style="fill:none;stroke:#231f20;stroke-width:0.6332081;stroke-linecap:butt;stroke-linejoin:miter;stroke-miterlimit:4;stroke-dasharray:none;stroke-opacity:1"
     d="m 204.6206,58.606923 -7.2819,-6.648686" /><path
     inkscape:connector-curvature="0"
     id="path46"
     style="fill:#231f20;fill-opacity:1;fill-rule:nonzero;stroke:none;stroke-width:0.12664163"
     d="m 196.67256,50.470198 c 0.98527,0.4725 1.6856,0.716792 2.53282,1.034409 l -2.15416,2.358193 c -0.12537,-0.307739 -0.69907,-1.489557 -1.25881,-2.428986 -0.59902,-1.005662 -1.19424,-1.861504 -1.62482,-2.365539 0.54202,0.383344 1.44878,0.896369 2.50497,1.401923" /><path
     inkscape:connector-curvature="0"
     id="path48"
     style="fill:none;stroke:#231f20;stroke-width:0.6332081;stroke-linecap:butt;stroke-linejoin:miter;stroke-miterlimit:4;stroke-dasharray:none;stroke-opacity:1"
     d="m 246.41233,34.861617 -7.2819,-6.648685" /><path
     inkscape:connector-curvature="0"
     id="path50"
     style="fill:#231f20;fill-opacity:1;fill-rule:nonzero;stroke:none;stroke-width:0.12664163"
     d="m 238.4643,26.724894 c 0.98526,0.472499 1.6856,0.716791 2.53282,1.034408 l -2.15416,2.358195 c -0.12539,-0.307741 -0.69907,-1.48956 -1.25882,-2.428988 -0.59901,-1.005662 -1.19423,-1.861505 -1.62482,-2.365539 0.54203,0.383851 1.44879,0.896369 2.50498,1.401924" /><text
     y="-95.552902"
     x="91.030731"
     transform="scale(1,-1)"
     style="font-variant:normal;font-weight:normal;font-size:8px;font-family:ArialMT;-inkscape-font-specification:ArialMT;writing-mode:lr-tb;fill:#3f60b6;fill-opacity:1;fill-rule:nonzero;stroke:none;stroke-width:1.26641619"
     id="text64-0"><tspan
       id="tspan91"
       style="font-style:normal;font-variant:normal;font-weight:normal;font-stretch:normal;font-size:8px;font-family:sans-serif;-inkscape-font-specification:sans-serif;stroke-width:1.26641619">H</tspan></text>
<text
     transform="scale(1,-1)"
     y="-66.512764"
     x="132.79422"
     style="font-variant:normal;font-weight:normal;font-size:8px;font-family:ArialMT;-inkscape-font-specification:ArialMT;writing-mode:lr-tb;fill:#3f60b6;fill-opacity:1;fill-rule:nonzero;stroke:none;stroke-width:1.26641619"
     id="text64-0-8"><tspan
       id="tspan91-5"
       style="font-style:normal;font-variant:normal;font-weight:normal;font-stretch:normal;font-size:8px;font-family:sans-serif;-inkscape-font-specification:sans-serif;stroke-width:1.26641619">J</tspan></text>
<text
     transform="scale(1,-1)"
     y="-56.713585"
     x="145.08208"
     style="font-variant:normal;font-weight:normal;font-size:8px;font-family:ArialMT;-inkscape-font-specification:ArialMT;writing-mode:lr-tb;fill:#3f60b6;fill-opacity:1;fill-rule:nonzero;stroke:none;stroke-width:1.26641619"
     id="text64-0-6"><tspan
       id="tspan91-1"
       style="font-style:normal;font-variant:normal;font-weight:normal;font-stretch:normal;font-size:8px;font-family:sans-serif;-inkscape-font-specification:sans-serif;stroke-width:1.26641619">K</tspan></text>
<text
     transform="scale(1,-1)"
     y="-39.137287"
     x="176.81274"
     style="font-variant:normal;font-weight:normal;font-size:8px;font-family:ArialMT;-inkscape-font-specification:ArialMT;writing-mode:lr-tb;fill:#3f60b6;fill-opacity:1;fill-rule:nonzero;stroke:none;stroke-width:1.26641619"
     id="text64-0-1"><tspan
       id="tspan91-59"
       style="font-style:normal;font-variant:normal;font-weight:normal;font-stretch:normal;font-size:8px;font-family:sans-serif;-inkscape-font-specification:sans-serif;stroke-width:1.26641619">L</tspan></text>
<text
     transform="scale(1,-1)"
     y="-95.290604"
     x="155.35037"
     style="font-variant:normal;font-weight:normal;font-size:8px;font-family:ArialMT;-inkscape-font-specification:ArialMT;writing-mode:lr-tb;fill:#3f60b6;fill-opacity:1;fill-rule:nonzero;stroke:none;stroke-width:1.26641619"
     id="text64-0-84"><tspan
       id="tspan91-8"
       style="font-style:normal;font-variant:normal;font-weight:normal;font-stretch:normal;font-size:8px;font-family:sans-serif;-inkscape-font-specification:sans-serif;stroke-width:1.26641619">M</tspan></text>
</g>
</g></g></svg>