<?xml version="1.0" encoding="UTF-8" standalone="no"?>
<!-- Created with Inkscape (http://www.inkscape.org/) -->

<svg
   xmlns:dc="http://purl.org/dc/elements/1.1/"
   xmlns:cc="http://creativecommons.org/ns#"
   xmlns:rdf="http://www.w3.org/1999/02/22-rdf-syntax-ns#"
   xmlns:svg="http://www.w3.org/2000/svg"
   xmlns="http://www.w3.org/2000/svg"
   xmlns:sodipodi="http://sodipodi.sourceforge.net/DTD/sodipodi-0.dtd"
   xmlns:inkscape="http://www.inkscape.org/namespaces/inkscape"
   version="1.1"
   id="svg2"
   xml:space="preserve"
   width="316.01001"
   height="269.39999"
   viewBox="0 0 316.01001 269.39999"
   sodipodi:docname="CNX_Econ_C03_010.svg"
   inkscape:version="0.92.5 (2060ec1f9f, 2020-04-08)"><metadata
     id="metadata8"><rdf:RDF><cc:Work
         rdf:about=""><dc:format>image/svg+xml</dc:format><dc:type
           rdf:resource="http://purl.org/dc/dcmitype/StillImage" /><dc:title></dc:title></cc:Work></rdf:RDF></metadata><defs
     id="defs6">
























































































</defs><sodipodi:namedview
     pagecolor="#ffffff"
     bordercolor="#666666"
     borderopacity="1"
     objecttolerance="10"
     gridtolerance="10"
     guidetolerance="10"
     inkscape:pageopacity="0"
     inkscape:pageshadow="2"
     inkscape:window-width="1848"
     inkscape:window-height="1043"
     id="namedview4"
     showgrid="false"
     inkscape:snap-bbox="true"
     inkscape:bbox-paths="true"
     inkscape:bbox-nodes="true"
     inkscape:snap-bbox-edge-midpoints="true"
     inkscape:snap-bbox-midpoints="true"
     showguides="true"
     inkscape:guide-bbox="true"
     inkscape:zoom="2"
     inkscape:cx="250.83228"
     inkscape:cy="199.55195"
     inkscape:window-x="1438"
     inkscape:window-y="0"
     inkscape:window-maximized="1"
     inkscape:current-layer="g10"><sodipodi:guide
       position="38,271.29084"
       orientation="0,1"
       id="guide430"
       inkscape:locked="false" /><sodipodi:guide
       position="30,45.262979"
       orientation="0,1"
       id="guide432"
       inkscape:locked="false" /></sodipodi:namedview><g
     id="g10"
     inkscape:groupmode="layer"
     inkscape:label="ink_ext_XXXXXX"
     transform="matrix(1.3333333,0,0,-1.3333333,0,269.39998)"><g
       id="g292"
       transform="translate(-1.0444223,0.06649964)"><text
         y="-1.6600512"
         x="102.33038"
         id="text24"
         style="font-variant:normal;font-weight:bold;font-size:8px;font-family:Arial;-inkscape-font-specification:Arial-BoldMT;writing-mode:lr-tb;fill:#3f60b6;fill-opacity:1;fill-rule:nonzero;stroke:none"
         transform="scale(1,-1)"><tspan
           style="font-style:normal;font-variant:normal;font-weight:bold;font-stretch:normal;font-family:sans-serif;-inkscape-font-specification:'sans-serif Bold'"
           y="-1.6600512"
           x="102.33038"
           id="tspan22"
           sodipodi:role="line">Ilość (tys. ryb)</tspan></text>
<text
         y="7.1226201"
         x="58.37862"
         id="text28"
         style="font-variant:normal;font-weight:bold;font-size:8px;font-family:Arial;-inkscape-font-specification:Arial-BoldMT;writing-mode:lr-tb;fill:#3f60b6;fill-opacity:1;fill-rule:nonzero;stroke:none"
         transform="matrix(0,1,1,0,0,0)"><tspan
           style="font-style:normal;font-variant:normal;font-weight:bold;font-stretch:normal;font-family:sans-serif;-inkscape-font-specification:'sans-serif Bold'"
           y="7.1226201"
           x="58.37862"
           id="tspan26"
           sodipodi:role="line">Cena rynkowa (dol./funt)</tspan></text>
<path
         d="m 40.452625,29.526051 v -3.564"
         style="fill:none;stroke:#3f60b6;stroke-width:0.5;stroke-linecap:butt;stroke-linejoin:miter;stroke-miterlimit:4;stroke-dasharray:none;stroke-opacity:1"
         id="path30"
         inkscape:connector-curvature="0" /><path
         d="m 116.14112,29.526051 v -3.564"
         style="fill:none;stroke:#3f60b6;stroke-width:0.5;stroke-linecap:butt;stroke-linejoin:miter;stroke-miterlimit:4;stroke-dasharray:none;stroke-opacity:1"
         id="path32"
         inkscape:connector-curvature="0" /><path
         d="m 191.77712,29.526051 v -3.564"
         style="fill:none;stroke:#3f60b6;stroke-width:0.5;stroke-linecap:butt;stroke-linejoin:miter;stroke-miterlimit:4;stroke-dasharray:none;stroke-opacity:1"
         id="path34"
         inkscape:connector-curvature="0" /><path
         d="m 153.95812,29.526051 v -3.564"
         style="fill:none;stroke:#3f60b6;stroke-width:0.5;stroke-linecap:butt;stroke-linejoin:miter;stroke-miterlimit:4;stroke-dasharray:none;stroke-opacity:1"
         id="path36"
         inkscape:connector-curvature="0" /><path
         d="m 78.322625,29.526051 v -3.564"
         style="fill:none;stroke:#3f60b6;stroke-width:0.5;stroke-linecap:butt;stroke-linejoin:miter;stroke-miterlimit:4;stroke-dasharray:none;stroke-opacity:1"
         id="path38"
         inkscape:connector-curvature="0" /><path
         d="m 229.58312,29.526051 v -3.564"
         style="fill:none;stroke:#3f60b6;stroke-width:0.5;stroke-linecap:butt;stroke-linejoin:miter;stroke-miterlimit:4;stroke-dasharray:none;stroke-opacity:1"
         id="path40"
         inkscape:connector-curvature="0" /><path
         d="m 36.776925,29.544851 h 3.7558"
         style="fill:none;stroke:#3f60b6;stroke-width:0.5;stroke-linecap:butt;stroke-linejoin:miter;stroke-miterlimit:4;stroke-dasharray:none;stroke-opacity:1"
         id="path42"
         inkscape:connector-curvature="0" /><path
         d="m 36.776925,71.910051 h 3.7558"
         style="fill:none;stroke:#3f60b6;stroke-width:0.5;stroke-linecap:butt;stroke-linejoin:miter;stroke-miterlimit:4;stroke-dasharray:none;stroke-opacity:1"
         id="path50"
         inkscape:connector-curvature="0" /><path
         d="m 36.776925,50.719051 h 3.7558"
         style="fill:none;stroke:#3f60b6;stroke-width:0.5;stroke-linecap:butt;stroke-linejoin:miter;stroke-miterlimit:4;stroke-dasharray:none;stroke-opacity:1"
         id="path58"
         inkscape:connector-curvature="0" /><path
         d="m 36.776925,199.05095 h 3.7558"
         style="fill:none;stroke:#3f60b6;stroke-width:0.5;stroke-linecap:butt;stroke-linejoin:miter;stroke-miterlimit:4;stroke-dasharray:none;stroke-opacity:1"
         id="path66"
         inkscape:connector-curvature="0" /><path
         d="m 36.776925,177.86095 h 3.7558"
         style="fill:none;stroke:#3f60b6;stroke-width:0.5;stroke-linecap:butt;stroke-linejoin:miter;stroke-miterlimit:4;stroke-dasharray:none;stroke-opacity:1"
         id="path74"
         inkscape:connector-curvature="0" /><path
         d="m 36.776925,156.67095 h 3.7558"
         style="fill:none;stroke:#3f60b6;stroke-width:0.5;stroke-linecap:butt;stroke-linejoin:miter;stroke-miterlimit:4;stroke-dasharray:none;stroke-opacity:1"
         id="path82"
         inkscape:connector-curvature="0" /><text
         y="-184.32845"
         x="171.47296"
         id="text126"
         style="font-variant:normal;font-weight:normal;font-size:8px;font-family:ArialMT;-inkscape-font-specification:ArialMT;writing-mode:lr-tb;fill:#3f60b6;fill-opacity:1;fill-rule:nonzero;stroke:none"
         transform="scale(1,-1)"><tspan
           id="tspan124"
           y="-184.32845"
           x="171.47296">S<tspan
   id="tspan259"
   style="font-size:64.99999762%;baseline-shift:sub">1</tspan></tspan></text>
<path
         d="m 36.776925,135.21195 h 3.7558"
         style="fill:none;stroke:#3f60b6;stroke-width:0.5;stroke-linecap:butt;stroke-linejoin:miter;stroke-miterlimit:4;stroke-dasharray:none;stroke-opacity:1"
         id="path132"
         inkscape:connector-curvature="0" /><path
         d="m 36.776925,114.28995 h 3.7558"
         style="fill:none;stroke:#3f60b6;stroke-width:0.5;stroke-linecap:butt;stroke-linejoin:miter;stroke-miterlimit:4;stroke-dasharray:none;stroke-opacity:1"
         id="path140"
         inkscape:connector-curvature="0" /><path
         d="m 36.776925,93.099151 h 3.7558"
         style="fill:none;stroke:#3f60b6;stroke-width:0.5;stroke-linecap:butt;stroke-linejoin:miter;stroke-miterlimit:4;stroke-dasharray:none;stroke-opacity:1"
         id="path148"
         inkscape:connector-curvature="0" /><path
         d="m 77.780025,178.47495 c 0,0 20.5535,-31.173 120.927095,-63.718"
         style="fill:none;stroke:#3f60b6;stroke-width:0.5;stroke-linecap:butt;stroke-linejoin:miter;stroke-miterlimit:4;stroke-dasharray:none;stroke-opacity:1"
         id="path150"
         inkscape:connector-curvature="0" /><path
         d="m 174.38412,178.47495 c 0,0 -16.1,-42.479 -58.579,-64.061"
         style="fill:none;stroke:#3f60b6;stroke-width:0.5;stroke-linecap:butt;stroke-linejoin:miter;stroke-miterlimit:4;stroke-dasharray:none;stroke-opacity:1"
         id="path152"
         inkscape:connector-curvature="0" /><path
         d="m 91.140125,178.13195 c 0,0 -7.5371,-33.572 -36.3125,-63.375"
         style="fill:none;stroke:#3f60b6;stroke-width:0.5;stroke-linecap:butt;stroke-linejoin:miter;stroke-miterlimit:4;stroke-dasharray:none;stroke-opacity:1"
         id="path154"
         inkscape:connector-curvature="0" /><path
         d="m 170.64812,169.26095 c 0.777,-0.777 0.777,-2.05 0,-2.828 -0.778,-0.778 -2.051,-0.778 -2.828,0 -0.779,0.778 -0.779,2.051 0,2.828 0.777,0.778 2.05,0.778 2.828,0"
         style="fill:#3f60b6;fill-opacity:1;fill-rule:nonzero;stroke:none;stroke-width:0.1"
         id="path156"
         inkscape:connector-curvature="0" /><path
         d="m 85.778825,159.52995 c 0.7777,-0.778 0.7777,-2.05 0,-2.828 -0.7777,-0.778 -2.0504,-0.778 -2.8281,0 -0.7778,0.778 -0.7778,2.05 0,2.828 0.7777,0.778 2.0504,0.778 2.8281,0"
         style="fill:#3f60b6;fill-opacity:1;fill-rule:nonzero;stroke:none;stroke-width:0.1"
         id="path158"
         inkscape:connector-curvature="0" /><path
         d="m 103.61312,159.52995 c 0.778,-0.778 0.778,-2.05 0,-2.828 -0.778,-0.778 -2.051,-0.778 -2.828,0 -0.778,0.778 -0.778,2.05 0,2.828 0.777,0.778 2.05,0.778 2.828,0"
         style="fill:#3f60b6;fill-opacity:1;fill-rule:nonzero;stroke:none;stroke-width:0.1"
         id="path160"
         inkscape:connector-curvature="0" /><path
         d="m 164.61312,159.52995 c 0.777,-0.778 0.777,-2.05 0,-2.828 -0.778,-0.778 -2.051,-0.778 -2.828,0 -0.779,0.778 -0.779,2.05 0,2.828 0.777,0.778 2.05,0.778 2.828,0"
         style="fill:#3f60b6;fill-opacity:1;fill-rule:nonzero;stroke:none;stroke-width:0.1"
         id="path162"
         inkscape:connector-curvature="0" /><path
         d="m 80.351925,148.95595 c 0.7781,-0.778 0.7781,-2.05 0,-2.828 -0.7778,-0.778 -2.05,-0.778 -2.8282,0 -0.7777,0.778 -0.7777,2.05 0,2.828 0.7782,0.778 2.0504,0.778 2.8282,0"
         style="fill:#3f60b6;fill-opacity:1;fill-rule:nonzero;stroke:none;stroke-width:0.1"
         id="path164"
         inkscape:connector-curvature="0" /><path
         d="m 120.51912,148.95595 c 0.777,-0.778 0.777,-2.05 0,-2.828 -0.778,-0.778 -2.05,-0.778 -2.828,0 -0.778,0.778 -0.778,2.05 0,2.828 0.778,0.778 2.05,0.778 2.828,0"
         style="fill:#3f60b6;fill-opacity:1;fill-rule:nonzero;stroke:none;stroke-width:0.1"
         id="path166"
         inkscape:connector-curvature="0" /><path
         d="m 157.51812,148.95595 c 0.777,-0.778 0.777,-2.05 0,-2.828 -0.777,-0.778 -2.05,-0.778 -2.827,0 -0.779,0.778 -0.779,2.05 0,2.828 0.777,0.778 2.05,0.778 2.827,0"
         style="fill:#3f60b6;fill-opacity:1;fill-rule:nonzero;stroke:none;stroke-width:0.1"
         id="path168"
         inkscape:connector-curvature="0" /><path
         d="m 66.409725,127.90295 c 0.7777,-0.778 0.7777,-2.05 0,-2.828 -0.7778,-0.778 -2.0504,-0.778 -2.8282,0 -0.7777,0.778 -0.7777,2.05 0,2.828 0.7778,0.778 2.0504,0.778 2.8282,0"
         style="fill:#3f60b6;fill-opacity:1;fill-rule:nonzero;stroke:none;stroke-width:0.1"
         id="path170"
         inkscape:connector-curvature="0" /><path
         d="m 166.74412,127.90295 c 0.777,-0.778 0.777,-2.05 0,-2.828 -0.779,-0.778 -2.051,-0.778 -2.829,0 -0.778,0.778 -0.778,2.05 0,2.828 0.778,0.778 2.05,0.778 2.829,0"
         style="fill:#3f60b6;fill-opacity:1;fill-rule:nonzero;stroke:none;stroke-width:0.1"
         id="path172"
         inkscape:connector-curvature="0" /><path
         d="m 136.24212,127.90295 c 0.778,-0.778 0.778,-2.05 0,-2.828 -0.778,-0.778 -2.05,-0.778 -2.829,0 -0.777,0.778 -0.777,2.05 0,2.828 0.779,0.778 2.051,0.778 2.829,0"
         style="fill:#3f60b6;fill-opacity:1;fill-rule:nonzero;stroke:none;stroke-width:0.1"
         id="path174"
         inkscape:connector-curvature="0" /><path
         d="m 56.397925,116.29995 c 0.7778,-0.779 0.7778,-2.051 0,-2.829 -0.7777,-0.777 -2.0503,-0.777 -2.8281,0 -0.7777,0.778 -0.7777,2.05 0,2.829 0.7778,0.777 2.0504,0.777 2.8281,0"
         style="fill:#3f60b6;fill-opacity:1;fill-rule:nonzero;stroke:none;stroke-width:0.1"
         id="path176"
         inkscape:connector-curvature="0" /><path
         d="m 199.56412,116.29995 c 0.777,-0.779 0.777,-2.051 0,-2.829 -0.777,-0.777 -2.051,-0.777 -2.828,0 -0.778,0.778 -0.778,2.05 0,2.829 0.777,0.777 2.051,0.777 2.828,0"
         style="fill:#3f60b6;fill-opacity:1;fill-rule:nonzero;stroke:none;stroke-width:0.1"
         id="path178"
         inkscape:connector-curvature="0" /><path
         d="m 117.73112,116.29995 c 0.778,-0.779 0.778,-2.051 0,-2.829 -0.778,-0.777 -2.05,-0.777 -2.828,0 -0.778,0.778 -0.778,2.05 0,2.829 0.778,0.777 2.05,0.777 2.828,0"
         style="fill:#3f60b6;fill-opacity:1;fill-rule:nonzero;stroke:none;stroke-width:0.1"
         id="path180"
         inkscape:connector-curvature="0" /><path
         d="m 92.606125,179.00895 c 0.7778,-0.779 0.7778,-2.051 0,-2.829 -0.7781,-0.777 -2.0503,-0.777 -2.8285,0 -0.7777,0.778 -0.7777,2.05 0,2.829 0.7782,0.777 2.0504,0.777 2.8285,0"
         style="fill:#3f60b6;fill-opacity:1;fill-rule:nonzero;stroke:none;stroke-width:0.1"
         id="path182"
         inkscape:connector-curvature="0" /><path
         d="m 80.106125,179.00895 c 0.7778,-0.779 0.7778,-2.051 0,-2.829 -0.7781,-0.777 -2.0503,-0.777 -2.8285,0 -0.7777,0.778 -0.7777,2.05 0,2.829 0.7782,0.777 2.0504,0.777 2.8285,0"
         style="fill:#3f60b6;fill-opacity:1;fill-rule:nonzero;stroke:none;stroke-width:0.1"
         id="path184"
         inkscape:connector-curvature="0" /><path
         d="m 175.43912,179.00895 c 0.777,-0.779 0.777,-2.051 0,-2.829 -0.778,-0.777 -2.052,-0.777 -2.829,0 -0.778,0.778 -0.778,2.05 0,2.829 0.777,0.777 2.051,0.777 2.829,0"
         style="fill:#3f60b6;fill-opacity:1;fill-rule:nonzero;stroke:none;stroke-width:0.1"
         id="path186"
         inkscape:connector-curvature="0" /><path
         d="M 40.043625,135.21195 H 144.76612 V 29.544851"
         style="fill:none;stroke:#b33aa3;stroke-width:0.5;stroke-linecap:butt;stroke-linejoin:miter;stroke-miterlimit:4;stroke-dasharray:3, 2;stroke-dashoffset:0;stroke-opacity:1"
         id="path188"
         inkscape:connector-curvature="0" /><path
         d="M 87.733925,29.544851 V 167.84695 h -47.3574"
         style="fill:none;stroke:#b33aa3;stroke-width:0.5;stroke-linecap:butt;stroke-linejoin:miter;stroke-miterlimit:4;stroke-dasharray:3, 2;stroke-dashoffset:0;stroke-opacity:1"
         id="path190"
         inkscape:connector-curvature="0" /><path
         d="M 229.83312,29.560851 H 40.452625 V 199.29795"
         style="fill:none;stroke:#3f60b6;stroke-width:0.5;stroke-linecap:butt;stroke-linejoin:miter;stroke-miterlimit:4;stroke-dasharray:none;stroke-opacity:1"
         id="path192"
         inkscape:connector-curvature="0" /><path
         d="m 89.147925,169.26095 c 0.7778,-0.777 0.7778,-2.05 0,-2.828 -0.7777,-0.778 -2.0503,-0.778 -2.8281,0 -0.7777,0.778 -0.7777,2.051 0,2.828 0.7778,0.778 2.0504,0.778 2.8281,0"
         style="fill:#3f60b6;fill-opacity:1;fill-rule:nonzero;stroke:none;stroke-width:0.1"
         id="path194"
         inkscape:connector-curvature="0" /><path
         d="m 72.679225,136.69795 c 0.7777,-0.778 0.7777,-2.05 0,-2.828 -0.7777,-0.778 -2.0504,-0.778 -2.8281,0 -0.7778,0.778 -0.7778,2.05 0,2.828 0.7777,0.778 2.0504,0.778 2.8281,0"
         style="fill:#3f60b6;fill-opacity:1;fill-rule:nonzero;stroke:none;stroke-width:0.1"
         id="path196"
         inkscape:connector-curvature="0" /><path
         d="m 146.17912,136.69795 c 0.778,-0.778 0.778,-2.05 0,-2.828 -0.777,-0.778 -2.05,-0.778 -2.828,0 -0.777,0.778 -0.777,2.05 0,2.828 0.778,0.778 2.051,0.778 2.828,0"
         style="fill:#3f60b6;fill-opacity:1;fill-rule:nonzero;stroke:none;stroke-width:0.1"
         id="path198"
         inkscape:connector-curvature="0" /><path
         d="m 71.709725,121.21195 h 27.6664"
         style="fill:none;stroke:#231f20;stroke-width:0.5;stroke-linecap:butt;stroke-linejoin:miter;stroke-miterlimit:4;stroke-dasharray:none;stroke-opacity:1"
         id="path200"
         inkscape:connector-curvature="0" /><path
         d="m 100.55812,121.72395 c -0.826995,0.249 -1.363995,0.48 -2.027295,0.745 v -2.521 c 0.2375,0.112 1.2003,0.496 2.027295,0.746 0.885,0.267 1.687,0.449 2.207,0.515 -0.52,0.065 -1.322,0.248 -2.207,0.515"
         style="fill:#231f20;fill-opacity:1;fill-rule:nonzero;stroke:none;stroke-width:0.1"
         id="path202"
         inkscape:connector-curvature="0" /><path
         d="m 114.80312,192.94195 -21.813695,-21.653"
         style="fill:none;stroke:#231f20;stroke-width:0.5;stroke-linecap:butt;stroke-linejoin:miter;stroke-miterlimit:4;stroke-dasharray:none;stroke-opacity:1"
         id="path204"
         inkscape:connector-curvature="0" /><path
         d="m 92.515925,170.09095 c 0.7613,0.409 1.3039,0.626 1.9606,0.907 l -1.7829,1.783 c -0.0882,-0.247 -0.4976,-1.199 -0.9058,-1.961 -0.4371,-0.815 -0.875,-1.51 -1.1969,-1.925 0.4145,0.322 1.1102,0.76 1.925,1.196"
         style="fill:#231f20;fill-opacity:1;fill-rule:nonzero;stroke:none;stroke-width:0.1"
         id="path206"
         inkscape:connector-curvature="0" /><g
         transform="translate(41.215351,-1.3520488)"
         id="g470"><text
   y="-28.009726"
   x="-25.266623"
   transform="scale(1,-1)"
   style="font-variant:normal;font-weight:normal;font-size:8px;font-family:ArialMT;-inkscape-font-specification:ArialMT;writing-mode:lr-tb;fill:#3f60b6;fill-opacity:1;fill-rule:nonzero;stroke:none"
   id="text56-6"><tspan
     style="font-style:normal;font-variant:normal;font-weight:normal;font-stretch:normal;font-family:sans-serif;-inkscape-font-specification:sans-serif"
     y="-28.009726"
     x="-25.266623"
     sodipodi:role="line"
     id="tspan54-7">0,00</tspan></text>





<text
   transform="scale(1,-1)"
   y="-49.199837"
   x="-25.266621"
   style="font-variant:normal;font-weight:normal;font-size:7.99999952px;font-family:ArialMT;-inkscape-font-specification:ArialMT;writing-mode:lr-tb;fill:#3f60b6;fill-opacity:1;fill-rule:nonzero;stroke:none;stroke-width:0.99999994"
   id="text56-6-5"><tspan
     y="-49.199837"
     x="-25.266621"
     sodipodi:role="line"
     id="tspan54-7-3"
     style="font-style:normal;font-variant:normal;font-weight:normal;font-stretch:normal;font-family:sans-serif;-inkscape-font-specification:sans-serif;stroke-width:0.99999994">0,50</tspan></text>





<text
   transform="scale(1,-1)"
   y="-70.389946"
   x="-25.266621"
   style="font-variant:normal;font-weight:normal;font-size:7.99999952px;font-family:ArialMT;-inkscape-font-specification:ArialMT;writing-mode:lr-tb;fill:#3f60b6;fill-opacity:1;fill-rule:nonzero;stroke:none;stroke-width:0.99999994"
   id="text56-6-56"><tspan
     y="-70.389946"
     x="-25.266621"
     sodipodi:role="line"
     id="tspan54-7-2"
     style="font-style:normal;font-variant:normal;font-weight:normal;font-stretch:normal;font-family:sans-serif;-inkscape-font-specification:sans-serif;stroke-width:0.99999994">1,00</tspan></text>





<text
   transform="scale(1,-1)"
   y="-91.580055"
   x="-25.266621"
   style="font-variant:normal;font-weight:normal;font-size:7.99999952px;font-family:ArialMT;-inkscape-font-specification:ArialMT;writing-mode:lr-tb;fill:#3f60b6;fill-opacity:1;fill-rule:nonzero;stroke:none;stroke-width:0.99999994"
   id="text56-6-9"><tspan
     y="-91.580055"
     x="-25.266621"
     sodipodi:role="line"
     id="tspan54-7-1"
     style="font-style:normal;font-variant:normal;font-weight:normal;font-stretch:normal;font-family:sans-serif;-inkscape-font-specification:sans-serif;stroke-width:0.99999994">1,50</tspan></text>





<text
   transform="scale(1,-1)"
   y="-112.77017"
   x="-25.266621"
   style="font-variant:normal;font-weight:normal;font-size:7.99999952px;font-family:ArialMT;-inkscape-font-specification:ArialMT;writing-mode:lr-tb;fill:#3f60b6;fill-opacity:1;fill-rule:nonzero;stroke:none;stroke-width:0.99999994"
   id="text56-6-2"><tspan
     y="-112.77017"
     x="-25.266621"
     sodipodi:role="line"
     id="tspan54-7-7"
     style="font-style:normal;font-variant:normal;font-weight:normal;font-stretch:normal;font-family:sans-serif;-inkscape-font-specification:sans-serif;stroke-width:0.99999994">2,00</tspan></text>





<text
   transform="scale(1,-1)"
   y="-133.9603"
   x="-25.266621"
   style="font-variant:normal;font-weight:normal;font-size:7.99999952px;font-family:ArialMT;-inkscape-font-specification:ArialMT;writing-mode:lr-tb;fill:#3f60b6;fill-opacity:1;fill-rule:nonzero;stroke:none;stroke-width:0.99999994"
   id="text56-6-0"><tspan
     y="-133.9603"
     x="-25.266621"
     sodipodi:role="line"
     id="tspan54-7-9"
     style="font-style:normal;font-variant:normal;font-weight:normal;font-stretch:normal;font-family:sans-serif;-inkscape-font-specification:sans-serif;stroke-width:0.99999994">2,50</tspan></text>





<text
   transform="scale(1,-1)"
   y="-155.15039"
   x="-25.266621"
   style="font-variant:normal;font-weight:normal;font-size:7.99999952px;font-family:ArialMT;-inkscape-font-specification:ArialMT;writing-mode:lr-tb;fill:#3f60b6;fill-opacity:1;fill-rule:nonzero;stroke:none;stroke-width:0.99999994"
   id="text56-6-3"><tspan
     y="-155.15039"
     x="-25.266621"
     sodipodi:role="line"
     id="tspan54-7-6"
     style="font-style:normal;font-variant:normal;font-weight:normal;font-stretch:normal;font-family:sans-serif;-inkscape-font-specification:sans-serif;stroke-width:0.99999994">3,00</tspan></text>





<text
   transform="scale(1,-1)"
   y="-176.34052"
   x="-25.266621"
   style="font-variant:normal;font-weight:normal;font-size:7.99999952px;font-family:ArialMT;-inkscape-font-specification:ArialMT;writing-mode:lr-tb;fill:#3f60b6;fill-opacity:1;fill-rule:nonzero;stroke:none;stroke-width:0.99999994"
   id="text56-6-06"><tspan
     y="-176.34052"
     x="-25.266621"
     sodipodi:role="line"
     id="tspan54-7-26"
     style="font-style:normal;font-variant:normal;font-weight:normal;font-stretch:normal;font-family:sans-serif;-inkscape-font-specification:sans-serif;stroke-width:0.99999994">3,50</tspan></text>





<text
   transform="scale(1,-1)"
   y="-197.39804"
   x="-25.266621"
   style="font-variant:normal;font-weight:normal;font-size:7.99999952px;font-family:ArialMT;-inkscape-font-specification:ArialMT;writing-mode:lr-tb;fill:#3f60b6;fill-opacity:1;fill-rule:nonzero;stroke:none;stroke-width:0.99999994"
   id="text56-6-1"><tspan
     y="-197.39804"
     x="-25.266621"
     sodipodi:role="line"
     id="tspan54-7-8"
     style="font-style:normal;font-variant:normal;font-weight:normal;font-stretch:normal;font-family:sans-serif;-inkscape-font-specification:sans-serif;stroke-width:0.99999994">4,00</tspan></text>





</g><text
         id="text56-6-92"
         style="font-variant:normal;font-weight:normal;font-size:8px;font-family:ArialMT;-inkscape-font-specification:ArialMT;writing-mode:lr-tb;fill:#3f60b6;fill-opacity:1;fill-rule:nonzero;stroke:none"
         transform="scale(1,-1)"
         x="37.909657"
         y="-15.658852"><tspan
           style="font-style:normal;font-variant:normal;font-weight:normal;font-stretch:normal;font-family:sans-serif;-inkscape-font-specification:sans-serif"
           id="tspan54-7-0"
           sodipodi:role="line"
           x="37.909657"
           y="-15.658852">0</tspan></text>
<text
         id="text56-6-5-2"
         style="font-variant:normal;font-weight:normal;font-size:7.99999952px;font-family:ArialMT;-inkscape-font-specification:ArialMT;writing-mode:lr-tb;fill:#3f60b6;fill-opacity:1;fill-rule:nonzero;stroke:none;stroke-width:0.99999994"
         x="70.660522"
         y="-15.658852"
         transform="scale(1,-1)"><tspan
           style="font-style:normal;font-variant:normal;font-weight:normal;font-stretch:normal;font-family:sans-serif;-inkscape-font-specification:sans-serif;stroke-width:0.99999994"
           id="tspan54-7-3-3"
           sodipodi:role="line"
           x="70.660522"
           y="-15.658852">200</tspan></text>
<text
         id="text56-6-56-7"
         style="font-variant:normal;font-weight:normal;font-size:7.99999952px;font-family:ArialMT;-inkscape-font-specification:ArialMT;writing-mode:lr-tb;fill:#3f60b6;fill-opacity:1;fill-rule:nonzero;stroke:none;stroke-width:0.99999994"
         x="108.57668"
         y="-15.658852"
         transform="scale(1,-1)"><tspan
           style="font-style:normal;font-variant:normal;font-weight:normal;font-stretch:normal;font-family:sans-serif;-inkscape-font-specification:sans-serif;stroke-width:0.99999994"
           id="tspan54-7-2-5"
           sodipodi:role="line"
           x="108.57668"
           y="-15.658852">400</tspan></text>
<text
         id="text56-6-9-9"
         style="font-variant:normal;font-weight:normal;font-size:7.99999952px;font-family:ArialMT;-inkscape-font-specification:ArialMT;writing-mode:lr-tb;fill:#3f60b6;fill-opacity:1;fill-rule:nonzero;stroke:none;stroke-width:0.99999994"
         x="146.30968"
         y="-15.658852"
         transform="scale(1,-1)"><tspan
           style="font-style:normal;font-variant:normal;font-weight:normal;font-stretch:normal;font-family:sans-serif;-inkscape-font-specification:sans-serif;stroke-width:0.99999994"
           id="tspan54-7-1-2"
           sodipodi:role="line"
           x="146.30968"
           y="-15.658852">600</tspan></text>
<text
         id="text56-6-2-2"
         style="font-variant:normal;font-weight:normal;font-size:7.99999952px;font-family:ArialMT;-inkscape-font-specification:ArialMT;writing-mode:lr-tb;fill:#3f60b6;fill-opacity:1;fill-rule:nonzero;stroke:none;stroke-width:0.99999994"
         x="184.13649"
         y="-15.658852"
         transform="scale(1,-1)"><tspan
           style="font-style:normal;font-variant:normal;font-weight:normal;font-stretch:normal;font-family:sans-serif;-inkscape-font-specification:sans-serif;stroke-width:0.99999994"
           id="tspan54-7-7-8"
           sodipodi:role="line"
           x="184.13649"
           y="-15.658852">800</tspan></text>
<text
         id="text56-6-0-9"
         style="font-variant:normal;font-weight:normal;font-size:7.99999952px;font-family:ArialMT;-inkscape-font-specification:ArialMT;writing-mode:lr-tb;fill:#3f60b6;fill-opacity:1;fill-rule:nonzero;stroke:none;stroke-width:0.99999994"
         x="217.69249"
         y="-15.658852"
         transform="scale(1,-1)"><tspan
           style="font-style:normal;font-variant:normal;font-weight:normal;font-stretch:normal;font-family:sans-serif;-inkscape-font-specification:sans-serif;stroke-width:0.99999994"
           id="tspan54-7-9-7"
           sodipodi:role="line"
           x="217.69249"
           y="-15.658852">1000 </tspan></text>
<text
         transform="scale(1,-1)"
         y="-184.32845"
         x="89.172928"
         id="text98-1"
         style="font-variant:normal;font-weight:normal;font-size:7.99999952px;font-family:ArialMT;-inkscape-font-specification:ArialMT;writing-mode:lr-tb;fill:#3f60b6;fill-opacity:1;fill-rule:nonzero;stroke:none;stroke-width:0.99999994"><tspan
           id="tspan96-9"
           y="-184.32845"
           x="89.172928"
           style="font-style:normal;font-variant:normal;font-weight:normal;font-stretch:normal;font-family:sans-serif;-inkscape-font-specification:sans-serif;stroke-width:0.99999994">S<tspan
   id="tspan261"
   style="font-size:64.99999762%;baseline-shift:sub">0</tspan></tspan></text>
<text
         transform="scale(1,-1)"
         y="-171.12535"
         x="173.67282"
         id="text108-9-8"
         style="font-variant:normal;font-weight:normal;font-size:7.99999952px;font-family:ArialMT;-inkscape-font-specification:ArialMT;writing-mode:lr-tb;fill:#3f60b6;fill-opacity:1;fill-rule:nonzero;stroke:none;stroke-width:0.99999994"><tspan
           id="tspan106-8-5"
           y="-110.58434"
           x="202.19902"
           style="font-style:normal;font-variant:normal;font-weight:normal;font-stretch:normal;font-family:sans-serif;-inkscape-font-specification:sans-serif;stroke-width:0.99999994">D<tspan
   id="tspan255"
   style="font-size:64.99999762%;baseline-shift:sub">0</tspan></tspan></text>
<text
         transform="scale(1,-1)"
         y="-194.63193"
         x="116.26246"
         id="text98-3"
         style="font-variant:normal;font-weight:normal;font-size:7.99999952px;font-family:ArialMT;-inkscape-font-specification:ArialMT;writing-mode:lr-tb;fill:#3f60b6;fill-opacity:1;fill-rule:nonzero;stroke:none;stroke-width:0.99999994"><tspan
           style="font-style:normal;font-variant:normal;font-weight:normal;font-stretch:normal;font-family:sans-serif;-inkscape-font-specification:sans-serif;stroke-width:0.99999994"
           id="tspan96-6"
           y="-194.63193"
           x="116.26246">E<tspan
   id="tspan236"
   style="font-size:64.99999762%;baseline-shift:sub">0</tspan>(P =3,25, Q =250) </tspan></text>
<text
         transform="scale(1,-1)"
         y="-135.55489"
         x="153.99762"
         id="text98-3-7"
         style="font-variant:normal;font-weight:normal;font-size:7.99999952px;font-family:ArialMT;-inkscape-font-specification:ArialMT;writing-mode:lr-tb;fill:#3f60b6;fill-opacity:1;fill-rule:nonzero;stroke:none;stroke-width:0.99999994"><tspan
           style="font-style:normal;font-variant:normal;font-weight:normal;font-stretch:normal;font-family:sans-serif;-inkscape-font-specification:sans-serif;stroke-width:0.99999994"
           id="tspan96-6-5"
           y="-135.55489"
           x="153.99762">E<tspan
   id="tspan263"
   style="font-size:64.99999762%;baseline-shift:sub">1</tspan>(P =2,50, Q =550)</tspan></text>
</g></g></svg>