<?xml version="1.0" encoding="UTF-8" standalone="no"?>
<!-- Created with Inkscape (http://www.inkscape.org/) -->

<svg
   xmlns:dc="http://purl.org/dc/elements/1.1/"
   xmlns:cc="http://creativecommons.org/ns#"
   xmlns:rdf="http://www.w3.org/1999/02/22-rdf-syntax-ns#"
   xmlns:svg="http://www.w3.org/2000/svg"
   xmlns="http://www.w3.org/2000/svg"
   xmlns:sodipodi="http://sodipodi.sourceforge.net/DTD/sodipodi-0.dtd"
   xmlns:inkscape="http://www.inkscape.org/namespaces/inkscape"
   version="1.1"
   id="svg2"
   xml:space="preserve"
   width="259.76901"
   height="202.68201"
   viewBox="0 0 259.76901 202.68201"
   sodipodi:docname="CNX_Econ_C03_025.svg"
   inkscape:version="0.92.5 (2060ec1f9f, 2020-04-08)"><metadata
     id="metadata8"><rdf:RDF><cc:Work
         rdf:about=""><dc:format>image/svg+xml</dc:format><dc:type
           rdf:resource="http://purl.org/dc/dcmitype/StillImage" /><dc:title /></cc:Work></rdf:RDF></metadata><defs
     id="defs6">












</defs><sodipodi:namedview
     pagecolor="#ffffff"
     bordercolor="#666666"
     borderopacity="1"
     objecttolerance="10"
     gridtolerance="10"
     guidetolerance="10"
     inkscape:pageopacity="0"
     inkscape:pageshadow="2"
     inkscape:window-width="1848"
     inkscape:window-height="1043"
     id="namedview4"
     showgrid="false"
     inkscape:zoom="3.0402114"
     inkscape:cx="155.03239"
     inkscape:cy="104.11749"
     inkscape:window-x="1438"
     inkscape:window-y="0"
     inkscape:window-maximized="1"
     inkscape:current-layer="g302" /><g
     id="g10"
     inkscape:groupmode="layer"
     inkscape:label="ink_ext_XXXXXX"
     transform="matrix(1.3333333,0,0,-1.3333333,0,202.68199)"><g
       id="g149"><g
         id="g302">























<g
   id="g230"><path
     d="M 84.43906,28.525358 V 85.38965 H 27.57501"
     style="fill:none;stroke:#b33aa3;stroke-width:0.59232646;stroke-linecap:butt;stroke-linejoin:miter;stroke-miterlimit:4;stroke-dasharray:3.55395888, 2.36930592;stroke-dashoffset:0;stroke-opacity:1"
     id="path16-3"
     inkscape:connector-curvature="0" /><path
     d="M 84.43906,86.57335 V 125.6682 H 27.57501"
     style="fill:none;stroke:#b33aa3;stroke-width:0.59232646;stroke-linecap:butt;stroke-linejoin:miter;stroke-miterlimit:4;stroke-dasharray:3.55395888, 2.36930592;stroke-dashoffset:0;stroke-opacity:1"
     id="path18-6"
     inkscape:connector-curvature="0" /><text
     y="-14.095441"
     x="72.614204"
     id="text24-7"
     style="font-variant:normal;font-weight:normal;font-size:8px;font-family:ArialMT;-inkscape-font-specification:ArialMT;writing-mode:lr-tb;fill:#3f60b6;fill-opacity:1;fill-rule:nonzero;stroke:none"
     transform="scale(1,-1)"><tspan
       id="tspan22-5"
       y="-14.095441"
       x="72.614204"
       style="font-style:normal;font-variant:normal;font-weight:normal;font-stretch:normal;font-family:sans-serif;-inkscape-font-specification:sans-serif">Q<tspan
   id="tspan62"
   style="font-size:65%;baseline-shift:sub">0</tspan></tspan></text>
<text
     y="-0.81836134"
     x="70.771049"
     id="text32-6"
     style="font-variant:normal;font-weight:bold;font-size:8px;font-family:Arial;-inkscape-font-specification:Arial-BoldMT;writing-mode:lr-tb;fill:#3f60b6;fill-opacity:1;fill-rule:nonzero;stroke:none"
     transform="scale(1,-1)"><tspan
       style="font-style:normal;font-variant:normal;font-weight:bold;font-stretch:normal;font-family:sans-serif;-inkscape-font-specification:'sans-serif Bold'"
       y="-0.81836134"
       x="70.771049"
       id="tspan30-2"
       sodipodi:role="line">Ilość oferowana</tspan></text>
<path
     d="M 175.29247,28.506403 H 27.59266 V 152.01133"
     style="fill:none;stroke:#3f60b6;stroke-width:0.59232646;stroke-linecap:butt;stroke-linejoin:miter;stroke-miterlimit:4;stroke-dasharray:none;stroke-opacity:1"
     id="path34-9"
     inkscape:connector-curvature="0" /><text
     y="-77.055145"
     x="12.028498"
     id="text40-1"
     style="font-variant:normal;font-weight:normal;font-size:8px;font-family:ArialMT;-inkscape-font-specification:ArialMT;writing-mode:lr-tb;fill:#3f60b6;fill-opacity:1;fill-rule:nonzero;stroke:none"
     transform="scale(1,-1)"><tspan
       id="tspan38-2"
       y="-77.055145"
       x="12.028498"
       style="font-style:normal;font-variant:normal;font-weight:normal;font-stretch:normal;font-family:sans-serif;-inkscape-font-specification:sans-serif">P<tspan
   id="tspan58"
   style="font-size:65%;baseline-shift:sub">0</tspan></tspan></text>
<text
     y="-110.05517"
     x="12.028498"
     id="text48-9"
     style="font-variant:normal;font-weight:normal;font-size:8px;font-family:ArialMT;-inkscape-font-specification:ArialMT;writing-mode:lr-tb;fill:#3f60b6;fill-opacity:1;fill-rule:nonzero;stroke:none"
     transform="scale(1,-1)"><tspan
       id="tspan46-3"
       y="-110.05517"
       x="12.028498"
       style="font-style:normal;font-variant:normal;font-weight:normal;font-stretch:normal;font-family:sans-serif;-inkscape-font-specification:sans-serif">P<tspan
   id="tspan60"
   style="font-size:65%;baseline-shift:sub">1</tspan></tspan></text>
<text
     y="-66.935944"
     x="99.087929"
     id="text68"
     style="font-variant:normal;font-weight:normal;font-size:9.12276173px;font-family:ArialMT;-inkscape-font-specification:ArialMT;writing-mode:lr-tb;fill:#3f60b6;fill-opacity:1;fill-rule:nonzero;stroke:none;stroke-width:1.14034522"
     transform="scale(1,-1)"><tspan
       style="font-style:normal;font-variant:normal;font-weight:normal;font-stretch:normal;font-size:6.84207106px;font-family:sans-serif;-inkscape-font-specification:sans-serif;stroke-width:1.14034522"
       y="-66.935944"
       x="99.087929"
       id="tspan66"
       sodipodi:role="line">Oczekiwany zysk</tspan><tspan
       style="font-style:normal;font-variant:normal;font-weight:normal;font-stretch:normal;font-size:6.84207106px;font-family:sans-serif;-inkscape-font-specification:sans-serif;stroke-width:1.14034522"
       id="tspan241"
       y="-55.53249"
       x="99.087929"
       sodipodi:role="line">+</tspan><tspan
       style="font-style:normal;font-variant:normal;font-weight:normal;font-stretch:normal;font-size:6.84207106px;font-family:sans-serif;-inkscape-font-specification:sans-serif;stroke-width:1.14034522"
       id="tspan243"
       y="-44.12904"
       x="99.087929"
       sodipodi:role="line">Jednostkowy koszt produkcji</tspan></text>
<text
     y="6.0792875"
     x="80.140083"
     id="text72"
     style="font-variant:normal;font-weight:bold;font-size:8px;font-family:Arial;-inkscape-font-specification:Arial-BoldMT;writing-mode:lr-tb;fill:#3f60b6;fill-opacity:1;fill-rule:nonzero;stroke:none"
     transform="matrix(0,1,1,0,0,0)"><tspan
       style="font-style:normal;font-variant:normal;font-weight:bold;font-stretch:normal;font-family:sans-serif;-inkscape-font-specification:'sans-serif Bold'"
       y="6.0792875"
       x="80.140083"
       id="tspan70"
       sodipodi:role="line">Cena</tspan></text>
<path
     d="M 100.61067,101.41387 70.15433,70.956592"
     style="fill:none;stroke:#3f60b6;stroke-width:0.59250003;stroke-linecap:butt;stroke-linejoin:miter;stroke-miterlimit:4;stroke-dasharray:none;stroke-opacity:1"
     id="path74"
     inkscape:connector-curvature="0" /><path
     d="m 94.28116,60.603627 c 0,2.156424 0,4.588161 0,7.23515 0,1.823181 1.75684,2.465026 2.29231,2.481729 h 0.001 c 0.0948,-0.0037 0.15637,0 0.15637,0 0,0 -0.0616,0.0032 -0.15637,0 -0.53665,0.01718 -2.29349,0.574794 -2.29349,2.483625 0,2.646041 0,5.078726 0,7.235149 0,2.15548 -2.05774,2.35225 -2.05774,2.35225 h -0.88257 c 0,0 2.05775,-0.19677 2.05775,-2.35225 0,-2.156423 0,-4.990824 0,-7.636864 0,-1.96297 1.56018,-2.08191 1.56018,-2.08191 0,0 -1.56018,-0.119413 -1.56018,-2.081435 0,-2.644619 0,-5.47902 0,-7.635444 0,-2.156423 -2.05775,-2.353194 -2.05775,-2.353194 h 0.88257 c 0,0 2.05774,0.196771 2.05774,2.353194"
     style="fill:#3f60b6;fill-opacity:1;fill-rule:nonzero;stroke:none;stroke-width:0.1184653"
     id="path76"
     inkscape:connector-curvature="0" /><path
     d="m 75.23905,96.143098 c 0,2.15607 0,4.589342 0,7.234672 0,1.82437 -1.75684,2.46764 -2.2923,2.48304 h -10e-4 c -0.0948,-0.004 -0.15637,0 -0.15637,0 0,0 0.0616,0.002 0.15637,0 0.53546,0.0166 2.29349,0.57455 2.29349,2.48303 0,2.64533 0,5.07861 0,7.23467 0,2.15607 2.05774,2.35273 2.05774,2.35273 h 0.88257 c 0,0 -2.05774,-0.19666 -2.05774,-2.35273 0,-2.15606 0,-4.99094 0,-7.63627 0,-1.96178 -1.56019,-2.08143 -1.56019,-2.08143 0,0 1.56019,-0.11847 1.56019,-2.08025 0,-2.64652 0,-5.481392 0,-7.637462 0,-2.15489 2.05774,-2.35154 2.05774,-2.35154 h -0.88257 c 0,0 -2.05774,0.19665 -2.05774,2.35154"
     style="fill:#3f60b6;fill-opacity:1;fill-rule:nonzero;stroke:none;stroke-width:0.1184653"
     id="path78"
     inkscape:connector-curvature="0" /><path
     d="m 75.23905,32.171956 c 0,2.15595 0,19.98865 0,22.635638 0,1.823181 -1.75684,2.466448 -2.2923,2.482678 h -10e-4 c -0.0948,-0.0046 -0.15637,0 -0.15637,0 0,0 0.0616,0.0022 0.15637,0 0.53546,0.01623 2.29349,0.573845 2.29349,2.482677 0,2.644619 0,20.479211 0,22.635641 0,2.15547 2.05774,2.35224 2.05774,2.35224 h 0.88257 c 0,0 -2.05774,-0.19677 -2.05774,-2.35224 0,-2.15643 0,-20.391316 0,-23.038305 0,-1.962022 -1.56019,-2.080013 -1.56019,-2.080013 0,0 1.56019,-0.120361 1.56019,-2.082383 0,-2.64462 0,-20.879983 0,-23.035933 0,-2.156068 2.05774,-2.35272 2.05774,-2.35272 h -0.88257 c 0,0 -2.05774,0.196652 -2.05774,2.35272"
     style="fill:#3f60b6;fill-opacity:1;fill-rule:nonzero;stroke:none;stroke-width:0.1184653"
     id="path80"
     inkscape:connector-curvature="0" /><text
     y="-67.716072"
     x="30.12002"
     id="text90"
     style="font-variant:normal;font-weight:normal;font-size:7.91456652px;font-family:ArialMT;-inkscape-font-specification:ArialMT;writing-mode:lr-tb;fill:#3f60b6;fill-opacity:1;fill-rule:nonzero;stroke:none;stroke-width:0.98932081"
     transform="scale(1,-1)"><tspan
       style="font-style:normal;font-variant:normal;font-weight:normal;font-stretch:normal;font-size:6.84207106px;font-family:sans-serif;-inkscape-font-specification:sans-serif;stroke-width:0.98932081"
       y="-67.716072"
       x="30.12002"
       id="tspan88"
       sodipodi:role="line">Nowy,</tspan><tspan
       style="font-style:normal;font-variant:normal;font-weight:normal;font-stretch:normal;font-size:6.84207106px;font-family:sans-serif;-inkscape-font-specification:sans-serif;stroke-width:0.98932081"
       id="tspan175"
       y="-57.822865"
       x="30.12002"
       sodipodi:role="line">wyższy</tspan><tspan
       style="font-style:normal;font-variant:normal;font-weight:normal;font-stretch:normal;font-size:6.84207106px;font-family:sans-serif;-inkscape-font-specification:sans-serif;stroke-width:0.98932081"
       id="tspan177"
       y="-47.929657"
       x="30.12002"
       sodipodi:role="line">koszt</tspan><tspan
       style="font-style:normal;font-variant:normal;font-weight:normal;font-stretch:normal;font-size:6.84207106px;font-family:sans-serif;-inkscape-font-specification:sans-serif;stroke-width:0.98932081"
       id="tspan179"
       y="-38.036449"
       x="30.12002"
       sodipodi:role="line">jednostkowy</tspan></text>
<path
     d="m 94.28116,34.541262 c 0,2.15595 0,4.588161 0,7.234676 0,1.824129 1.75684,2.467395 2.29231,2.483151 h 0.001 c 0.0948,-0.0051 0.15637,0 0.15637,0 0,0 -0.0616,0.0023 -0.15637,0 -0.53665,0.01623 -2.29349,0.57432 -2.29349,2.482677 0,2.644146 0,5.078726 0,7.23515 0,2.154173 -2.05774,2.350825 -2.05774,2.350825 h -0.88257 c 0,0 2.05775,-0.196652 2.05775,-2.350825 0,-2.156424 0,-4.991299 0,-7.637813 0,-1.961549 1.56018,-2.080014 1.56018,-2.080014 0,0 -1.56018,-0.119887 -1.56018,-2.082857 0,-2.644145 0,-5.47902 0,-7.63497 0,-2.156068 -2.05775,-2.35272 -2.05775,-2.35272 h 0.88257 c 0,0 2.05774,0.196652 2.05774,2.35272"
     style="fill:#3f60b6;fill-opacity:1;fill-rule:nonzero;stroke:none;stroke-width:0.1184653"
     id="path92"
     inkscape:connector-curvature="0" /><path
     d="m 86.11298,127.34212 c 0.92284,-0.92048 0.92284,-2.42854 0,-3.34902 -0.92166,-0.92047 -2.42972,-0.92047 -3.35138,0 -0.92048,0.92048 -0.92048,2.42854 0,3.34902 0.92166,0.92166 2.42972,0.92166 3.35138,0"
     style="fill:#3f60b6;fill-opacity:1;fill-rule:nonzero;stroke:none;stroke-width:0.1184653"
     id="path94"
     inkscape:connector-curvature="0" /><text
     transform="scale(1,-1)"
     y="-104.86696"
     x="102.52058"
     id="text24-5"
     style="font-variant:normal;font-weight:normal;font-size:7.99999952px;font-family:ArialMT;-inkscape-font-specification:ArialMT;writing-mode:lr-tb;fill:#3f60b6;fill-opacity:1;fill-rule:nonzero;stroke:none;stroke-width:0.99999994"><tspan
       id="tspan22-6"
       y="-104.86696"
       x="102.52058"
       style="font-style:normal;font-variant:normal;font-weight:normal;font-stretch:normal;font-family:sans-serif;-inkscape-font-specification:sans-serif;stroke-width:0.99999994">S</tspan></text>
<path
     d="M 97.81967,138.9609 39.68638,80.825836"
     style="fill:none;stroke:#3f60b6;stroke-width:0.59250003;stroke-linecap:butt;stroke-linejoin:miter;stroke-miterlimit:4;stroke-dasharray:none;stroke-opacity:1"
     id="path74-6"
     inkscape:connector-curvature="0" /><text
     transform="scale(1,-1)"
     y="-138.31903"
     x="100.07597"
     id="text24-5-2"
     style="font-variant:normal;font-weight:normal;font-size:7.99999952px;font-family:ArialMT;-inkscape-font-specification:ArialMT;writing-mode:lr-tb;fill:#3f60b6;fill-opacity:1;fill-rule:nonzero;stroke:none;stroke-width:0.99999994"><tspan
       id="tspan22-6-6"
       y="-138.31903"
       x="100.07597"
       style="stroke-width:0.99999994"><tspan
   style="font-style:normal;font-variant:normal;font-weight:normal;font-stretch:normal;font-family:sans-serif;-inkscape-font-specification:sans-serif"
   id="tspan151">S</tspan>'</tspan></text>
<path
     d="m 96.19519,105.3865 v 14.931"
     style="fill:none;stroke:#231f20;stroke-width:0.49999997;stroke-linecap:butt;stroke-linejoin:miter;stroke-miterlimit:4;stroke-dasharray:none;stroke-opacity:1"
     id="path100-1"
     inkscape:connector-curvature="0" /><path
     d="m 95.68319,121.4995 c -0.25,-0.828 -0.48,-1.365 -0.746,-2.027 h 2.522 c -0.111,0.236 -0.496,1.199 -0.745,2.027 -0.267,0.885 -0.45,1.686 -0.515,2.207 -0.066,-0.521 -0.248,-1.322 -0.516,-2.207"
     style="fill:#231f20;fill-opacity:1;fill-rule:nonzero;stroke:none;stroke-width:0.09999999"
     id="path102-8"
     inkscape:connector-curvature="0" /><path
     d="M 89.19519,95.386498 V 110.3175"
     style="fill:none;stroke:#231f20;stroke-width:0.49999997;stroke-linecap:butt;stroke-linejoin:miter;stroke-miterlimit:4;stroke-dasharray:none;stroke-opacity:1"
     id="path104-7"
     inkscape:connector-curvature="0" /><path
     d="m 88.68319,111.4995 c -0.25,-0.828 -0.48,-1.365 -0.746,-2.027 h 2.522 c -0.111,0.236 -0.496,1.199 -0.745,2.027 -0.267,0.885 -0.45,1.686 -0.515,2.207 -0.066,-0.521 -0.248,-1.322 -0.516,-2.207"
     style="fill:#231f20;fill-opacity:1;fill-rule:nonzero;stroke:none;stroke-width:0.09999999"
     id="path106-9"
     inkscape:connector-curvature="0" /><rect
     id="rect251"
     width="8.8527565"
     height="4.9278893"
     x="60.26852"
     y="-109.0677"
     transform="scale(1,-1)"
     style="stroke-width:0.75;fill:#ffffff" /><text
     transform="scale(1,-1)"
     y="-114.5644"
     x="29.217188"
     id="text90-3"
     style="font-variant:normal;font-weight:normal;font-size:7.91456652px;font-family:ArialMT;-inkscape-font-specification:ArialMT;writing-mode:lr-tb;fill:#3f60b6;fill-opacity:1;fill-rule:nonzero;stroke:none;stroke-width:0.98932081"><tspan
       style="font-style:normal;font-variant:normal;font-weight:normal;font-stretch:normal;font-size:6.84207106px;font-family:sans-serif;-inkscape-font-specification:sans-serif;stroke-width:0.98932081"
       id="tspan179-3"
       y="-114.5644"
       x="29.217188"
       sodipodi:role="line">Taki sam</tspan><tspan
       id="tspan217"
       style="font-style:normal;font-variant:normal;font-weight:normal;font-stretch:normal;font-size:6.84207106px;font-family:sans-serif;-inkscape-font-specification:sans-serif;stroke-width:0.98932081"
       y="-104.67119"
       x="29.217188"
       sodipodi:role="line">oczekiwany</tspan><tspan
       id="tspan219"
       style="font-style:normal;font-variant:normal;font-weight:normal;font-stretch:normal;font-size:6.84207106px;font-family:sans-serif;-inkscape-font-specification:sans-serif;stroke-width:0.98932081"
       y="-94.777985"
       x="29.217188"
       sodipodi:role="line">zysk</tspan></text>
</g>

</g></g></g></svg>