<?xml version="1.0" encoding="UTF-8" standalone="no"?>
<!-- Created with Inkscape (http://www.inkscape.org/) -->

<svg
   xmlns:dc="http://purl.org/dc/elements/1.1/"
   xmlns:cc="http://creativecommons.org/ns#"
   xmlns:rdf="http://www.w3.org/1999/02/22-rdf-syntax-ns#"
   xmlns:svg="http://www.w3.org/2000/svg"
   xmlns="http://www.w3.org/2000/svg"
   xmlns:sodipodi="http://sodipodi.sourceforge.net/DTD/sodipodi-0.dtd"
   xmlns:inkscape="http://www.inkscape.org/namespaces/inkscape"
   version="1.1"
   id="svg2"
   xml:space="preserve"
   width="259.76901"
   height="202.68201"
   viewBox="0 0 259.76901 202.68201"
   sodipodi:docname="CNX_Econ_C03_024.svg"
   inkscape:version="0.92.5 (2060ec1f9f, 2020-04-08)"><metadata
     id="metadata8"><rdf:RDF><cc:Work
         rdf:about=""><dc:format>image/svg+xml</dc:format><dc:type
           rdf:resource="http://purl.org/dc/dcmitype/StillImage" /><dc:title /></cc:Work></rdf:RDF></metadata><defs
     id="defs6">
































</defs><sodipodi:namedview
     pagecolor="#ffffff"
     bordercolor="#666666"
     borderopacity="1"
     objecttolerance="10"
     gridtolerance="10"
     guidetolerance="10"
     inkscape:pageopacity="0"
     inkscape:pageshadow="2"
     inkscape:window-width="1848"
     inkscape:window-height="1043"
     id="namedview4"
     showgrid="false"
     inkscape:zoom="2.0987728"
     inkscape:cx="61.330876"
     inkscape:cy="168.76447"
     inkscape:window-x="1438"
     inkscape:window-y="0"
     inkscape:window-maximized="1"
     inkscape:current-layer="g128" /><g
     id="g10"
     inkscape:groupmode="layer"
     inkscape:label="ink_ext_XXXXXX"
     transform="matrix(1.3333333,0,0,-1.3333333,0,202.68199)"><g
       id="g128"><g
         id="g182"><path
           inkscape:connector-curvature="0"
           id="path16"
           style="fill:none;stroke:#b33aa3;stroke-width:0.59232646;stroke-linecap:butt;stroke-linejoin:miter;stroke-miterlimit:4;stroke-dasharray:3.55395888, 2.36930592;stroke-dashoffset:0;stroke-opacity:1"
           d="M 84.439055,28.525357 V 85.389649 H 27.575007" /><path
           inkscape:connector-curvature="0"
           id="path18"
           style="fill:none;stroke:#b33aa3;stroke-width:0.59232646;stroke-linecap:butt;stroke-linejoin:miter;stroke-miterlimit:4;stroke-dasharray:3.55395888, 2.36930592;stroke-dashoffset:0;stroke-opacity:1"
           d="M 84.439055,86.573349 V 125.6682 H 27.575007" /><text
           transform="scale(1,-1)"
           style="font-variant:normal;font-weight:normal;font-size:8px;font-family:ArialMT;-inkscape-font-specification:ArialMT;writing-mode:lr-tb;fill:#3f60b6;fill-opacity:1;fill-rule:nonzero;stroke:none"
           id="text24"
           x="75.971581"
           y="-14.09544"><tspan
             style="font-style:normal;font-variant:normal;font-weight:normal;font-stretch:normal;font-family:sans-serif;-inkscape-font-specification:sans-serif"
             x="75.971581"
             y="-14.09544"
             id="tspan22">Q<tspan
   id="tspan176"
   style="font-size:64.99999762%;baseline-shift:sub">0</tspan></tspan></text>
<text
           transform="scale(1,-1)"
           style="font-variant:normal;font-weight:bold;font-size:8px;font-family:Arial;-inkscape-font-specification:Arial-BoldMT;writing-mode:lr-tb;fill:#3f60b6;fill-opacity:1;fill-rule:nonzero;stroke:none"
           id="text32"
           x="70.771049"
           y="-0.792983"><tspan
             sodipodi:role="line"
             id="tspan30"
             x="70.771049"
             y="-0.792983"
             style="font-style:normal;font-variant:normal;font-weight:bold;font-stretch:normal;font-family:sans-serif;-inkscape-font-specification:'sans-serif Bold'">Ilość oferowana</tspan></text>
<path
           inkscape:connector-curvature="0"
           id="path34"
           style="fill:none;stroke:#3f60b6;stroke-width:0.59232646;stroke-linecap:butt;stroke-linejoin:miter;stroke-miterlimit:4;stroke-dasharray:none;stroke-opacity:1"
           d="M 175.29246,28.506402 H 27.592658 V 152.01133" /><text
           transform="scale(1,-1)"
           style="font-variant:normal;font-weight:normal;font-size:8px;font-family:ArialMT;-inkscape-font-specification:ArialMT;writing-mode:lr-tb;fill:#3f60b6;fill-opacity:1;fill-rule:nonzero;stroke:none"
           id="text40"
           x="12.028495"
           y="-74.691185"><tspan
             style="font-style:normal;font-variant:normal;font-weight:normal;font-stretch:normal;font-family:sans-serif;-inkscape-font-specification:sans-serif"
             x="12.028495"
             y="-74.691185"
             id="tspan38">P<tspan
   id="tspan173"
   style="font-size:64.99999762%;baseline-shift:sub">0</tspan></tspan></text>
<text
           transform="scale(1,-1)"
           style="font-variant:normal;font-weight:normal;font-size:8px;font-family:ArialMT;-inkscape-font-specification:ArialMT;writing-mode:lr-tb;fill:#3f60b6;fill-opacity:1;fill-rule:nonzero;stroke:none"
           id="text48"
           x="12.028495"
           y="-113.88201"><tspan
             style="font-style:normal;font-variant:normal;font-weight:normal;font-stretch:normal;font-family:sans-serif;-inkscape-font-specification:sans-serif"
             x="12.028495"
             y="-113.88201"
             id="tspan46">P<tspan
   id="tspan171"
   style="font-size:64.99999762%;baseline-shift:sub">1</tspan></tspan></text>
<text
           transform="scale(1,-1)"
           style="font-variant:normal;font-weight:normal;font-size:9.12276173px;font-family:ArialMT;-inkscape-font-specification:ArialMT;writing-mode:lr-tb;fill:#3f60b6;fill-opacity:1;fill-rule:nonzero;stroke:none;stroke-width:1.14034522"
           id="text68"
           x="98.835243"
           y="-66.935944"><tspan
             sodipodi:role="line"
             id="tspan66"
             x="98.835243"
             y="-66.935944"
             style="font-style:normal;font-variant:normal;font-weight:normal;font-stretch:normal;font-size:6.84207106px;font-family:sans-serif;-inkscape-font-specification:sans-serif;stroke-width:1.14034522">Oczekiwany zysk</tspan><tspan
             sodipodi:role="line"
             x="98.835243"
             y="-55.53249"
             id="tspan241"
             style="font-style:normal;font-variant:normal;font-weight:normal;font-stretch:normal;font-size:6.84207106px;font-family:sans-serif;-inkscape-font-specification:sans-serif;stroke-width:1.14034522">            +</tspan><tspan
             sodipodi:role="line"
             x="98.835243"
             y="-44.12904"
             id="tspan243"
             style="font-style:normal;font-variant:normal;font-weight:normal;font-stretch:normal;font-size:6.84207106px;font-family:sans-serif;-inkscape-font-specification:sans-serif;stroke-width:1.14034522">Jednostkowy koszt produkcji</tspan></text>
<text
           transform="matrix(0,1,1,0,0,0)"
           style="font-variant:normal;font-weight:bold;font-size:8px;font-family:Arial;-inkscape-font-specification:Arial-BoldMT;writing-mode:lr-tb;fill:#3f60b6;fill-opacity:1;fill-rule:nonzero;stroke:none"
           id="text72"
           x="80.140083"
           y="7.0153008"><tspan
             sodipodi:role="line"
             id="tspan70"
             x="80.140083"
             y="7.0153008"
             style="font-style:normal;font-variant:normal;font-weight:bold;font-stretch:normal;font-family:sans-serif;-inkscape-font-specification:'sans-serif Bold'">Cena</tspan></text>
<path
           inkscape:connector-curvature="0"
           id="path74"
           style="fill:none;stroke:#3f60b6;stroke-width:0.59232646;stroke-linecap:butt;stroke-linejoin:miter;stroke-miterlimit:4;stroke-dasharray:none;stroke-opacity:1"
           d="M 128.38731,129.19136 70.254025,71.056293" /><path
           inkscape:connector-curvature="0"
           id="path76"
           style="fill:#3f60b6;fill-opacity:1;fill-rule:nonzero;stroke:none;stroke-width:0.1184653"
           d="m 94.281155,60.603626 c 0,2.156424 0,4.588161 0,7.23515 0,1.823181 1.75684,2.465026 2.29231,2.481729 h 0.001 c 0.0948,-0.0037 0.15637,0 0.15637,0 0,0 -0.0616,0.0032 -0.15637,0 -0.53665,0.01718 -2.29349,0.574794 -2.29349,2.483625 0,2.646041 0,5.078726 0,7.235149 0,2.15548 -2.05774,2.35225 -2.05774,2.35225 h -0.88257 c 0,0 2.05775,-0.19677 2.05775,-2.35225 0,-2.156423 0,-4.990824 0,-7.636864 0,-1.96297 1.56018,-2.08191 1.56018,-2.08191 0,0 -1.56018,-0.119413 -1.56018,-2.081435 0,-2.644619 0,-5.47902 0,-7.635444 0,-2.156423 -2.05775,-2.353194 -2.05775,-2.353194 h 0.88257 c 0,0 2.05774,0.196771 2.05774,2.353194" /><path
           inkscape:connector-curvature="0"
           id="path78"
           style="fill:#3f60b6;fill-opacity:1;fill-rule:nonzero;stroke:none;stroke-width:0.1184653"
           d="m 75.239045,96.143099 c 0,2.15607 0,4.589341 0,7.234671 0,1.82437 -1.75684,2.46764 -2.2923,2.48304 h -0.001 c -0.0948,-0.004 -0.15637,0 -0.15637,0 0,0 0.0616,0.002 0.15637,0 0.53546,0.0166 2.29349,0.57455 2.29349,2.48303 0,2.64533 0,5.07861 0,7.23467 0,2.15607 2.05774,2.35273 2.05774,2.35273 h 0.88257 c 0,0 -2.05774,-0.19666 -2.05774,-2.35273 0,-2.15606 0,-4.99094 0,-7.63627 0,-1.96178 -1.56019,-2.08143 -1.56019,-2.08143 0,0 1.56019,-0.11847 1.56019,-2.08025 0,-2.64652 0,-5.481391 0,-7.637461 0,-2.15489 2.05774,-2.35154 2.05774,-2.35154 h -0.88257 c 0,0 -2.05774,0.19665 -2.05774,2.35154" /><path
           inkscape:connector-curvature="0"
           id="path80"
           style="fill:#3f60b6;fill-opacity:1;fill-rule:nonzero;stroke:none;stroke-width:0.1184653"
           d="m 75.239045,32.171955 c 0,2.15595 0,19.98865 0,22.635638 0,1.823181 -1.75684,2.466448 -2.2923,2.482678 h -0.001 c -0.0948,-0.0046 -0.15637,0 -0.15637,0 0,0 0.0616,0.0022 0.15637,0 0.53546,0.01623 2.29349,0.573845 2.29349,2.482677 0,2.644619 0,20.479211 0,22.635641 0,2.15547 2.05774,2.35224 2.05774,2.35224 h 0.88257 c 0,0 -2.05774,-0.19677 -2.05774,-2.35224 0,-2.15643 0,-20.391316 0,-23.038305 0,-1.962022 -1.56019,-2.080013 -1.56019,-2.080013 0,0 1.56019,-0.120361 1.56019,-2.082383 0,-2.64462 0,-20.879983 0,-23.035933 0,-2.156068 2.05774,-2.35272 2.05774,-2.35272 h -0.88257 c 0,0 -2.05774,0.196652 -2.05774,2.35272" /><text
           transform="scale(1,-1)"
           style="font-variant:normal;font-weight:normal;font-size:7.91456652px;font-family:ArialMT;-inkscape-font-specification:ArialMT;writing-mode:lr-tb;fill:#3f60b6;fill-opacity:1;fill-rule:nonzero;stroke:none;stroke-width:0.98932081"
           id="text90"
           x="30.120016"
           y="-67.716072"><tspan
             sodipodi:role="line"
             id="tspan88"
             x="30.120016"
             y="-67.716072"
             style="font-style:normal;font-variant:normal;font-weight:normal;font-stretch:normal;font-size:6.84207106px;font-family:sans-serif;-inkscape-font-specification:sans-serif;stroke-width:0.98932081">Nowy,</tspan><tspan
             sodipodi:role="line"
             x="30.120016"
             y="-57.822865"
             id="tspan175"
             style="font-style:normal;font-variant:normal;font-weight:normal;font-stretch:normal;font-size:6.84207106px;font-family:sans-serif;-inkscape-font-specification:sans-serif;stroke-width:0.98932081">wyższy</tspan><tspan
             sodipodi:role="line"
             x="30.120016"
             y="-47.929657"
             id="tspan177"
             style="font-style:normal;font-variant:normal;font-weight:normal;font-stretch:normal;font-size:6.84207106px;font-family:sans-serif;-inkscape-font-specification:sans-serif;stroke-width:0.98932081">koszt</tspan><tspan
             sodipodi:role="line"
             x="30.120016"
             y="-38.036449"
             id="tspan179"
             style="font-style:normal;font-variant:normal;font-weight:normal;font-stretch:normal;font-size:6.84207106px;font-family:sans-serif;-inkscape-font-specification:sans-serif;stroke-width:0.98932081">jednostkowy</tspan></text>
<path
           inkscape:connector-curvature="0"
           id="path92"
           style="fill:#3f60b6;fill-opacity:1;fill-rule:nonzero;stroke:none;stroke-width:0.1184653"
           d="m 94.281155,34.541261 c 0,2.15595 0,4.588161 0,7.234676 0,1.824129 1.75684,2.467395 2.29231,2.483151 h 0.001 c 0.0948,-0.0051 0.15637,0 0.15637,0 0,0 -0.0616,0.0023 -0.15637,0 -0.53665,0.01623 -2.29349,0.57432 -2.29349,2.482677 0,2.644146 0,5.078726 0,7.23515 0,2.154173 -2.05774,2.350825 -2.05774,2.350825 h -0.88257 c 0,0 2.05775,-0.196652 2.05775,-2.350825 0,-2.156424 0,-4.991299 0,-7.637813 0,-1.961549 1.56018,-2.080014 1.56018,-2.080014 0,0 -1.56018,-0.119887 -1.56018,-2.082857 0,-2.644145 0,-5.47902 0,-7.63497 0,-2.156068 -2.05775,-2.35272 -2.05775,-2.35272 h 0.88257 c 0,0 2.05774,0.196652 2.05774,2.35272" /><path
           inkscape:connector-curvature="0"
           id="path94"
           style="fill:#3f60b6;fill-opacity:1;fill-rule:nonzero;stroke:none;stroke-width:0.1184653"
           d="m 86.112975,127.34212 c 0.92284,-0.92048 0.92284,-2.42854 0,-3.34902 -0.92166,-0.92047 -2.42972,-0.92047 -3.35138,0 -0.92048,0.92048 -0.92048,2.42854 0,3.34902 0.92166,0.92166 2.42972,0.92166 3.35138,0" /><text
           style="font-variant:normal;font-weight:normal;font-size:7.91456652px;font-family:ArialMT;-inkscape-font-specification:ArialMT;writing-mode:lr-tb;fill:#3f60b6;fill-opacity:1;fill-rule:nonzero;stroke:none;stroke-width:0.98932081"
           id="text90-3"
           x="29.217176"
           y="-114.5644"
           transform="scale(1,-1)"><tspan
             sodipodi:role="line"
             x="29.217176"
             y="-114.5644"
             id="tspan179-3"
             style="font-style:normal;font-variant:normal;font-weight:normal;font-stretch:normal;font-size:6.84207106px;font-family:sans-serif;-inkscape-font-specification:sans-serif;stroke-width:0.98932081">Taki sam</tspan><tspan
             sodipodi:role="line"
             x="29.217176"
             y="-104.67119"
             style="font-style:normal;font-variant:normal;font-weight:normal;font-stretch:normal;font-size:6.84207106px;font-family:sans-serif;-inkscape-font-specification:sans-serif;stroke-width:0.98932081"
             id="tspan217">oczekiwany</tspan><tspan
             sodipodi:role="line"
             x="29.217176"
             y="-94.777985"
             style="font-style:normal;font-variant:normal;font-weight:normal;font-stretch:normal;font-size:6.84207106px;font-family:sans-serif;-inkscape-font-specification:sans-serif;stroke-width:0.98932081"
             id="tspan219">zysk</tspan></text>
<text
           style="font-variant:normal;font-weight:normal;font-size:7.99999952px;font-family:ArialMT;-inkscape-font-specification:ArialMT;writing-mode:lr-tb;fill:#3f60b6;fill-opacity:1;fill-rule:nonzero;stroke:none;stroke-width:0.99999994"
           id="text24-5"
           x="130.64362"
           y="-128.54951"
           transform="scale(1,-1)"><tspan
             style="font-style:normal;font-variant:normal;font-weight:normal;font-stretch:normal;font-family:sans-serif;-inkscape-font-specification:sans-serif;stroke-width:0.99999994"
             x="130.64362"
             y="-128.54951"
             id="tspan22-6">S</tspan></text>
</g></g></g></svg>