<?xml version="1.0" encoding="UTF-8" standalone="no"?>
<!-- Created with Inkscape (http://www.inkscape.org/) -->

<svg
   xmlns:dc="http://purl.org/dc/elements/1.1/"
   xmlns:cc="http://creativecommons.org/ns#"
   xmlns:rdf="http://www.w3.org/1999/02/22-rdf-syntax-ns#"
   xmlns:svg="http://www.w3.org/2000/svg"
   xmlns="http://www.w3.org/2000/svg"
   xmlns:sodipodi="http://sodipodi.sourceforge.net/DTD/sodipodi-0.dtd"
   xmlns:inkscape="http://www.inkscape.org/namespaces/inkscape"
   width="114.942mm"
   height="91.836998mm"
   viewBox="0 0 114.942 91.836998"
   version="1.1"
   id="svg8"
   inkscape:version="0.92.5 (2060ec1f9f, 2020-04-08)"
   sodipodi:docname="rys4.svg">
  <defs
     id="defs2">
    <clipPath
       clipPathUnits="userSpaceOnUse"
       id="clipPath3912">
      <rect
         ry="0.65273792"
         y="609.8324"
         x="156.14348"
         height="25.06988"
         width="93.91851"
         id="rect3914"
         style="fill:#3f60b6;fill-opacity:1;stroke:none;stroke-width:0.56499988;stroke-miterlimit:4;stroke-dasharray:none;stroke-opacity:1" />
    </clipPath>
    <clipPath
       clipPathUnits="userSpaceOnUse"
       id="clipPath3860">
      <rect
         style="fill:#3f60b6;fill-opacity:1;stroke:none;stroke-width:0.56499988;stroke-miterlimit:4;stroke-dasharray:none;stroke-opacity:1"
         id="rect3862"
         width="93.91851"
         height="25.06988"
         x="155.84486"
         y="494.285"
         ry="0.65273792" />
    </clipPath>
    <clipPath
       clipPathUnits="userSpaceOnUse"
       id="clipPath3991">
      <rect
         style="opacity:1;fill:#fbc765;fill-opacity:1;stroke:none;stroke-width:0.65820807;stroke-miterlimit:4;stroke-dasharray:none;stroke-opacity:1"
         id="rect3993"
         width="52.345356"
         height="13.844562"
         x="215.91019"
         y="493.22717"
         ry="3.5530102" />
    </clipPath>
    <clipPath
       clipPathUnits="userSpaceOnUse"
       id="clipPath3995">
      <rect
         style="opacity:1;fill:#fbc765;fill-opacity:1;stroke:none;stroke-width:0.65820807;stroke-miterlimit:4;stroke-dasharray:none;stroke-opacity:1"
         id="rect3997"
         width="52.345356"
         height="13.844562"
         x="215.91019"
         y="493.22717"
         ry="3.5530102" />
    </clipPath>
    <clipPath
       clipPathUnits="userSpaceOnUse"
       id="clipPath3999">
      <rect
         style="opacity:1;fill:#fbc765;fill-opacity:1;stroke:none;stroke-width:0.65820807;stroke-miterlimit:4;stroke-dasharray:none;stroke-opacity:1"
         id="rect4001"
         width="52.345356"
         height="13.844562"
         x="215.91019"
         y="493.22717"
         ry="3.5530102" />
    </clipPath>
  </defs>
  <sodipodi:namedview
     id="base"
     pagecolor="#ffffff"
     bordercolor="#666666"
     borderopacity="1.0"
     inkscape:pageopacity="0.0"
     inkscape:pageshadow="2"
     inkscape:zoom="0.5"
     inkscape:cx="970.37402"
     inkscape:cy="365.65782"
     inkscape:document-units="mm"
     inkscape:current-layer="layer1"
     showgrid="false"
     inkscape:window-width="1848"
     inkscape:window-height="1043"
     inkscape:window-x="1438"
     inkscape:window-y="0"
     inkscape:window-maximized="1"
     showguides="true"
     inkscape:guide-bbox="true"
     inkscape:snap-bbox="true"
     inkscape:bbox-paths="true"
     inkscape:bbox-nodes="true"
     inkscape:snap-bbox-edge-midpoints="true"
     inkscape:snap-bbox-midpoints="true"
     inkscape:snap-global="true">
    <sodipodi:guide
       position="12.561668,51.850288"
       orientation="0,1"
       id="guide1659"
       inkscape:locked="false" />
    <sodipodi:guide
       position="593.41371,282.32757"
       orientation="1,0"
       id="guide3946"
       inkscape:locked="false" />
    <sodipodi:guide
       position="812.43206,238.31364"
       orientation="0,1"
       id="guide4422"
       inkscape:locked="false" />
  </sodipodi:namedview>
  <metadata
     id="metadata5">
    <rdf:RDF>
      <cc:Work
         rdf:about="">
        <dc:format>image/svg+xml</dc:format>
        <dc:type
           rdf:resource="http://purl.org/dc/dcmitype/StillImage" />
        <dc:title />
      </cc:Work>
    </rdf:RDF>
  </metadata>
  <g
     inkscape:label="Layer 1"
     inkscape:groupmode="layer"
     id="layer1"
     transform="translate(0,-205.163)">
    <g
       id="g2284">
      <rect
         y="237.74448"
         x="20.038845"
         height="21.671427"
         width="2.2334659"
         id="rect1661-5"
         style="fill:#fbc74b;fill-opacity:0.83529412;stroke:none;stroke-width:0.05094281;stroke-linecap:round;stroke-miterlimit:4;stroke-dasharray:none;stroke-opacity:1" />
      <path
         d="M 34.848418,291.52772 H 109.85306"
         style="fill:none;stroke:#3f60b6;stroke-width:0.176;stroke-linecap:butt;stroke-linejoin:miter;stroke-miterlimit:4;stroke-dasharray:none;stroke-opacity:1"
         id="path388-7"
         inkscape:connector-curvature="0" />
      <path
         d="M 34.848417,278.1346 H 109.85306"
         style="fill:none;stroke:#3f60b6;stroke-width:0.176;stroke-linecap:butt;stroke-linejoin:miter;stroke-miterlimit:4;stroke-dasharray:none;stroke-opacity:1"
         id="path388-7-0"
         inkscape:connector-curvature="0" />
      <path
         d="M 34.848418,264.74148 H 109.85306"
         style="fill:none;stroke:#3f60b6;stroke-width:0.176;stroke-linecap:butt;stroke-linejoin:miter;stroke-miterlimit:4;stroke-dasharray:none;stroke-opacity:1"
         id="path388-7-3"
         inkscape:connector-curvature="0" />
      <path
         d="M 34.848417,251.34836 H 109.85306"
         style="fill:none;stroke:#3f60b6;stroke-width:0.176;stroke-linecap:butt;stroke-linejoin:miter;stroke-miterlimit:4;stroke-dasharray:none;stroke-opacity:1"
         id="path388-7-0-6"
         inkscape:connector-curvature="0" />
      <path
         d="M 34.848418,237.95525 H 109.85306"
         style="fill:none;stroke:#3f60b6;stroke-width:0.176;stroke-linecap:butt;stroke-linejoin:miter;stroke-miterlimit:4;stroke-dasharray:none;stroke-opacity:1"
         id="path388-7-06"
         inkscape:connector-curvature="0" />
      <path
         d="M 34.848417,224.56211 H 109.85306"
         style="fill:none;stroke:#3f60b6;stroke-width:0.176;stroke-linecap:butt;stroke-linejoin:miter;stroke-miterlimit:4;stroke-dasharray:none;stroke-opacity:1"
         id="path388-7-0-2"
         inkscape:connector-curvature="0" />
      <path
         d="M 71.789082,291.61572 V 293.278"
         style="fill:none;stroke:#3f60b6;stroke-width:0.1763889;stroke-linecap:butt;stroke-linejoin:miter;stroke-miterlimit:4;stroke-dasharray:none;stroke-opacity:1"
         id="path376-7"
         inkscape:connector-curvature="0" />
      <path
         d="M 109.76487,291.61572 V 293.278"
         style="fill:none;stroke:#3f60b6;stroke-width:0.1763889;stroke-linecap:butt;stroke-linejoin:miter;stroke-miterlimit:4;stroke-dasharray:none;stroke-opacity:1"
         id="path376-7-9"
         inkscape:connector-curvature="0" />
      <path
         d="M 103.36107,291.61572 V 293.278"
         style="fill:none;stroke:#3f60b6;stroke-width:0.1763889;stroke-linecap:butt;stroke-linejoin:miter;stroke-miterlimit:4;stroke-dasharray:none;stroke-opacity:1"
         id="path376-7-2"
         inkscape:connector-curvature="0" />
      <path
         d="M 90.215412,291.61572 V 293.278"
         style="fill:none;stroke:#3f60b6;stroke-width:0.1763889;stroke-linecap:butt;stroke-linejoin:miter;stroke-miterlimit:4;stroke-dasharray:none;stroke-opacity:1"
         id="path376-7-0"
         inkscape:connector-curvature="0" />
      <path
         d="M 53.362732,291.61572 V 293.278"
         style="fill:none;stroke:#3f60b6;stroke-width:0.1763889;stroke-linecap:butt;stroke-linejoin:miter;stroke-miterlimit:4;stroke-dasharray:none;stroke-opacity:1"
         id="path376-7-23"
         inkscape:connector-curvature="0" />
      <path
         d="M 34.936399,291.61572 V 293.278"
         style="fill:none;stroke:#3f60b6;stroke-width:0.1763889;stroke-linecap:butt;stroke-linejoin:miter;stroke-miterlimit:4;stroke-dasharray:none;stroke-opacity:1"
         id="path376-7-7"
         inkscape:connector-curvature="0" />
      <path
         d="m 10.067353,211.081 v 80.53472"
         style="fill:none;stroke:#3f60b6;stroke-width:0.1760558;stroke-linecap:butt;stroke-linejoin:miter;stroke-miterlimit:4;stroke-dasharray:none;stroke-opacity:1"
         id="path388-7-3-1-9"
         inkscape:connector-curvature="0" />
      <path
         d="m 11.817661,211.16919 h -1.66228"
         style="fill:none;stroke:#3f60b6;stroke-width:0.1763889;stroke-linecap:butt;stroke-linejoin:miter;stroke-miterlimit:4;stroke-dasharray:none;stroke-opacity:1"
         id="path376-7-7-2"
         inkscape:connector-curvature="0" />
      <path
         d="m 11.817661,224.6661 h -1.66228"
         style="fill:none;stroke:#3f60b6;stroke-width:0.1763889;stroke-linecap:butt;stroke-linejoin:miter;stroke-miterlimit:4;stroke-dasharray:none;stroke-opacity:1"
         id="path376-7-7-2-2"
         inkscape:connector-curvature="0" />
      <path
         d="m 11.817661,237.94624 h -1.66228"
         style="fill:none;stroke:#3f60b6;stroke-width:0.1763889;stroke-linecap:butt;stroke-linejoin:miter;stroke-miterlimit:4;stroke-dasharray:none;stroke-opacity:1"
         id="path376-7-7-2-8"
         inkscape:connector-curvature="0" />
      <path
         d="m 11.817661,251.42647 h -1.66228"
         style="fill:none;stroke:#3f60b6;stroke-width:0.1763889;stroke-linecap:butt;stroke-linejoin:miter;stroke-miterlimit:4;stroke-dasharray:none;stroke-opacity:1"
         id="path376-7-7-2-9"
         inkscape:connector-curvature="0" />
      <path
         d="m 11.817661,259.447 h -1.66228"
         style="fill:none;stroke:#3f60b6;stroke-width:0.1763889;stroke-linecap:butt;stroke-linejoin:miter;stroke-miterlimit:4;stroke-dasharray:none;stroke-opacity:1"
         id="path376-7-7-2-7"
         inkscape:connector-curvature="0" />
      <path
         d="m 11.817661,264.87803 h -1.66228"
         style="fill:none;stroke:#3f60b6;stroke-width:0.1763889;stroke-linecap:butt;stroke-linejoin:miter;stroke-miterlimit:4;stroke-dasharray:none;stroke-opacity:1"
         id="path376-7-7-2-3"
         inkscape:connector-curvature="0" />
      <path
         d="m 10.155381,278.4277 h 1.66228"
         style="fill:none;stroke:#3f60b6;stroke-width:0.1763889;stroke-linecap:butt;stroke-linejoin:miter;stroke-miterlimit:4;stroke-dasharray:none;stroke-opacity:1"
         id="path376-7-7-2-6"
         inkscape:connector-curvature="0" />
      <path
         d="m 11.817661,291.52753 h -1.66228"
         style="fill:none;stroke:#3f60b6;stroke-width:0.1763889;stroke-linecap:butt;stroke-linejoin:miter;stroke-miterlimit:4;stroke-dasharray:none;stroke-opacity:1"
         id="path376-7-7-2-1"
         inkscape:connector-curvature="0" />
      <text
         transform="rotate(-90)"
         style="font-variant:normal;font-weight:bold;font-size:2.82222223px;font-family:Arial;-inkscape-font-specification:Arial-BoldMT;text-align:center;writing-mode:lr-tb;text-anchor:middle;fill:#3f60b6;fill-opacity:1;fill-rule:nonzero;stroke:none;stroke-width:0.35277778"
         id="text44-1-2"
         x="-251.39935"
         y="2.2667031">
        <tspan
           id="tspan1426-3"
           y="2.2667031"
           x="-251.39935"
           sodipodi:role="line"
           style="font-style:normal;font-variant:normal;font-weight:bold;font-stretch:normal;font-family:sans-serif;-inkscape-font-specification:'sans-serif Bold';text-align:center;text-anchor:middle;fill:#3f60b6;fill-opacity:1;stroke-width:0.35277778">Odchylanie globalnej średniej temperatury</tspan>
        <tspan
           id="tspan1991"
           y="5.7944818"
           x="-251.39935"
           sodipodi:role="line"
           style="font-style:normal;font-variant:normal;font-weight:bold;font-stretch:normal;font-family:sans-serif;-inkscape-font-specification:'sans-serif Bold';text-align:center;text-anchor:middle;fill:#3f60b6;fill-opacity:1;stroke-width:0.35277778">powierzchni Ziemiod śreniej z lat 1850-1900</tspan>
      </text>
      <text
         style="font-variant:normal;font-weight:normal;font-size:2.82222223px;font-family:ArialMT;-inkscape-font-specification:ArialMT;writing-mode:lr-tb;fill:#3f60b6;fill-opacity:1;fill-rule:nonzero;stroke:none;stroke-width:0.35277778"
         id="text52-8-2-1"
         x="33.92561"
         y="296.92288">
        <tspan
           id="tspan5179-4"
           y="296.92288"
           x="33.92561"
           sodipodi:role="line"
           style="font-style:normal;font-variant:normal;font-weight:normal;font-stretch:normal;font-family:sans-serif;-inkscape-font-specification:sans-serif;stroke-width:0.35277778">1</tspan>
      </text>
      <text
         style="font-variant:normal;font-weight:normal;font-size:2.82222223px;font-family:ArialMT;-inkscape-font-specification:ArialMT;writing-mode:lr-tb;fill:#3f60b6;fill-opacity:1;fill-rule:nonzero;stroke:none;stroke-width:0.35277778"
         id="text52-8-2-1-5"
         x="50.654209"
         y="296.96008">
        <tspan
           id="tspan5179-4-0"
           y="296.96008"
           x="50.654209"
           sodipodi:role="line"
           style="font-style:normal;font-variant:normal;font-weight:normal;font-stretch:normal;font-family:sans-serif;-inkscape-font-specification:sans-serif;stroke-width:0.35277778">500</tspan>
      </text>
      <text
         style="font-variant:normal;font-weight:normal;font-size:2.82222223px;font-family:ArialMT;-inkscape-font-specification:ArialMT;writing-mode:lr-tb;fill:#3f60b6;fill-opacity:1;fill-rule:nonzero;stroke:none;stroke-width:0.35277778"
         id="text52-8-2-1-3"
         x="68.136581"
         y="296.96008">
        <tspan
           id="tspan5179-4-6"
           y="296.96008"
           x="68.136581"
           sodipodi:role="line"
           style="font-style:normal;font-variant:normal;font-weight:normal;font-stretch:normal;font-family:sans-serif;-inkscape-font-specification:sans-serif;stroke-width:0.35277778">1000</tspan>
      </text>
      <text
         style="font-variant:normal;font-weight:normal;font-size:2.82222223px;font-family:ArialMT;-inkscape-font-specification:ArialMT;writing-mode:lr-tb;fill:#3f60b6;fill-opacity:1;fill-rule:nonzero;stroke:none;stroke-width:0.35277778"
         id="text52-8-2-1-1"
         x="86.562927"
         y="296.96008">
        <tspan
           id="tspan5179-4-06"
           y="296.96008"
           x="86.562927"
           sodipodi:role="line"
           style="font-style:normal;font-variant:normal;font-weight:normal;font-stretch:normal;font-family:sans-serif;-inkscape-font-specification:sans-serif;stroke-width:0.35277778">1500</tspan>
      </text>
      <text
         style="font-style:normal;font-variant:normal;font-weight:bold;font-stretch:normal;font-size:2.82222223px;font-family:sans-serif;-inkscape-font-specification:'sans-serif Bold';writing-mode:lr-tb;fill:#3f60b6;fill-opacity:1;fill-rule:nonzero;stroke:none;stroke-width:0.35277778"
         id="text52-8-2-1-32"
         x="98.650238"
         y="296.96008">
        <tspan
           id="tspan5179-4-061"
           y="296.96008"
           x="98.650238"
           sodipodi:role="line"
           style="font-style:normal;font-variant:normal;font-weight:bold;font-stretch:normal;font-family:sans-serif;-inkscape-font-specification:'sans-serif Bold';stroke-width:0.35277778">1850</tspan>
      </text>
      <text
         style="font-style:normal;font-variant:normal;font-weight:bold;font-stretch:normal;font-size:2.82222223px;font-family:sans-serif;-inkscape-font-specification:'sans-serif Bold';writing-mode:lr-tb;fill:#3f60b6;fill-opacity:1;fill-rule:nonzero;stroke:none;stroke-width:0.35277778"
         id="text52-8-2-1-55"
         x="107.2224"
         y="296.96008">
        <tspan
           id="tspan5179-4-4"
           y="296.96008"
           x="107.2224"
           sodipodi:role="line"
           style="font-style:normal;font-variant:normal;font-weight:bold;font-stretch:normal;font-family:sans-serif;-inkscape-font-specification:'sans-serif Bold';stroke-width:0.35277778">2020</tspan>
      </text>
      <text
         style="font-variant:normal;font-weight:normal;font-size:2.82222223px;font-family:ArialMT;-inkscape-font-specification:ArialMT;writing-mode:lr-tb;fill:#3f60b6;fill-opacity:1;fill-rule:nonzero;stroke:none;stroke-width:0.35277778"
         id="text52-8-2-1-5-5"
         x="26.386517"
         y="279.01791">
        <tspan
           id="tspan5179-4-0-69"
           y="279.01791"
           x="26.386517"
           sodipodi:role="line"
           style="font-style:normal;font-variant:normal;font-weight:normal;font-stretch:normal;font-family:sans-serif;-inkscape-font-specification:sans-serif;stroke-width:0.35277778">-0,5</tspan>
      </text>
      <text
         style="font-variant:normal;font-weight:normal;font-size:2.82222223px;font-family:ArialMT;-inkscape-font-specification:ArialMT;writing-mode:lr-tb;fill:#3f60b6;fill-opacity:1;fill-rule:nonzero;stroke:none;stroke-width:0.35277778"
         id="text52-8-2-1-5-3"
         x="27.345631"
         y="265.62482">
        <tspan
           id="tspan5179-4-0-7"
           y="265.62482"
           x="27.345631"
           sodipodi:role="line"
           style="font-style:normal;font-variant:normal;font-weight:normal;font-stretch:normal;font-family:sans-serif;-inkscape-font-specification:sans-serif;stroke-width:0.35277778">0,0</tspan>
      </text>
      <text
         style="font-variant:normal;font-weight:normal;font-size:2.82222223px;font-family:ArialMT;-inkscape-font-specification:ArialMT;writing-mode:lr-tb;fill:#3f60b6;fill-opacity:1;fill-rule:nonzero;stroke:none;stroke-width:0.35277778"
         id="text52-8-2-1-5-4"
         x="27.404888"
         y="252.23167">
        <tspan
           id="tspan5179-4-0-5"
           y="252.23167"
           x="27.404888"
           sodipodi:role="line"
           style="font-style:normal;font-variant:normal;font-weight:normal;font-stretch:normal;font-family:sans-serif;-inkscape-font-specification:sans-serif;stroke-width:0.35277778">0,5</tspan>
      </text>
      <text
         style="font-variant:normal;font-weight:normal;font-size:2.82222223px;font-family:ArialMT;-inkscape-font-specification:ArialMT;writing-mode:lr-tb;fill:#3f60b6;fill-opacity:1;fill-rule:nonzero;stroke:none;stroke-width:0.35277778"
         id="text52-8-2-1-5-2"
         x="13.500934"
         y="260.33032">
        <tspan
           id="tspan5179-4-0-54"
           y="260.33032"
           x="13.500934"
           sodipodi:role="line"
           style="font-style:normal;font-variant:normal;font-weight:normal;font-stretch:normal;font-family:sans-serif;-inkscape-font-specification:sans-serif;stroke-width:0.35277778">0,2</tspan>
      </text>
      <text
         style="font-variant:normal;font-weight:normal;font-size:2.82222223px;font-family:ArialMT;-inkscape-font-specification:ArialMT;writing-mode:lr-tb;fill:#3f60b6;fill-opacity:1;fill-rule:nonzero;stroke:none;stroke-width:0.35277778"
         id="text52-8-2-1-5-74"
         x="13.37691"
         y="238.82956">
        <tspan
           id="tspan5179-4-0-4"
           y="238.82956"
           x="13.37691"
           sodipodi:role="line"
           style="font-style:normal;font-variant:normal;font-weight:normal;font-stretch:normal;font-family:sans-serif;-inkscape-font-specification:sans-serif;stroke-width:0.35277778">1,0</tspan>
      </text>
      <text
         style="font-variant:normal;font-weight:normal;font-size:2.82222223px;font-family:ArialMT;-inkscape-font-specification:ArialMT;writing-mode:lr-tb;fill:#3f60b6;fill-opacity:1;fill-rule:nonzero;stroke:none;stroke-width:0.35277778"
         id="text52-8-2-1-5-30"
         x="27.345631"
         y="238.83858">
        <tspan
           id="tspan5179-4-0-78"
           y="238.83858"
           x="27.345631"
           sodipodi:role="line"
           style="font-style:normal;font-variant:normal;font-weight:normal;font-stretch:normal;font-family:sans-serif;-inkscape-font-specification:sans-serif;stroke-width:0.35277778">1,0</tspan>
      </text>
      <text
         style="font-variant:normal;font-weight:normal;font-size:2.82222223px;font-family:ArialMT;-inkscape-font-specification:ArialMT;writing-mode:lr-tb;fill:#3f60b6;fill-opacity:1;fill-rule:nonzero;stroke:none;stroke-width:0.35277778"
         id="text52-8-2-1-5-6"
         x="27.404888"
         y="225.42682">
        <tspan
           id="tspan5179-4-0-8"
           y="225.42682"
           x="27.404888"
           sodipodi:role="line"
           style="font-style:normal;font-variant:normal;font-weight:normal;font-stretch:normal;font-family:sans-serif;-inkscape-font-specification:sans-serif;stroke-width:0.35277778">1,5</tspan>
      </text>
      <text
         style="font-variant:normal;font-weight:normal;font-size:2.82222223px;font-family:ArialMT;-inkscape-font-specification:ArialMT;writing-mode:lr-tb;fill:#3f60b6;fill-opacity:1;fill-rule:nonzero;stroke:none;stroke-width:0.35277778"
         id="text52-8-2-1-5-8"
         x="27.345631"
         y="212.05232">
        <tspan
           id="tspan5179-4-0-43"
           y="212.05232"
           x="27.345631"
           sodipodi:role="line"
           style="font-style:normal;font-variant:normal;font-weight:normal;font-stretch:normal;font-family:sans-serif;-inkscape-font-specification:sans-serif;stroke-width:0.35277778">2,0</tspan>
      </text>
      <text
         style="font-variant:normal;font-weight:normal;font-size:2.82222223px;font-family:ArialMT;-inkscape-font-specification:ArialMT;writing-mode:lr-tb;fill:#3f60b6;fill-opacity:1;fill-rule:nonzero;stroke:none;stroke-width:0.35277778"
         id="text52-8-2-1-5-1"
         x="28.706516"
         y="207.31921">
        <tspan
           id="tspan5179-4-0-49"
           y="207.31921"
           x="28.706516"
           sodipodi:role="line"
           style="font-style:normal;font-variant:normal;font-weight:bold;font-stretch:normal;font-family:sans-serif;-inkscape-font-specification:'sans-serif Bold';stroke-width:0.35277778"><tspan
   id="tspan2195"
   style="font-style:normal;font-variant:normal;font-weight:bold;font-stretch:normal;font-size:64.99999762%;font-family:sans-serif;-inkscape-font-specification:'sans-serif Bold';baseline-shift:super">o</tspan>

C</tspan>
      </text>
      <text
         style="font-variant:normal;font-weight:normal;font-size:2.82222223px;font-family:ArialMT;-inkscape-font-specification:ArialMT;writing-mode:lr-tb;fill:#3f60b6;fill-opacity:1;fill-rule:nonzero;stroke:none;stroke-width:0.35277778"
         id="text52-8-2-1-2"
         x="29.092983"
         y="292.64444">
        <tspan
           id="tspan5179-4-068"
           y="292.64444"
           x="29.092983"
           sodipodi:role="line"
           style="font-style:normal;font-variant:normal;font-weight:normal;font-stretch:normal;font-family:sans-serif;-inkscape-font-specification:sans-serif;stroke-width:0.35277778">-1</tspan>
      </text>
      <text
         id="text2270"
         y="246.31233"
         x="73.85083"
         style="font-style:normal;font-weight:normal;font-size:10.58333302px;line-height:1.25;font-family:sans-serif;letter-spacing:0px;word-spacing:0px;fill:#000000;fill-opacity:1;stroke:none;stroke-width:0.26458332"
         xml:space="preserve"><tspan
           style="stroke-width:0.26458332"
           y="246.31233"
           x="73.85083"
           id="tspan2268"
           sodipodi:role="line"> </tspan></text>
      <text
         style="font-variant:normal;font-weight:normal;font-size:2.82222223px;font-family:ArialMT;-inkscape-font-specification:ArialMT;writing-mode:lr-tb;fill:#3f60b6;fill-opacity:1;fill-rule:nonzero;stroke:none;stroke-width:0.35277778"
         id="text52-8-2-9-5-7-2"
         x="61.86269"
         y="272.15005">
        <tspan
           id="tspan2266-7-7"
           y="272.15005"
           x="61.86269"
           sodipodi:role="line"
           style="font-style:normal;font-variant:normal;font-weight:normal;font-stretch:normal;font-family:sans-serif;-inkscape-font-specification:sans-serif;stroke-width:0.35277778">rekonstrukcja</tspan>
      </text>
      <rect
         y="211.08099"
         x="103.27287"
         height="80.358719"
         width="6.5801921"
         id="rect1661"
         style="opacity:0.64200003;fill:#fcd881;fill-opacity:1;stroke:none;stroke-width:0.16837797;stroke-linecap:round;stroke-miterlimit:4;stroke-dasharray:none;stroke-opacity:1" />
      <path
         sodipodi:nodetypes="ccccccccccccscccccssscscccccccsscscccccssssscccccccccccccscsccccccccccscscccccccsccccccssscccssccssssscssssssssssscsccssssscccssscccscsccscccssccccccscscccsccsccsccscssscscsccssscccsccccccsscscccccccccscccsccscsccccccccccccccccccscccccscsccccscscccccscccsccccccccccccccccccccssccc"
         inkscape:connector-curvature="0"
         id="path732"
         d="m 34.848418,254.76954 v 13.32366 l 0.425223,-0.0945 c 0,0 0.377975,-1.18118 0.448847,-0.96857 0.07087,0.21262 0.307107,1.06306 0.496093,0.99219 0.18899,-0.0709 0.448848,-0.56696 0.519719,-1.29929 0.07087,-0.73233 0.519716,-0.70871 0.54334,-0.89769 0.02363,-0.18899 0.14174,-1.51191 0.425223,-1.06306 0.283482,0.44884 0.212611,3.56715 0.448847,3.5199 0.236236,-0.0473 0.448847,-1.58278 0.732329,-1.41741 0.283483,0.16536 0.637834,1.13393 0.732327,0.42522 0.0945,-0.7087 0.330729,-0.85044 0.543343,-0.99219 0.212612,-0.14174 0.543341,-1.48828 0.543341,-0.66145 0,0.82682 0.425222,1.81901 0.448847,2.24423 0.02363,0.42522 0.425222,2.31511 0.472469,0.4961 0.04725,-1.81901 0.236236,-2.22062 0.330729,-2.76396 0.09449,-0.54334 0.118118,0.82683 0.259858,0.35436 0.141743,-0.47247 0.354354,0.0472 0.4016,0.37797 0.04725,0.33073 0.543341,0.21262 0.661459,-0.35435 0.118118,-0.56697 0.14174,-1.84264 0.259858,-2.008 0.118118,-0.16536 0.188989,-2.8112 0.448847,-1.01581 0.259858,1.79539 0.04725,4.11049 0.54334,5.05543 0.496094,0.94494 0.425225,0.87407 0.566965,-1.32292 0.14174,-2.19698 0.236236,-0.68508 0.377976,-0.47246 0.141743,0.21261 0.4016,-0.30711 0.496094,-1.48829 0.09449,-1.18117 0.590587,0.11812 0.732329,1.39379 0.14174,1.27567 0.519716,1.32292 0.472469,1.86626 -0.04725,0.54334 0.543342,-0.23624 0.826822,-0.0473 0.28348,0.18899 0.21261,1.86626 0.37798,1.39379 0.16536,-0.47247 0.28348,-3.1183 0.47247,-2.45685 0.18899,0.66146 0.35435,2.92932 0.54334,1.51191 0.18899,-1.41741 0.16536,-5.14993 0.4016,-4.51209 0.23623,0.63783 0.61421,2.43322 0.75595,1.58277 0.14174,-0.85044 0.82682,-2.14974 0.94494,-0.33073 0.11812,1.81901 0.68508,1.32292 0.59059,1.86626 -0.0945,0.54334 0,1.93713 0.11812,1.1103 0.11812,-0.82682 0.16536,-3.35453 0.44884,-3.09468 0.28349,0.25987 0.87407,2.59859 0.94495,2.17337 0.0709,-0.42522 0.40159,-1.77177 0.51971,-1.34654 0.11812,0.42522 0.8977,11.64639 1.11031,6.3311 0.21261,-5.31529 0.51972,-6.40197 0.7087,-5.55153 0.18899,0.85045 0.63784,0.0236 0.70871,-1.96075 0.0709,-1.98437 0.61421,-1.84263 0.61421,0.66146 0,2.50409 0.14174,2.33873 0.61421,0.94494 0.47247,-1.39379 0,0.56696 0.4016,0.59059 0.4016,0.0236 0.0236,2.66946 0.30711,1.9135 0.28348,-0.75595 0.0236,-2.57496 0.33072,-2.38597 0.30711,0.18899 0.37798,-1.77176 0.54334,-1.39379 0.16537,0.37798 0.75596,7.51228 0.96857,6.80357 0.21261,-0.7087 0.25986,-7.20517 0.51972,-6.70907 0.25986,0.49609 0.44884,1.88988 0.59059,0.8032 0.14174,-1.08669 0.42522,-0.61421 0.44884,0.16536 0.0236,0.77957 0.21261,1.32292 0.4016,-0.35435 0.18899,-1.67727 0.30711,-2.24424 0.42523,-2.008 0.11811,0.23623 0.0236,-1.13393 0.16536,-0.59059 0.14174,0.54334 0.47247,3.42541 0.73233,3.18917 0.25986,-0.23623 0.11811,1.32292 0.44884,1.13393 0.33073,-0.18898 0.37798,1.27567 0.54335,0.14174 0.16536,-1.13392 0.37797,-2.17336 0.59058,-1.65364 0.21261,0.51972 0.28349,-1.81901 0.51972,-1.01581 0.23624,0.8032 0.4016,3.42541 0.61421,3.18917 0.21261,-0.23623 0.0236,2.008 0.16537,1.08668 0.14174,-0.92131 0.33073,-5.57515 0.85044,-5.40978 0.51972,0.16536 0.28348,4.15774 0.61421,3.9215 0.33073,-0.23623 0.37798,-2.03162 0.61422,-1.9135 0.23623,0.11812 0.11811,-2.71671 0.49609,-2.12612 0.37798,0.59059 0.18899,1.77176 0.33073,1.74814 0.14174,-0.0236 0.44884,1.44103 0.68508,1.03944 0.23624,-0.4016 0.33073,-1.98438 0.51972,-1.37017 0.18899,0.61421 0.59058,1.06306 0.82682,0.4961 0.23624,-0.56697 0.14174,1.63002 0.42522,1.41741 0.28349,-0.21261 0.37798,-2.62221 0.73233,-2.17337 0.35435,0.44885 0.51972,2.12612 0.75595,2.008 0.23624,-0.11812 1.34654,1.18118 1.25205,0.21261 -0.0945,-0.96856 -0.11812,-2.17336 0.0236,-2.008 0.14174,0.16537 -0.0472,-1.22842 0.16536,-0.92131 0.21262,0.30711 0.18899,3.30729 0.44885,3.07105 0.25986,-0.23623 0.4016,1.53553 0.44885,2.14974 0.0472,0.61422 0.49609,0.63784 0.85044,-0.33073 0.35436,-0.96856 0.70871,-0.3071 0.75596,-0.73232 0.0472,-0.42523 0,-2.14974 0.21261,-2.008 0.21261,0.14174 -0.11812,-1.39379 0.16536,-1.15755 0.28349,0.23623 0.63784,0.56696 0.66146,1.72451 0.0236,1.15755 0.14174,-0.25985 0.33073,0.68508 0.18899,0.94494 0.66146,1.01582 0.87407,0.37798 0.21261,-0.63783 0.18899,0.14174 0.33073,-0.0473 0.14174,-0.18898 0.33073,-2.14974 0.35435,-1.37016 0.0236,0.77958 0.30711,2.4096 0.37798,1.41741 0.0709,-0.99219 0.33073,-1.34654 0.61421,0.42522 0.28348,1.77177 0.63783,1.34654 0.63783,1.79539 0,0.44885 0.35436,-0.44885 0.44885,-0.23623 0.0945,0.21261 0.18899,-0.99219 0.44885,-1.03944 0.25986,-0.0473 0.59059,-4.51209 1.06306,-2.74033 0.47247,1.77177 0.7087,4.29948 0.7087,5.05543 0,0.75596 0.28348,3.26005 0.54334,0.68509 0.25986,-2.57497 0.8032,-1.93713 0.77958,-1.11031 -0.0236,0.82682 0.11812,-0.0472 0.23623,0.30711 0.11812,0.35435 0.47247,2.50409 0.4961,0.49609 0.0236,-2.008 0.4016,-3.42541 0.51971,-2.008 0.11812,1.41741 0.28349,1.88988 0.37798,0.70871 0.0945,-1.18118 0.44885,-2.05525 0.51972,0.54334 0.0709,2.59858 0.42522,1.67727 0.54334,3.28367 0.11812,1.6064 0.77957,0.85044 0.75595,1.32291 -0.0236,0.47247 0.25986,1.15756 0.4016,-1.01581 0.14174,-2.17336 0.33073,-0.35435 0.75595,-0.56696 0.42523,-0.21261 0.82683,0.35435 0.73233,1.15755 -0.0945,0.8032 0.0945,2.03162 0.16537,1.27567 0.0709,-0.75595 0.33073,-3.23642 0.54334,-2.62221 0.21261,0.61421 0.59058,0.94494 0.54334,-0.11812 -0.0472,-1.06306 0.16536,-2.45684 0.3071,-1.84263 0.14174,0.61421 0.0709,3.16555 0.63784,2.50409 0.56696,-0.66146 0.7087,0.0709 0.7087,1.86626 0,1.79539 0.30711,2.88207 0.4961,1.22842 0.18899,-1.65364 0.35435,-2.12612 0.47247,-1.81901 0.11811,0.30711 0.0709,-2.05525 0.28348,-1.41741 0.21261,0.63783 0.0472,3.87426 0.30711,3.47266 0.25985,-0.4016 0.37797,-5.05544 0.56696,-4.18137 0.18899,0.87408 0.14174,4.5121 0.49609,3.68527 0.35436,-0.82682 0.68508,-4.79557 0.82683,-3.9215 0.14174,0.87407 0.0709,4.4176 0.37797,2.83482 0.30711,-1.58277 0.21261,-6.02399 0.82683,-5.1263 0.61421,0.89769 0.68508,2.36235 0.94494,1.67727 0.259848,-0.68508 -0.0472,-3.80339 0.566958,-3.54353 0.61421,0.25986 0.30711,1.88988 0.66146,1.48828 0.35435,-0.4016 0.4016,-2.45684 0.56696,-2.29148 0.16537,0.16537 -0.0236,-1.58277 0.21261,-1.2048 0.23624,0.37798 0.16537,9.00056 0.59059,6.87445 0.42523,-2.12612 0.4961,-5.78777 0.56697,-2.76396 0.0709,3.02381 0.42522,3.04744 0.56696,1.41741 0.14174,-1.63002 0.96856,-1.03943 0.87407,-1.58277 -0.0945,-0.54334 -0.23623,-3.23642 0.0236,-2.64583 0.25986,0.59058 0.42522,1.63002 0.47247,1.18117 0.0472,-0.44884 0.68508,-2.33873 0.68508,-1.2048 0,1.13393 0.0472,2.52772 0.18899,1.91351 0.14174,-0.61421 0.33073,-2.17337 0.63784,-2.38598 0.3071,-0.21261 -0.28349,-2.07887 0,-2.26786 0.28348,-0.18898 0.0236,-1.86625 0.25985,-2.07886 0.23624,-0.21261 0.25986,-6.07125 0.42523,-4.70108 0.16536,1.37016 0.4016,0.0709 0.51971,0.42522 0.11812,0.35435 0.35436,2.008 0.44885,1.29929 0.0945,-0.7087 0.30711,-0.61421 0.37798,-1.5119 0.0709,-0.89769 0.80329,-11.24478 0.94494,-13.22917 0.14165,-1.98435 0.76467,-13.41957 0.25041,-9.75651 -0.51943,3.69982 -1.05361,18.52083 -1.57333,17.76488 -0.51972,-0.75595 -0.28348,-1.29929 -0.63784,-1.03943 -0.35435,0.25986 -0.82682,-0.37798 -0.77957,0 0.0473,0.37797 0.3071,4.55934 0,4.63021 -0.30711,0.0709 -0.25986,4.13411 -0.47247,3.77976 -0.21261,-0.35435 0.23623,1.93713 -0.0945,1.37016 -0.33073,-0.56696 -0.4016,-2.22061 -0.63784,-1.63002 -0.23623,0.59059 -0.11811,2.66946 -0.4016,1.98438 -0.28348,-0.68509 -0.35435,-2.29148 -0.51971,-1.72452 -0.16537,0.56696 0.0945,2.50409 -0.18899,2.26786 -0.28348,-0.23624 -0.87407,-0.87407 -0.82682,-0.33073 0.0473,0.54334 0.18898,2.57496 -0.16537,1.93712 -0.35435,-0.63783 0.16537,-2.83482 -0.25986,-2.7167 -0.42522,0.11812 -0.21261,2.4096 -0.4016,2.48047 -0.18899,0.0709 -0.33073,-5.55153 -0.61421,-5.38616 -0.28348,0.16536 -0.25986,2.17336 -0.51972,2.17336 -0.25985,0 -0.59058,-1.81901 -0.77957,-1.79539 -0.18899,0.0236 -0.68508,1.48829 -0.944938,1.6064 -0.25986,0.11812 -0.4016,-1.67727 -0.68508,-1.41741 -0.28349,0.25986 -0.61422,5.38616 -1.01582,5.19717 -0.4016,-0.18898 -0.14174,-4.86644 -0.44884,-4.58295 -0.30711,0.28348 -0.56697,3.66164 -0.77958,2.78757 -0.21261,-0.87407 -0.25986,-2.90569 -0.44885,-2.64583 -0.18898,0.25985 -0.23623,2.88206 -0.37797,2.48046 -0.14174,-0.4016 -0.23624,-1.93712 -0.42522,-1.79538 -0.18899,0.14174 -0.28349,1.96075 -0.47247,1.5119 -0.18899,-0.44885 0.0236,-2.38597 -0.25986,-2.008 -0.28349,0.37798 -0.47247,4.27586 -0.59059,3.11831 -0.11812,-1.15755 -0.23624,-1.55916 -0.54334,-1.74814 -0.30711,-0.18899 -0.25986,-1.32292 -0.44885,-1.86626 -0.18899,-0.54334 -0.28348,-2.48047 -0.66146,-1.29929 -0.37797,1.18117 -0.54334,2.7167 -0.63783,1.81901 -0.0945,-0.8977 -0.4016,-1.25205 -0.51972,-0.51972 -0.11812,0.73233 -0.0945,1.55915 -0.3071,0.0945 -0.21262,-1.46466 -0.37798,-0.94494 -0.54335,-0.21261 -0.16536,0.73233 -0.42522,0.77958 -0.63783,0.14174 -0.21261,-0.63783 -0.21261,0.61421 -0.25986,1.18118 -0.0472,0.56696 -0.33073,1.77176 -0.54334,1.5119 -0.21261,-0.25985 -0.68508,-2.14974 -0.68508,-3.00018 0,-0.85045 -0.44885,-2.52772 -0.59059,-2.17337 -0.14174,0.35436 -0.11812,1.63003 -0.33073,1.41741 -0.21261,-0.21261 -0.35435,-1.39378 -0.59059,-1.29929 -0.23623,0.0945 -0.11811,1.67727 -0.35435,1.37017 -0.23623,-0.30711 -0.8032,-1.11031 -0.94494,-0.8032 -0.14174,0.3071 -0.18899,2.52771 -0.47247,2.36235 -0.28348,-0.16537 -0.51972,-3.87426 -0.99219,-3.6144 -0.47247,0.25986 -0.89769,1.13393 -1.01581,1.01581 -0.11812,-0.11812 0.0236,2.50409 -0.23623,1.88988 -0.25986,-0.61421 -0.4961,-2.07887 -1.08668,-1.70089 -0.59059,0.37798 -0.37798,-3.1183 -0.68509,-2.8112 -0.3071,0.30711 -0.35435,1.46466 -0.56696,1.55915 -0.21261,0.0945 -0.54334,-0.37797 -0.68508,0.0236 -0.14174,0.4016 -0.61421,0.75595 -0.59059,0.54334 0.0236,-0.21261 -0.25986,0.66146 -0.37798,0.18899 -0.11811,-0.47247 0.0709,-3.00019 -0.35435,-2.55134 -0.42522,0.44885 -0.7087,-1.9135 -0.92132,-1.08668 -0.21261,0.82682 -0.0945,3.14193 -0.4016,2.85844 -0.3071,-0.28348 -0.0945,0.47247 -0.44884,0.92132 -0.35435,0.44885 -0.4961,1.74814 -0.8032,1.13393 -0.30711,-0.61421 -0.30711,-3.30729 -0.47247,-3.00019 -0.16537,0.30711 -0.11812,-3.02381 -0.37798,-2.64583 -0.25986,0.37797 -0.35435,2.97656 -0.56696,2.69308 -0.21261,-0.28348 -0.4961,-0.44885 -0.73233,-0.11812 -0.23624,0.33073 -0.51972,-0.4016 -0.61421,-0.99219 -0.0945,-0.59058 -0.28348,0.30711 -0.47247,0.61422 -0.18899,0.3071 -0.96857,0.14174 -0.96857,-0.11812 0,-0.25986 -0.35435,-1.11031 -0.47247,-0.63784 -0.11811,0.47247 -0.37797,0.8977 -0.59058,-0.16536 -0.21262,-1.06306 -0.35436,-0.0236 -0.42523,0.33073 -0.0709,0.35435 -0.0473,0.85044 -0.3071,-0.75596 -0.25986,-1.60639 -0.21262,-2.43322 -0.56697,-2.81119 -0.35435,-0.37798 -0.37797,0.47247 -0.35435,1.44103 0.0236,0.96857 -0.49609,1.58278 -0.54334,2.03162 -0.0473,0.44885 -0.0236,2.1025 -0.28348,1.6064 -0.25986,-0.49609 -0.21262,-5.10268 -0.8032,-4.06324 -0.59059,1.03943 -0.11812,4.03962 -0.4016,4.20498 -0.28348,0.16537 -0.85045,-3.07105 -1.25205,-2.55134 -0.4016,0.51972 -0.56696,1.39379 -0.8032,0.28349 -0.23623,-1.11031 0.0473,1.1103 -0.68508,1.18117 -0.73233,0.0709 -1.11031,-0.16536 -0.96856,-1.79539 0.14174,-1.63002 -0.0945,-1.27567 -0.35436,-0.94494 -0.25986,0.33073 -0.3071,0.23624 -0.47247,-0.16536 -0.16536,-0.4016 -0.28348,1.44103 -0.3071,2.008 -0.0236,0.56696 -0.51972,1.65364 -0.44885,0.49609 0.0709,-1.15755 0,-1.9135 -0.21261,-1.27567 -0.21261,0.63784 -0.4016,0.4961 -0.42522,0.21261 -0.0236,-0.28348 -0.51972,-0.82682 -0.44885,0.37798 0.0709,1.2048 0.35435,2.74033 0.0236,2.76395 -0.33073,0.0236 -0.63784,-6.23661 -0.68508,-7.29967 -0.0472,-1.06305 -0.63784,1.01582 -0.68508,2.48047 -0.0472,1.46466 -0.30711,1.74815 -0.42523,1.67727 -0.11811,-0.0709 0.35435,2.9057 -0.0709,2.33873 -0.42522,-0.56696 -1.44103,-1.93713 -1.51191,-4.03962 -0.0709,-2.10249 -0.25985,-1.86626 -0.44884,-1.18118 -0.18899,0.68509 -0.35435,0.51972 -0.47247,1.63003 -0.11812,1.1103 -0.25986,2.57496 -0.44885,1.86626 -0.18899,-0.70871 -0.25986,-0.80321 -0.35435,-0.0709 -0.0945,0.73233 -0.4961,1.39379 -0.44885,1.67727 0.0473,0.28349 -0.0709,2.07887 -0.25986,1.25205 -0.18898,-0.82682 -0.85044,-2.59859 -0.7087,-3.40178 0.14174,-0.80321 -0.4016,-1.44104 -0.51972,-0.35436 -0.11812,1.08668 -0.14174,3.09468 -0.3071,0.70871 -0.16537,-2.38598 -0.21262,-2.45685 -0.42523,-2.4096 -0.21261,0.0472 -0.18899,-0.87407 -0.4016,-0.54334 -0.21261,0.33073 -0.11812,4.81919 -0.4016,3.77976 -0.28348,-1.03943 -0.28348,-4.13412 -0.47247,-3.70889 -0.18899,0.42522 -0.59058,-0.14174 -0.68508,0.33073 -0.0945,0.47247 -0.66146,1.84263 -0.73233,0.68508 -0.0709,-1.15755 -0.42522,-1.2048 -0.56696,-0.44885 -0.14174,0.75596 0.0709,4.29948 -0.21261,3.73252 -0.28349,-0.56697 -0.42523,-3.6144 -0.59059,-3.14193 -0.16537,0.47247 -0.23624,1.91351 -0.47247,1.6064 -0.23624,-0.30711 -0.44885,0.14174 -0.73233,0.56696 -0.283482,0.42523 -0.165367,1.18118 -0.519718,0.23624 -0.354354,-0.94494 -0.685083,-1.2993 -0.826823,-2.48047 -0.141743,-1.18118 -0.448847,-1.1103 -0.519719,-0.59059 -0.07087,0.51972 -0.212611,2.52772 -0.377975,1.88988 -0.165365,-0.63783 -0.33073,-0.63783 -0.448847,-0.14174 -0.118118,0.4961 -0.566963,0.8977 -0.779577,-0.0472 -0.212611,-0.94494 -0.14174,-4.20499 -0.377976,-3.75614 -0.236233,0.44884 -0.283482,3.70889 -0.826822,3.14192 -0.543341,-0.56696 -0.755952,-0.4016 -0.732327,0.4961 0.02363,0.89769 -0.59059,0.4016 -0.566965,0.73233 0.02363,0.33073 -0.259858,2.14974 -0.566966,0.3071 -0.307104,-1.84263 -0.732329,-5.57515 -0.850444,-4.70108 -0.118118,0.87407 -0.165365,2.14974 -0.472472,1.88988 -0.307105,-0.25985 -0.07087,1.39379 -0.401601,1.01582 -0.330729,-0.37798 -0.826823,-1.25205 -0.874069,-0.66146 -0.04725,0.59059 0,2.59858 -0.307105,1.77176 -0.307107,-0.82682 -0.354353,-1.01581 -0.637836,-1.9135 -0.28348,-0.8977 -0.28348,-1.84264 -0.377976,-2.66946 -0.09449,-0.82682 -0.401598,-1.29929 -0.425222,-0.56696 -0.02363,0.73232 -0.236236,7.11067 -0.425223,4.70107 -0.188989,-2.4096 -0.519718,-3.07105 -0.590589,-1.34654 -0.07087,1.72452 -0.212612,3.35454 -0.472469,2.69308 -0.259858,-0.66145 -0.47247,-0.80319 -0.496094,-0.4016 z"
         style="opacity:0.82700004;fill:#fbc74b;fill-opacity:1;stroke:none;stroke-width:0.065;stroke-linecap:butt;stroke-linejoin:miter;stroke-miterlimit:4;stroke-dasharray:none;stroke-opacity:1" />
      <path
         sodipodi:nodetypes="cscccccccccccscccccsccsccscccccccscscscccsccssccccssscscscccccsccscccsccssccccscscscsccccsccscccsccccsccsscsccscsscccsssscscscsssccssscsscssccccccscscccsccscccsccsssccccsccccccccscccccscsc"
         inkscape:connector-curvature="0"
         id="path1558"
         d="m 34.992574,262.58496 c 0,0 0.576299,-0.0835 0.576299,-0.70158 0,-0.61806 0.0167,-1.11919 0.217157,-1.26953 0.200451,-0.15034 0.250566,-1.80407 0.46772,-0.73499 0.217157,1.06908 0.100227,2.57247 0.317383,2.15486 0.217157,-0.41761 0,-1.1526 0.200454,-1.26953 0.200451,-0.11693 0.133633,-0.0501 0.250563,-0.80181 0.116933,-0.75169 0.41761,-0.75169 0.7684,-0.11693 0.350793,0.63477 0.517835,0.98556 0.551244,1.67044 0.03341,0.68488 0.03341,1.45328 0.283974,0.36749 0.250566,-1.08578 0.434314,-1.10249 0.751695,-0.61806 0.317384,0.48443 0.317384,-0.41761 0.400905,-0.86862 0.08352,-0.45102 0.250565,-0.7684 0.334086,-0.55125 0.08352,0.21716 0.150339,-1.08578 0.367496,-0.66817 0.217157,0.41761 0.100227,2.05463 0.267269,2.18827 0.167044,0.13363 0.41761,2.35531 0.668176,1.9377 0.250563,-0.41761 0.217154,-2.88985 0.400902,-2.63929 0.183748,0.25057 0.334089,0.50114 0.400904,-0.16704 0.06682,-0.66817 0.417611,0.31738 0.517835,0.48443 0.100227,0.16704 0.785106,0 0.785106,-0.45102 0,-0.45102 0.200451,-5.69618 0.434311,-3.42439 0.233863,2.27179 0.167045,4.15938 0.350792,4.17609 0.183748,0.0167 0.467723,1.00226 0.551244,0 0.08352,-1.00226 0.06682,-3.30746 0.451017,-1.98782 0.384201,1.31964 0.467722,0.60135 0.484425,-0.25057 0.01669,-0.85192 0.167045,-2.85644 0.601358,-0.66817 0.434311,2.18827 0.634765,4.51017 0.885331,3.0736 0.250565,-1.43658 0.334086,-0.53454 0.701582,0.0167 0.3675,0.55125 0.51783,0.43432 0.63476,-0.35079 0.11693,-0.7851 0.13364,-1.36975 0.48443,0.25057 0.1618,1.85656 0.20045,2.7061 0.3675,0.28397 0.16704,-2.42213 0.23386,-5.24516 0.50113,-3.37428 0.26727,1.87089 0.48442,2.05464 0.58465,1.26953 0.10022,-0.7851 0.30068,-2.07134 0.71829,-0.58465 0.4176,1.48669 0.25056,0.55125 0.35079,0.45102 0.10022,-0.10023 0.16704,0.21716 0.25056,1.23612 0.0835,1.01896 -0.0167,1.41987 0.16705,1.30294 0.18374,-0.11693 0.43431,-2.27179 0.58465,-2.48895 0.15034,-0.21716 0.53454,-1.62032 0.66817,-1.01896 0.13364,0.60135 0.10023,3.00678 0.3675,2.02122 0.26727,-0.98555 0.3842,-2.10475 0.85192,-0.25056 0.46772,1.85418 0.25056,7.21628 0.58465,4.6271 0.33409,-2.58917 0.61806,-6.33095 0.93544,-4.81085 0.31739,1.52009 0.15034,1.63702 0.41761,-0.0668 0.26727,-1.70384 0.48443,-2.6894 0.51784,-1.1693 0.0334,1.52009 0.16704,0.21715 0.36749,1.06908 0.20046,0.85192 0.18375,-0.55125 0.3842,-0.13364 0.20046,0.41761 -0.0334,1.65373 0.18375,1.45328 0.21716,-0.20045 0.46772,2.18827 0.65147,1.46998 0.18375,-0.71829 0.50113,0 0.46772,-0.80181 -0.0334,-0.80181 0,-1.88759 0.3675,-1.46998 0.36749,0.41761 0.28397,-4.44335 0.50113,-2.77292 0.21715,1.67043 0.41761,11.80997 0.75169,7.58377 0.33409,-4.2262 0.33409,-7.18287 0.3675,-5.87993 0.0334,1.30294 0.60136,1.921 0.71829,0.46772 0.11693,-1.45328 0.0501,-0.51783 0.21715,0.40091 0.16705,0.91874 0.21716,0.55124 0.45102,-0.3675 0.23386,-0.91874 0.51783,-0.23386 0.45102,-1.23612 -0.0668,-1.00226 0.23386,-0.21716 0.31738,-0.98555 0.0835,-0.7684 0.28397,0.4009 0.30068,1.06907 0.0167,0.66818 0.30068,1.06908 0.26727,1.62033 -0.0334,0.55124 0.20045,1.15259 0.4009,0.50112 0.20045,-0.65147 0.0167,1.98782 0.40091,1.23613 0.3842,-0.7517 0.60135,-2.40543 0.63476,-1.87089 0.0334,0.53454 0.15034,2.50565 0.45102,0.93544 0.30068,-1.5702 0.4009,-1.921 0.60136,-0.48442 0.20045,1.43657 0.0167,2.82303 0.16704,2.55576 0.15034,-0.26727 0.50113,1.30294 0.56795,0.28397 0.0668,-1.01896 0.26727,-5.51243 0.36749,-4.99459 0.10023,0.51783 0.15034,-1.21942 0.23386,-0.85192 0.0835,0.36749 0.13364,2.00452 0.33409,1.68713 0.20045,-0.31738 -0.10023,2.17157 0.0668,1.93771 0.16704,-0.23386 0.16704,1.45327 0.31738,0.86862 0.15034,-0.58465 0.55124,-1.63702 0.55124,-1.21941 0,0.41761 0.0668,-0.93545 0.15034,-0.70159 0.0835,0.23387 0.3842,-2.43883 0.50113,-1.5702 0.11693,0.86862 0.28398,2.02122 0.51784,1.65373 0.23386,-0.3675 0.21716,0.46772 0.35079,0.15034 0.13364,-0.31739 0.4009,-1.85419 0.50113,-0.81852 0.10023,1.03567 0.3842,1.73725 0.60136,1.43657 0.21715,-0.30067 0.50113,0.7684 0.70158,0.48443 0.20045,-0.28397 1.05237,-1.75395 1.25283,-1.18601 0.20045,0.56795 0.3842,0.63477 0.50113,0.63477 0.11693,0 0.58465,1.88759 0.66817,1.10249 0.0835,-0.78511 0.3842,-3.42439 0.51783,-2.52236 0.13364,0.90203 0.11693,3.37428 0.33409,3.15712 0.21716,-0.21716 0.0835,0.73499 0.23386,0.61806 0.15034,-0.11693 0,2.18827 0.13364,1.77066 0.13363,-0.41761 0.15034,1.21942 0.41761,0.61806 0.26727,-0.60135 1.08578,-0.13363 0.98555,-0.75169 -0.10022,-0.61806 0.21716,-2.08805 0.28398,-1.78737 0.0668,0.30068 0.10022,-3.14042 0.35079,-2.60588 0.25056,0.53454 0.35079,-1.5535 0.45101,0.28398 0.10023,1.83747 0.31739,2.25509 0.58466,1.921 0.26727,-0.33409 0.0501,1.67043 0.20045,1.41987 0.15034,-0.25057 0.43431,0.30067 0.50113,-0.16705 0.0668,-0.46772 0.21716,-0.30068 0.26727,-0.13363 0.0501,0.16704 0.18375,-0.46772 0.26727,-0.7517 0.0835,-0.28397 0.35079,1.63703 0.45102,1.1526 0.10022,-0.48442 0.0334,-1.65373 0.16704,-1.35305 0.13363,0.30068 0.21715,-2.3052 0.41761,-1.75395 0.20045,0.55124 0.0668,2.42212 0.28397,2.13815 0.21716,-0.28397 -0.21716,2.15486 0.0501,1.58691 0.26727,-0.56794 0.58466,-0.90203 0.63477,-0.61806 0.0501,0.28398 0.46772,-0.16704 0.46772,0.23386 0,0.40091 0.18375,2.73952 0.33409,1.82078 0.15034,-0.91874 0.0835,-2.65599 0.30068,-2.47224 0.21715,0.18374 -0.0501,-1.30295 0.11693,-1.15261 0.16704,0.15034 0.58465,-1.25282 0.73499,-0.91874 0.15034,0.33409 -0.10023,2.00453 0.0334,1.80407 0.13363,-0.20045 0.31738,-0.4009 0.31738,0.53454 0,0.93545 -0.0167,1.41987 0.15034,1.01897 0.16704,-0.4009 -0.13364,2.02122 0.16704,1.67043 0.30068,-0.35079 0.88533,-0.31738 0.83522,-0.81851 -0.0501,-0.50113 -0.21716,-1.40316 -0.10023,-1.26953 0.11693,0.13364 -0.0334,-1.36976 0.18375,-1.20271 0.21716,0.16704 0.48443,-0.53454 0.63477,-0.31738 0.15033,0.21715 0.28397,1.11919 0.33408,0.7851 0.0501,-0.33409 0.28398,-1.67044 0.3675,-1.33635 0.0835,0.33409 0.36749,1.01897 0.45102,0.68488 0.0835,-0.33409 0.43431,-1.75396 0.50113,-1.1526 0.0668,0.60136 0.18374,1.77066 0.28397,1.43657 0.10023,-0.33408 -0.0668,1.83748 0.10023,1.5201 0.16704,-0.31738 0.16704,2.27179 0.30067,1.95441 0.13364,-0.31739 0.0334,2.25508 0.26727,1.85418 0.23386,-0.4009 0.48443,-0.7851 0.58466,-0.56795 0.10022,0.21716 0.18374,0.66818 0.20045,0.26727 0.0167,-0.4009 -0.0167,-2.57247 0.10022,-2.42213 0.11693,0.15034 0.11693,-1.31964 0.31739,-1.05237 0.20045,0.26727 0.61806,0.16704 0.8018,-0.55125 0.18375,-0.71828 0.18375,0.53454 0.25057,0.88533 0.0668,0.3508 0.18375,1.5201 0.21716,0.20046 0.0334,-1.31965 0.45101,-2.13816 0.45101,-1.5368 0,0.60135 0.33409,1.98781 0.41761,1.36975 0.0835,-0.61806 -0.0334,-1.5535 0.16705,-1.38646 0.20045,0.16705 0.11693,-1.33635 0.23386,-1.11919 0.11693,0.21716 0.28397,-1.05237 0.33408,-0.7684 0.0501,0.28397 -0.16704,2.17157 0.0668,1.97111 0.23386,-0.20045 0.21716,0.71829 0.26727,1.35306 0.0501,0.63476 0.15034,0.65146 0.28397,0.48442 0.13364,-0.16704 0.0167,0.80181 0.18375,0.61806 0.16705,-0.18374 0.3675,-0.53454 0.35079,0.0334 -0.0167,0.56795 -0.0668,2.33861 0.0668,2.00452 0.13363,-0.33408 0.16704,-1.31964 0.23386,-1.1693 0.0668,0.15034 0.31738,-1.82077 0.3842,-1.31965 0.0668,0.50114 0.0501,1.8876 0.28397,1.41988 0.23387,-0.46773 0.3675,-2.15487 0.45102,-1.73726 0.0835,0.41761 -0.15034,1.82078 0.0167,1.63703 0.16705,-0.18375 0.16705,1.41987 0.35079,1.00226 0.18375,-0.41761 0.21716,-4.42665 0.3675,-4.14268 0.15034,0.28398 0.26727,4.04245 0.4009,3.67496 0.13364,-0.3675 0.0334,0.91874 0.28398,0.7851 0.25056,-0.13363 0.43431,0.58465 0.43431,-0.50113 0,-1.08578 0.13363,-4.77744 0.23386,-4.02575 0.10023,0.7517 -0.0501,3.57473 0.10023,3.20724 0.15034,-0.3675 0.26727,-1.26953 0.30068,0.25056 0.0334,1.5201 -0.0334,2.08805 0.11693,1.30294 0.15033,-0.7851 0.16704,-2.50565 0.25056,-2.28849 0.0835,0.21715 0.33409,-2.48895 0.53454,-2.08804 0.20045,0.4009 0.56795,0.75169 0.66817,1.52009 0.10023,0.7684 0.11693,0.55124 0.33409,-0.43431 0.217158,-0.98556 0.200448,-1.80407 0.400898,-1.62032 0.20046,0.18374 0.31739,-0.25057 0.41761,-0.10023 0.10023,0.15034 0.13364,2.10475 0.33409,1.72055 0.20045,-0.3842 0.3675,-1.80407 0.43431,-1.58692 0.0668,0.21716 -0.11693,-2.38872 0.18375,-1.80407 0.30068,0.58466 0.0501,5.41221 0.26727,5.99687 0.21716,0.58465 0.26727,-0.13364 0.60136,-1.85419 0.33408,-1.72054 0.30067,0.0334 0.45101,0.68488 0.15034,0.65147 0.16705,2.35531 0.3842,1.28624 0.21716,-1.06908 0.43432,-3.4411 0.48443,-2.93997 0.0501,0.50113 0.67176,-0.25558 0.76625,-2.1927 0.0945,-1.93713 0.18899,0.99218 0.23624,1.55915 0.0472,0.56696 -0.23624,2.64583 0.0472,2.12611 0.28348,-0.51971 0.37797,-2.69308 0.42522,-2.07887 0.0472,0.61422 -0.23624,3.3073 -0.0472,2.45685 0.18899,-0.85045 0.33073,-2.3151 0.42522,-0.23624 0.0945,2.07887 0.23624,4.06325 0.28348,0.75596 0.0472,-3.3073 0.33073,-2.97657 0.33073,-4.15774 0,-1.18118 -0.0945,-0.61421 0.14174,-1.70089 0.23624,-1.08669 0.0236,-6.14212 0.0945,-4.15774 0.0945,0.89769 0.33073,2.22061 0.42523,1.03943 0.0945,-1.18117 0.18899,-3.77976 0.28348,-2.97656 0.0945,0.8032 -0.0945,3.87426 0.14174,3.16555 0.23623,-0.7087 0.18899,-2.17336 0.33073,-1.37016 0.14174,0.8032 0.0709,2.55134 0.21261,1.98437 0.14174,-0.56696 0.21261,-3.54352 0.21261,-3.07106 0,0.47248 1.46973,-20.07998 1.46973,-21.02492"
         style="fill:none;stroke:#951768;stroke-width:0.36500001;stroke-linecap:round;stroke-linejoin:miter;stroke-miterlimit:4;stroke-dasharray:none;stroke-opacity:0.79215686" />
      <path
         d="m 34.936399,211.081 v 80.53472"
         style="fill:none;stroke:#3f60b6;stroke-width:0.1760558;stroke-linecap:butt;stroke-linejoin:miter;stroke-miterlimit:4;stroke-dasharray:none;stroke-opacity:1"
         id="path388-7-3-1"
         inkscape:connector-curvature="0" />
      <text
         style="font-variant:normal;font-weight:normal;font-size:2.82222223px;font-family:ArialMT;-inkscape-font-specification:ArialMT;writing-mode:lr-tb;fill:#3f60b6;fill-opacity:1;fill-rule:nonzero;stroke:none;stroke-width:0.35277778"
         id="text52-8-2-9-5-7"
         x="92.08287"
         y="242.16681">
        <tspan
           id="tspan2266-7"
           y="242.16681"
           x="92.08287"
           sodipodi:role="line"
           style="font-style:normal;font-variant:normal;font-weight:normal;font-stretch:normal;font-family:sans-serif;-inkscape-font-specification:sans-serif;stroke-width:0.35277778">obserwacje</tspan>
      </text>
      <rect
         y="228.10608"
         x="34.015171"
         height="6.5523791"
         width="2.2334659"
         id="rect1661-5-8"
         style="fill:#ffffff;fill-opacity:1;stroke:none;stroke-width:0.02801164;stroke-linecap:round;stroke-miterlimit:4;stroke-dasharray:none;stroke-opacity:1" />
      <text
         style="font-variant:normal;font-weight:normal;font-size:2.82222223px;font-family:ArialMT;-inkscape-font-specification:ArialMT;writing-mode:lr-tb;fill:#3f60b6;fill-opacity:1;fill-rule:nonzero;stroke:none;stroke-width:0.35277778"
         id="text52-8-2-9-5"
         x="27.409763"
         y="230.37457">
        <tspan
           id="tspan2241-4"
           y="230.37457"
           x="27.409763"
           sodipodi:role="line"
           style="font-style:normal;font-variant:normal;font-weight:normal;font-stretch:normal;font-family:sans-serif;-inkscape-font-specification:sans-serif;stroke-width:0.35277778">Najcieplejszy w ostatnich ponad 100 000 lat</tspan>
        <tspan
           id="tspan2266"
           y="233.94716"
           x="27.409763"
           sodipodi:role="line"
           style="font-style:normal;font-variant:normal;font-weight:normal;font-stretch:normal;font-family:sans-serif;-inkscape-font-specification:sans-serif;stroke-width:0.35277778">okres obejmujący wiele stuleci</tspan>
      </text>
      <text
         style="font-variant:normal;font-weight:normal;font-size:2.82222223px;font-family:ArialMT;-inkscape-font-specification:ArialMT;writing-mode:lr-tb;fill:#3f60b6;fill-opacity:1;fill-rule:nonzero;stroke:none;stroke-width:0.35277778"
         id="text52-8-2-9"
         x="57.43446"
         y="216.88922">
        <tspan
           id="tspan5179-9"
           y="216.88922"
           x="57.43446"
           sodipodi:role="line"
           style="font-style:normal;font-variant:normal;font-weight:normal;font-stretch:normal;font-family:sans-serif;-inkscape-font-specification:sans-serif;stroke-width:0.35277778">Ocieplenie bezprecedensowe</tspan>
        <tspan
           id="tspan2241"
           y="220.46181"
           x="57.43446"
           sodipodi:role="line"
           style="font-style:normal;font-variant:normal;font-weight:normal;font-stretch:normal;font-family:sans-serif;-inkscape-font-specification:sans-serif;stroke-width:0.35277778">w czasie ostatnich ponad 2000 lat</tspan>
      </text>
      <path
         d="m 109.85306,291.71522 h -6.58019"
         style="fill:none;stroke:#3f60b6;stroke-width:0.551;stroke-linecap:butt;stroke-linejoin:miter;stroke-miterlimit:4;stroke-dasharray:none;stroke-opacity:1"
         id="path376-7-9-1"
         inkscape:connector-curvature="0" />
      <path
         d="m 103.54837,293.278 v -1.66228"
         style="fill:none;stroke:#3f60b6;stroke-width:0.551;stroke-linecap:butt;stroke-linejoin:miter;stroke-miterlimit:4;stroke-dasharray:none;stroke-opacity:1"
         id="path376-7-9-1-0"
         inkscape:connector-curvature="0" />
      <path
         d="m 109.57756,293.278 v -1.66228"
         style="fill:none;stroke:#3f60b6;stroke-width:0.551;stroke-linecap:butt;stroke-linejoin:miter;stroke-miterlimit:4;stroke-dasharray:none;stroke-opacity:1"
         id="path376-7-9-1-0-6"
         inkscape:connector-curvature="0" />
      <path
         d="m 34.848417,211.169 h -1.66228"
         style="fill:none;stroke:#3f60b6;stroke-width:0.1763889;stroke-linecap:butt;stroke-linejoin:miter;stroke-miterlimit:4;stroke-dasharray:none;stroke-opacity:1"
         id="path376-7-7-71"
         inkscape:connector-curvature="0" />
      <path
         d="m 34.848417,224.56192 h -1.66228"
         style="fill:none;stroke:#3f60b6;stroke-width:0.1763889;stroke-linecap:butt;stroke-linejoin:miter;stroke-miterlimit:4;stroke-dasharray:none;stroke-opacity:1"
         id="path376-7-7-71-1"
         inkscape:connector-curvature="0" />
      <path
         d="m 34.848418,237.95525 h -1.66228"
         style="fill:none;stroke:#3f60b6;stroke-width:0.1763889;stroke-linecap:butt;stroke-linejoin:miter;stroke-miterlimit:4;stroke-dasharray:none;stroke-opacity:1"
         id="path376-7-7-71-5"
         inkscape:connector-curvature="0" />
      <path
         d="m 34.848371,251.34836 h -1.66228"
         style="fill:none;stroke:#3f60b6;stroke-width:0.1763889;stroke-linecap:butt;stroke-linejoin:miter;stroke-miterlimit:4;stroke-dasharray:none;stroke-opacity:1"
         id="path376-7-7-71-9"
         inkscape:connector-curvature="0" />
      <path
         d="m 34.848418,264.74148 h -1.66228"
         style="fill:none;stroke:#3f60b6;stroke-width:0.1763889;stroke-linecap:butt;stroke-linejoin:miter;stroke-miterlimit:4;stroke-dasharray:none;stroke-opacity:1"
         id="path376-7-7-71-7"
         inkscape:connector-curvature="0" />
      <path
         d="m 34.848417,278.13441 h -1.66228"
         style="fill:none;stroke:#3f60b6;stroke-width:0.1763889;stroke-linecap:butt;stroke-linejoin:miter;stroke-miterlimit:4;stroke-dasharray:none;stroke-opacity:1"
         id="path376-7-7-71-76"
         inkscape:connector-curvature="0" />
      <path
         d="m 34.848205,291.52753 h -1.66228"
         style="fill:none;stroke:#3f60b6;stroke-width:0.1763889;stroke-linecap:butt;stroke-linejoin:miter;stroke-miterlimit:4;stroke-dasharray:none;stroke-opacity:1"
         id="path376-7-7-71-6"
         inkscape:connector-curvature="0" />
      <path
         d="m 109.76504,211.081 v 80.35869"
         style="fill:none;stroke:#3f60b6;stroke-width:0.1758633;stroke-linecap:butt;stroke-linejoin:miter;stroke-miterlimit:4;stroke-dasharray:none;stroke-opacity:1"
         id="path388-7-3-1-5"
         inkscape:connector-curvature="0" />
      <path
         d="M 34.848417,211.169 H 109.85306"
         style="fill:none;stroke:#3f60b6;stroke-width:0.176;stroke-linecap:butt;stroke-linejoin:miter;stroke-miterlimit:4;stroke-dasharray:none;stroke-opacity:1"
         id="path388-7-0-2-6"
         inkscape:connector-curvature="0" />
      <path
         inkscape:connector-curvature="0"
         id="path2783"
         d="m 96.636952,222.0906 11.325538,11.32554"
         style="fill:none;stroke:#000000;stroke-width:0.176;stroke-linecap:butt;stroke-linejoin:miter;stroke-miterlimit:4;stroke-dasharray:none;stroke-opacity:1" />
      <path
         d="m 108.33979,234.05062 c -0.26881,-0.14394 -0.46002,-0.22048 -0.6918,-0.31997 l 0.62901,-0.629 c 0.031,0.0875 0.17603,0.42298 0.31997,0.6918 0.15345,0.28751 0.30868,0.5334 0.42157,0.67945 -0.14539,-0.11357 -0.39126,-0.26809 -0.67875,-0.42228"
         style="fill:#231f20;fill-opacity:1;fill-rule:nonzero;stroke:none;stroke-width:0.03527778"
         id="path270-6-6"
         inkscape:connector-curvature="0" />
      <path
         inkscape:connector-curvature="0"
         id="path2783-3"
         d="m 27.15843,231.2983 -4.710957,4.71096"
         style="fill:none;stroke:#000000;stroke-width:0.176;stroke-linecap:butt;stroke-linejoin:miter;stroke-miterlimit:4;stroke-dasharray:none;stroke-opacity:1" />
      <path
         d="m 21.812996,236.38657 c 0.143934,-0.26883 0.220481,-0.46002 0.319971,-0.6918 l 0.628994,0.62899 c -0.0876,0.0307 -0.422968,0.17607 -0.691794,0.32 -0.287508,0.15344 -0.533399,0.30868 -0.679451,0.42156 0.113572,-0.14538 0.268094,-0.39126 0.42228,-0.67875"
         style="fill:#231f20;fill-opacity:1;fill-rule:nonzero;stroke:none;stroke-width:0.03527778"
         id="path270-6-6-9"
         inkscape:connector-curvature="0" />
    </g>
  </g>
</svg>
